<?xml version="1.0" encoding="utf-8"?>
<!-- Generator: Adobe Illustrator 24.3.0, SVG Export Plug-In . SVG Version: 6.00 Build 0)  -->
<svg version="1.1" xmlns="http://www.w3.org/2000/svg" xmlns:xlink="http://www.w3.org/1999/xlink" x="0px" y="0px"
	 viewBox="0 0 484 514" style="enable-background:new 0 0 484 514;" xml:space="preserve">
<g id="Conversation">
	<path d="M104.3,507.23c-15.69,0-26.74-4.98-33.61-15.1c-6.98-10.42-7.17-23.01-0.61-34.66l19.61-35.56
		c0.01-0.01,0.01-0.02,0.02-0.03c-44.2-37.53-72.8-89.38-80.82-146.75c-6.05-42.59-0.27-85.99,16.7-125.47
		C58.47,73.14,127.14,20.6,209.27,9.12c30.97-4.36,61.82-2.65,91.65,5.08c29.88,7.75,57.69,21.25,82.66,40.13
		c50.3,37.82,82.83,92.95,91.55,155.21l0,0c6.01,42.47,0.24,85.8-16.68,125.3c-32.92,76.48-101.55,129-183.6,140.53
		c-23.87,3.34-47.8,3.05-71.19-0.88c-7.31,4.72-14.55,8.84-22.46,12.78l-0.35,0.17c-3.34,1.58-6.32,2.8-8.72,3.78l-3.55,1.49
		c-14.26,6.14-31.15,10.64-50.06,13.33l-2.21,0.35C112.04,506.95,108.04,507.23,104.3,507.23z"/>
</g>
</svg>
