<?xml version="1.0" encoding="utf-8"?>
<!-- Generator: Adobe Illustrator 24.3.0, SVG Export Plug-In . SVG Version: 6.00 Build 0)  -->
<svg version="1.1" xmlns="http://www.w3.org/2000/svg" xmlns:xlink="http://www.w3.org/1999/xlink" x="0px" y="0px"
	 viewBox="0 0 507.91 439.12" style="enable-background:new 0 0 507.91 439.12;" xml:space="preserve">
<g>
	<g>
		<g>
			<path d="M504.23,272.09c0-53.35-47.21-97.95-110.9-110.41c-6.59,76.25-79.83,138.07-173.81,149.05
				c20.41,43.9,74.39,75.34,137.96,75.34c6.48,0,12.86-0.4,19.11-1.02l84.46,49.31l-32.17-62.73
				C473.83,352.15,504.23,314.93,504.23,272.09z"/>
		</g>
		<path d="M188.67,3.36C86.72,3.36,4.1,67.54,4.1,146.67c0,53.84,38.21,100.73,94.72,125.22l-40.43,78.88l106.13-61.99
			c7.9,0.8,15.96,1.22,24.14,1.22c101.95,0,184.57-64.15,184.57-143.33C373.24,67.54,290.62,3.36,188.67,3.36z"/>
	</g>
</g>
</svg>
