<?xml version="1.0" encoding="utf-8"?>
<!-- Generator: Adobe Illustrator 24.3.0, SVG Export Plug-In . SVG Version: 6.00 Build 0)  -->
<svg version="1.1" xmlns="http://www.w3.org/2000/svg" xmlns:xlink="http://www.w3.org/1999/xlink" x="0px" y="0px"
	 viewBox="0 0 530 429" style="enable-background:new 0 0 530 429;" xml:space="preserve">
<path style="fill:none;stroke:#000000;stroke-width:20;stroke-linecap:round;stroke-linejoin:round;stroke-miterlimit:10;" d="
	M154.88,172.91H48.74c-18.8,0-34.04,15.24-34.04,34.04v119.29c0,18.8,15.24,34.04,34.04,34.04h21.64c2.29,0,4.14,1.85,4.14,4.14
	v44.43c0,3.69,4.46,5.54,7.07,2.93l50.29-50.29c0.78-0.78,1.83-1.21,2.93-1.21h61.42c17.99,0,32.72-13.95,33.96-31.62"/>
<path style="fill:none;stroke:#000000;stroke-width:20;stroke-linecap:round;stroke-linejoin:round;stroke-miterlimit:10;" d="
	M461.71,17.22h-54.78H299.27h-63c-29.43,0-53.28,23.86-53.28,53.28v176.82c0,29.43,23.86,53.28,53.28,53.28h98.06
	c1.72,0,3.37,0.68,4.59,1.9l78.71,78.71c4.09,4.09,11.07,1.19,11.07-4.59v-69.54c0-3.58,2.9-6.49,6.49-6.49h26.52
	c29.43,0,53.29-23.86,53.29-53.28V70.5C515,41.07,491.14,17.22,461.71,17.22z"/>
</svg>
