<?xml version="1.0" encoding="utf-8"?>
<!-- Generator: Adobe Illustrator 24.3.0, SVG Export Plug-In . SVG Version: 6.00 Build 0)  -->
<svg version="1.1" xmlns="http://www.w3.org/2000/svg" xmlns:xlink="http://www.w3.org/1999/xlink" x="0px" y="0px"
	 viewBox="0 0 110 93" style="enable-background:new 0 0 110 93;" xml:space="preserve">
<circle cx="7.74" cy="7.18" r="4.19"/>
<circle cx="23.44" cy="7.18" r="4.19"/>
<circle cx="39.14" cy="7.18" r="4.19"/>
<circle cx="54.84" cy="7.18" r="4.19"/>
<circle cx="70.54" cy="7.18" r="4.19"/>
<circle cx="86.24" cy="7.18" r="4.19"/>
<circle cx="101.94" cy="7.18" r="4.19"/>
<circle cx="101.94" cy="22.88" r="4.19"/>
<circle cx="86.24" cy="22.88" r="4.19"/>
<circle cx="70.54" cy="22.88" r="4.19"/>
<circle cx="54.84" cy="22.88" r="4.19"/>
<circle cx="39.14" cy="22.88" r="4.19"/>
<circle cx="23.44" cy="22.88" r="4.19"/>
<circle cx="7.74" cy="22.88" r="4.19"/>
<circle cx="7.74" cy="38.58" r="4.19"/>
<circle cx="23.44" cy="38.58" r="4.19"/>
<circle cx="39.14" cy="38.58" r="4.19"/>
<circle cx="54.84" cy="38.58" r="4.19"/>
<circle cx="70.54" cy="38.58" r="4.19"/>
<circle cx="86.24" cy="38.58" r="4.19"/>
<circle cx="101.94" cy="38.58" r="4.19"/>
<circle cx="7.74" cy="53.41" r="4.19"/>
<circle cx="23.44" cy="53.41" r="4.19"/>
<circle cx="39.14" cy="53.41" r="4.19"/>
<circle cx="54.84" cy="53.41" r="4.19"/>
<circle cx="70.54" cy="53.41" r="4.19"/>
<circle cx="86.24" cy="53.41" r="4.19"/>
<circle cx="101.94" cy="53.41" r="4.19"/>
<circle cx="101.94" cy="69.11" r="4.19"/>
<circle cx="86.24" cy="69.11" r="4.19"/>
<circle cx="70.54" cy="69.11" r="4.19"/>
<circle cx="54.84" cy="69.11" r="4.19"/>
<circle cx="39.14" cy="69.11" r="4.19"/>
<circle cx="23.44" cy="69.11" r="4.19"/>
<circle cx="7.74" cy="69.11" r="4.19"/>
<circle cx="7.74" cy="84.81" r="4.19"/>
<circle cx="23.44" cy="84.81" r="4.19"/>
<circle cx="39.14" cy="84.81" r="4.19"/>
<circle cx="54.84" cy="84.81" r="4.19"/>
<circle cx="70.54" cy="84.81" r="4.19"/>
<circle cx="86.24" cy="84.81" r="4.19"/>
<circle cx="101.94" cy="84.81" r="4.19"/>
</svg>
