<?xml version="1.0" encoding="utf-8"?>
<!-- Generator: Adobe Illustrator 24.3.0, SVG Export Plug-In . SVG Version: 6.00 Build 0)  -->
<svg version="1.1" xmlns="http://www.w3.org/2000/svg" xmlns:xlink="http://www.w3.org/1999/xlink" x="0px" y="0px"
	 viewBox="0 0 93.07 48.16" style="enable-background:new 0 0 93.07 48.16;" xml:space="preserve">
<g>
	<g>
		<path d="M2.51,46.13c0,0.18-0.14,0.32-0.32,0.32s-0.32-0.14-0.32-0.32s0.14-0.32,0.32-0.32S2.51,45.95,2.51,46.13z"/>
		<path d="M4.33,46.13c0,0.18-0.14,0.32-0.32,0.32c-0.18,0-0.32-0.14-0.32-0.32s0.14-0.32,0.32-0.32
			C4.18,45.81,4.33,45.95,4.33,46.13z"/>
		<path d="M6.14,46.13c0,0.18-0.14,0.32-0.32,0.32c-0.18,0-0.32-0.14-0.32-0.32s0.14-0.32,0.32-0.32
			C5.99,45.81,6.14,45.95,6.14,46.13z"/>
		<path d="M7.95,46.13c0,0.18-0.14,0.32-0.32,0.32c-0.18,0-0.32-0.14-0.32-0.32s0.14-0.32,0.32-0.32
			C7.8,45.81,7.95,45.95,7.95,46.13z"/>
		<path d="M9.76,46.13c0,0.18-0.14,0.32-0.32,0.32s-0.32-0.14-0.32-0.32s0.14-0.32,0.32-0.32C9.61,45.81,9.76,45.95,9.76,46.13z"/>
		<path d="M11.57,46.13c0,0.18-0.14,0.32-0.32,0.32c-0.18,0-0.32-0.14-0.32-0.32s0.14-0.32,0.32-0.32
			C11.42,45.81,11.57,45.95,11.57,46.13z"/>
		<path d="M13.38,46.13c0,0.18-0.14,0.32-0.32,0.32c-0.18,0-0.32-0.14-0.32-0.32s0.14-0.32,0.32-0.32
			C13.23,45.81,13.38,45.95,13.38,46.13z"/>
		<path d="M15.19,46.13c0,0.18-0.14,0.32-0.32,0.32s-0.32-0.14-0.32-0.32s0.14-0.32,0.32-0.32S15.19,45.95,15.19,46.13z"/>
		<path d="M17,46.13c0,0.18-0.14,0.32-0.32,0.32s-0.32-0.14-0.32-0.32s0.14-0.32,0.32-0.32S17,45.95,17,46.13z"/>
		<path d="M18.81,46.13c0,0.18-0.14,0.32-0.32,0.32s-0.32-0.14-0.32-0.32s0.14-0.32,0.32-0.32S18.81,45.95,18.81,46.13z"/>
		<path d="M20.62,46.13c0,0.18-0.14,0.32-0.32,0.32s-0.32-0.14-0.32-0.32s0.14-0.32,0.32-0.32S20.62,45.95,20.62,46.13z"/>
		<path d="M22.43,46.13c0,0.18-0.14,0.32-0.32,0.32s-0.32-0.14-0.32-0.32s0.14-0.32,0.32-0.32S22.43,45.95,22.43,46.13z"/>
		<path d="M24.24,46.13c0,0.18-0.14,0.32-0.32,0.32s-0.32-0.14-0.32-0.32s0.14-0.32,0.32-0.32S24.24,45.95,24.24,46.13z"/>
		<path d="M26.05,46.13c0,0.18-0.14,0.32-0.32,0.32s-0.32-0.14-0.32-0.32s0.14-0.32,0.32-0.32S26.05,45.95,26.05,46.13z"/>
		<path d="M27.87,46.13c0,0.18-0.14,0.32-0.32,0.32s-0.32-0.14-0.32-0.32s0.14-0.32,0.32-0.32C27.72,45.81,27.87,45.95,27.87,46.13z
			"/>
		<path d="M29.68,46.13c0,0.18-0.14,0.32-0.32,0.32s-0.32-0.14-0.32-0.32s0.14-0.32,0.32-0.32C29.53,45.81,29.68,45.95,29.68,46.13z
			"/>
		<path d="M31.49,46.13c0,0.18-0.14,0.32-0.32,0.32s-0.32-0.14-0.32-0.32s0.14-0.32,0.32-0.32C31.34,45.81,31.49,45.95,31.49,46.13z
			"/>
		<path d="M33.3,46.13c0,0.18-0.14,0.32-0.32,0.32s-0.32-0.14-0.32-0.32s0.14-0.32,0.32-0.32C33.15,45.81,33.3,45.95,33.3,46.13z"/>
		<path d="M35.11,46.13c0,0.18-0.14,0.32-0.32,0.32s-0.32-0.14-0.32-0.32s0.14-0.32,0.32-0.32C34.96,45.81,35.11,45.95,35.11,46.13z
			"/>
		<path d="M36.92,46.13c0,0.18-0.14,0.32-0.32,0.32s-0.32-0.14-0.32-0.32s0.14-0.32,0.32-0.32S36.92,45.95,36.92,46.13z"/>
		<path d="M38.73,46.13c0,0.18-0.14,0.32-0.32,0.32s-0.32-0.14-0.32-0.32s0.14-0.32,0.32-0.32S38.73,45.95,38.73,46.13z"/>
		<path d="M40.54,46.13c0,0.18-0.14,0.32-0.32,0.32s-0.32-0.14-0.32-0.32s0.14-0.32,0.32-0.32S40.54,45.95,40.54,46.13z"/>
		<path d="M42.35,46.13c0,0.18-0.14,0.32-0.32,0.32s-0.32-0.14-0.32-0.32s0.14-0.32,0.32-0.32S42.35,45.95,42.35,46.13z"/>
		<path d="M44.16,46.13c0,0.18-0.14,0.32-0.32,0.32s-0.32-0.14-0.32-0.32s0.14-0.32,0.32-0.32S44.16,45.95,44.16,46.13z"/>
		<path d="M45.97,46.13c0,0.18-0.14,0.32-0.32,0.32s-0.32-0.14-0.32-0.32s0.14-0.32,0.32-0.32S45.97,45.95,45.97,46.13z"/>
		<path d="M47.78,46.13c0,0.18-0.14,0.32-0.32,0.32s-0.32-0.14-0.32-0.32s0.14-0.32,0.32-0.32S47.78,45.95,47.78,46.13z"/>
		<path d="M49.59,46.13c0,0.18-0.14,0.32-0.32,0.32s-0.32-0.14-0.32-0.32s0.14-0.32,0.32-0.32S49.59,45.95,49.59,46.13z"/>
		<path d="M51.41,46.13c0,0.18-0.14,0.32-0.32,0.32s-0.32-0.14-0.32-0.32s0.14-0.32,0.32-0.32C51.26,45.81,51.41,45.95,51.41,46.13z
			"/>
		<path d="M53.22,46.13c0,0.18-0.14,0.32-0.32,0.32s-0.32-0.14-0.32-0.32s0.14-0.32,0.32-0.32C53.07,45.81,53.22,45.95,53.22,46.13z
			"/>
		<path d="M55.03,46.13c0,0.18-0.14,0.32-0.32,0.32s-0.32-0.14-0.32-0.32s0.14-0.32,0.32-0.32C54.88,45.81,55.03,45.95,55.03,46.13z
			"/>
		<path d="M56.84,46.13c0,0.18-0.14,0.32-0.32,0.32s-0.32-0.14-0.32-0.32s0.14-0.32,0.32-0.32C56.69,45.81,56.84,45.95,56.84,46.13z
			"/>
		<path d="M58.65,46.13c0,0.18-0.14,0.32-0.32,0.32s-0.32-0.14-0.32-0.32s0.14-0.32,0.32-0.32C58.5,45.81,58.65,45.95,58.65,46.13z"
			/>
		<path d="M60.46,46.13c0,0.18-0.14,0.32-0.32,0.32s-0.32-0.14-0.32-0.32s0.14-0.32,0.32-0.32S60.46,45.95,60.46,46.13z"/>
		<path d="M62.27,46.13c0,0.18-0.14,0.32-0.32,0.32s-0.32-0.14-0.32-0.32s0.14-0.32,0.32-0.32S62.27,45.95,62.27,46.13z"/>
		<path d="M64.08,46.13c0,0.18-0.14,0.32-0.32,0.32s-0.32-0.14-0.32-0.32s0.14-0.32,0.32-0.32S64.08,45.95,64.08,46.13z"/>
	</g>
	<g>
		<path d="M4.1,43.55c0,0.18-0.14,0.32-0.32,0.32c-0.18,0-0.32-0.14-0.32-0.32s0.14-0.32,0.32-0.32C3.95,43.23,4.1,43.37,4.1,43.55z
			"/>
		<path d="M5.91,43.55c0,0.18-0.14,0.32-0.32,0.32c-0.18,0-0.32-0.14-0.32-0.32s0.14-0.32,0.32-0.32
			C5.76,43.23,5.91,43.37,5.91,43.55z"/>
		<path d="M7.72,43.55c0,0.18-0.14,0.32-0.32,0.32s-0.33-0.14-0.33-0.32s0.14-0.32,0.32-0.32S7.72,43.37,7.72,43.55z"/>
		<path d="M9.53,43.55c0,0.18-0.14,0.32-0.32,0.32c-0.18,0-0.32-0.14-0.32-0.32s0.14-0.32,0.32-0.32S9.53,43.37,9.53,43.55z"/>
		<path d="M11.34,43.55c0,0.18-0.14,0.32-0.32,0.32c-0.18,0-0.32-0.14-0.32-0.32s0.14-0.32,0.32-0.32S11.34,43.37,11.34,43.55z"/>
		<path d="M13.15,43.55c0,0.18-0.14,0.32-0.32,0.32c-0.18,0-0.32-0.14-0.32-0.32s0.14-0.32,0.32-0.32
			C13.01,43.23,13.15,43.37,13.15,43.55z"/>
		<path d="M14.96,43.55c0,0.18-0.14,0.32-0.32,0.32c-0.18,0-0.32-0.14-0.32-0.32s0.14-0.32,0.32-0.32S14.96,43.37,14.96,43.55z"/>
		<path d="M16.77,43.55c0,0.18-0.14,0.32-0.32,0.32s-0.32-0.14-0.32-0.32s0.14-0.32,0.32-0.32S16.77,43.37,16.77,43.55z"/>
		<path d="M18.58,43.55c0,0.18-0.14,0.32-0.32,0.32s-0.32-0.14-0.32-0.32s0.14-0.32,0.32-0.32S18.58,43.37,18.58,43.55z"/>
		<path d="M20.39,43.55c0,0.18-0.14,0.32-0.32,0.32s-0.32-0.14-0.32-0.32s0.14-0.32,0.32-0.32S20.39,43.37,20.39,43.55z"/>
		<path d="M22.21,43.55c0,0.18-0.14,0.32-0.32,0.32s-0.32-0.14-0.32-0.32s0.14-0.32,0.32-0.32C22.06,43.23,22.21,43.37,22.21,43.55z
			"/>
		<path d="M24.02,43.55c0,0.18-0.14,0.32-0.32,0.32s-0.32-0.14-0.32-0.32s0.14-0.32,0.32-0.32C23.87,43.23,24.02,43.37,24.02,43.55z
			"/>
		<path d="M25.83,43.55c0,0.18-0.14,0.32-0.32,0.32s-0.32-0.14-0.32-0.32s0.14-0.32,0.32-0.32C25.68,43.23,25.83,43.37,25.83,43.55z
			"/>
		<path d="M27.64,43.55c0,0.18-0.14,0.32-0.32,0.32S27,43.73,27,43.55s0.14-0.32,0.32-0.32C27.49,43.23,27.64,43.37,27.64,43.55z"/>
		<path d="M29.45,43.55c0,0.18-0.14,0.32-0.32,0.32s-0.32-0.14-0.32-0.32s0.14-0.32,0.32-0.32C29.3,43.23,29.45,43.37,29.45,43.55z"
			/>
		<path d="M31.26,43.55c0,0.18-0.14,0.32-0.32,0.32s-0.32-0.14-0.32-0.32s0.14-0.32,0.32-0.32C31.11,43.23,31.26,43.37,31.26,43.55z
			"/>
		<path d="M33.07,43.55c0,0.18-0.14,0.32-0.32,0.32s-0.32-0.14-0.32-0.32s0.14-0.32,0.32-0.32S33.07,43.37,33.07,43.55z"/>
		<path d="M34.88,43.55c0,0.18-0.14,0.32-0.32,0.32s-0.32-0.14-0.32-0.32s0.14-0.32,0.32-0.32S34.88,43.37,34.88,43.55z"/>
		<path d="M36.69,43.55c0,0.18-0.14,0.32-0.32,0.32s-0.32-0.14-0.32-0.32s0.14-0.32,0.32-0.32S36.69,43.37,36.69,43.55z"/>
		<path d="M38.5,43.55c0,0.18-0.14,0.32-0.32,0.32s-0.32-0.14-0.32-0.32s0.14-0.32,0.32-0.32S38.5,43.37,38.5,43.55z"/>
		<path d="M40.31,43.55c0,0.18-0.14,0.32-0.32,0.32s-0.32-0.14-0.32-0.32s0.14-0.32,0.32-0.32S40.31,43.37,40.31,43.55z"/>
		<path d="M42.12,43.55c0,0.18-0.14,0.32-0.32,0.32s-0.32-0.14-0.32-0.32s0.14-0.32,0.32-0.32S42.12,43.37,42.12,43.55z"/>
		<path d="M43.93,43.55c0,0.18-0.14,0.32-0.32,0.32s-0.32-0.14-0.32-0.32s0.14-0.32,0.32-0.32S43.93,43.37,43.93,43.55z"/>
		<path d="M45.75,43.55c0,0.18-0.14,0.32-0.32,0.32s-0.32-0.14-0.32-0.32s0.14-0.32,0.32-0.32C45.6,43.23,45.75,43.37,45.75,43.55z"
			/>
		<path d="M47.56,43.55c0,0.18-0.14,0.32-0.32,0.32s-0.32-0.14-0.32-0.32s0.14-0.32,0.32-0.32C47.41,43.23,47.56,43.37,47.56,43.55z
			"/>
		<path d="M49.37,43.55c0,0.18-0.14,0.32-0.32,0.32s-0.32-0.14-0.32-0.32s0.14-0.32,0.32-0.32C49.22,43.23,49.37,43.37,49.37,43.55z
			"/>
		<path d="M51.18,43.55c0,0.18-0.14,0.32-0.32,0.32s-0.32-0.14-0.32-0.32s0.14-0.32,0.32-0.32C51.03,43.23,51.18,43.37,51.18,43.55z
			"/>
		<path d="M52.99,43.55c0,0.18-0.14,0.32-0.32,0.32s-0.32-0.14-0.32-0.32s0.14-0.32,0.32-0.32C52.84,43.23,52.99,43.37,52.99,43.55z
			"/>
		<path d="M54.8,43.55c0,0.18-0.14,0.32-0.32,0.32s-0.32-0.14-0.32-0.32s0.14-0.32,0.32-0.32C54.65,43.23,54.8,43.37,54.8,43.55z"/>
		<path d="M56.61,43.55c0,0.18-0.14,0.32-0.32,0.32s-0.32-0.14-0.32-0.32s0.14-0.32,0.32-0.32S56.61,43.37,56.61,43.55z"/>
		<path d="M58.42,43.55c0,0.18-0.14,0.32-0.32,0.32s-0.32-0.14-0.32-0.32s0.14-0.32,0.32-0.32S58.42,43.37,58.42,43.55z"/>
		<path d="M60.23,43.55c0,0.18-0.14,0.32-0.32,0.32s-0.32-0.14-0.32-0.32s0.14-0.32,0.32-0.32S60.23,43.37,60.23,43.55z"/>
		<path d="M62.04,43.55c0,0.18-0.14,0.32-0.32,0.32s-0.32-0.14-0.32-0.32s0.14-0.32,0.32-0.32S62.04,43.37,62.04,43.55z"/>
		<path d="M63.85,43.55c0,0.18-0.14,0.32-0.32,0.32s-0.32-0.14-0.32-0.32s0.14-0.32,0.32-0.32S63.85,43.37,63.85,43.55z"/>
		<path d="M65.66,43.55c0,0.18-0.14,0.32-0.32,0.32s-0.32-0.14-0.32-0.32s0.14-0.32,0.32-0.32S65.66,43.37,65.66,43.55z"/>
	</g>
	<g>
		<path d="M5.68,40.97c0,0.18-0.14,0.32-0.32,0.32c-0.18,0-0.32-0.14-0.32-0.32s0.14-0.32,0.32-0.32
			C5.54,40.64,5.68,40.79,5.68,40.97z"/>
		<path d="M7.49,40.97c0,0.18-0.14,0.32-0.32,0.32c-0.18,0-0.32-0.14-0.32-0.32s0.14-0.32,0.32-0.32
			C7.35,40.64,7.49,40.79,7.49,40.97z"/>
		<path d="M9.3,40.97c0,0.18-0.14,0.32-0.32,0.32c-0.18,0-0.32-0.14-0.32-0.32s0.14-0.32,0.32-0.32C9.16,40.64,9.3,40.79,9.3,40.97z
			"/>
		<path d="M11.11,40.97c0,0.18-0.14,0.32-0.32,0.32c-0.18,0-0.32-0.14-0.32-0.32s0.14-0.32,0.32-0.32
			C10.97,40.64,11.11,40.79,11.11,40.97z"/>
		<path d="M12.92,40.97c0,0.18-0.14,0.32-0.32,0.32c-0.18,0-0.32-0.14-0.32-0.32s0.14-0.32,0.32-0.32
			C12.78,40.64,12.92,40.79,12.92,40.97z"/>
		<path d="M14.73,40.97c0,0.18-0.14,0.32-0.32,0.32c-0.18,0-0.32-0.14-0.32-0.32s0.14-0.32,0.32-0.32
			C14.59,40.64,14.73,40.79,14.73,40.97z"/>
		<path d="M16.54,40.97c0,0.18-0.14,0.32-0.32,0.32s-0.32-0.14-0.32-0.32s0.14-0.32,0.32-0.32C16.4,40.64,16.54,40.79,16.54,40.97z"
			/>
		<path d="M18.36,40.97c0,0.18-0.14,0.32-0.32,0.32s-0.32-0.14-0.32-0.32s0.14-0.32,0.32-0.32C18.21,40.64,18.36,40.79,18.36,40.97z
			"/>
		<path d="M20.17,40.97c0,0.18-0.14,0.32-0.32,0.32s-0.32-0.14-0.32-0.32s0.14-0.32,0.32-0.32C20.02,40.64,20.17,40.79,20.17,40.97z
			"/>
		<path d="M21.98,40.97c0,0.18-0.14,0.32-0.32,0.32s-0.32-0.14-0.32-0.32s0.14-0.32,0.32-0.32C21.83,40.64,21.98,40.79,21.98,40.97z
			"/>
		<path d="M23.79,40.97c0,0.18-0.14,0.32-0.32,0.32s-0.32-0.14-0.32-0.32s0.14-0.32,0.32-0.32C23.64,40.64,23.79,40.79,23.79,40.97z
			"/>
		<path d="M25.6,40.97c0,0.18-0.14,0.32-0.32,0.32s-0.32-0.14-0.32-0.32s0.14-0.32,0.32-0.32S25.6,40.79,25.6,40.97z"/>
		<path d="M27.41,40.97c0,0.18-0.14,0.32-0.32,0.32s-0.32-0.14-0.32-0.32s0.14-0.32,0.32-0.32C27.27,40.64,27.41,40.79,27.41,40.97z
			"/>
		<path d="M29.22,40.97c0,0.18-0.14,0.32-0.32,0.32s-0.32-0.14-0.32-0.32s0.14-0.32,0.32-0.32C29.08,40.64,29.22,40.79,29.22,40.97z
			"/>
		<path d="M31.03,40.97c0,0.18-0.14,0.32-0.32,0.32s-0.32-0.14-0.32-0.32s0.14-0.32,0.32-0.32C30.89,40.64,31.03,40.79,31.03,40.97z
			"/>
		<path d="M32.84,40.97c0,0.18-0.14,0.32-0.32,0.32s-0.32-0.14-0.32-0.32s0.14-0.32,0.32-0.32C32.7,40.64,32.84,40.79,32.84,40.97z"
			/>
		<path d="M34.65,40.97c0,0.18-0.14,0.32-0.32,0.32s-0.32-0.14-0.32-0.32s0.14-0.32,0.32-0.32C34.51,40.64,34.65,40.79,34.65,40.97z
			"/>
		<path d="M36.46,40.97c0,0.18-0.14,0.32-0.32,0.32s-0.32-0.14-0.32-0.32s0.14-0.32,0.32-0.32C36.32,40.64,36.46,40.79,36.46,40.97z
			"/>
		<path d="M38.27,40.97c0,0.18-0.14,0.32-0.32,0.32s-0.32-0.14-0.32-0.32s0.14-0.32,0.32-0.32C38.13,40.64,38.27,40.79,38.27,40.97z
			"/>
		<path d="M40.09,40.97c0,0.18-0.14,0.32-0.32,0.32s-0.32-0.14-0.32-0.32s0.14-0.32,0.32-0.32C39.94,40.64,40.09,40.79,40.09,40.97z
			"/>
		<path d="M41.9,40.97c0,0.18-0.14,0.32-0.32,0.32s-0.32-0.14-0.32-0.32s0.14-0.32,0.32-0.32C41.75,40.64,41.9,40.79,41.9,40.97z"/>
		<path d="M43.71,40.97c0,0.18-0.14,0.32-0.32,0.32s-0.32-0.14-0.32-0.32s0.14-0.32,0.32-0.32C43.56,40.64,43.71,40.79,43.71,40.97z
			"/>
		<path d="M45.52,40.97c0,0.18-0.14,0.32-0.32,0.32s-0.32-0.14-0.32-0.32s0.14-0.32,0.32-0.32C45.37,40.64,45.52,40.79,45.52,40.97z
			"/>
		<path d="M47.33,40.97c0,0.18-0.14,0.32-0.32,0.32s-0.32-0.14-0.32-0.32s0.14-0.32,0.32-0.32C47.18,40.64,47.33,40.79,47.33,40.97z
			"/>
		<path d="M49.14,40.97c0,0.18-0.14,0.32-0.32,0.32s-0.32-0.14-0.32-0.32s0.14-0.32,0.32-0.32C48.99,40.64,49.14,40.79,49.14,40.97z
			"/>
		<path d="M50.95,40.97c0,0.18-0.14,0.32-0.32,0.32s-0.32-0.14-0.32-0.32s0.14-0.32,0.32-0.32C50.81,40.64,50.95,40.79,50.95,40.97z
			"/>
		<path d="M52.76,40.97c0,0.18-0.14,0.32-0.32,0.32s-0.32-0.14-0.32-0.32s0.14-0.32,0.32-0.32C52.62,40.64,52.76,40.79,52.76,40.97z
			"/>
		<path d="M54.57,40.97c0,0.18-0.14,0.32-0.32,0.32s-0.32-0.14-0.32-0.32s0.14-0.32,0.32-0.32C54.43,40.64,54.57,40.79,54.57,40.97z
			"/>
		<path d="M56.38,40.97c0,0.18-0.14,0.32-0.32,0.32s-0.32-0.14-0.32-0.32s0.14-0.32,0.32-0.32C56.24,40.64,56.38,40.79,56.38,40.97z
			"/>
		<path d="M58.19,40.97c0,0.18-0.14,0.32-0.32,0.32s-0.32-0.14-0.32-0.32s0.14-0.32,0.32-0.32C58.05,40.64,58.19,40.79,58.19,40.97z
			"/>
		<path d="M60,40.97c0,0.18-0.14,0.32-0.32,0.32s-0.32-0.14-0.32-0.32s0.14-0.32,0.32-0.32C59.86,40.64,60,40.79,60,40.97z"/>
		<path d="M61.81,40.97c0,0.18-0.14,0.32-0.32,0.32s-0.32-0.14-0.32-0.32s0.14-0.32,0.32-0.32C61.67,40.64,61.81,40.79,61.81,40.97z
			"/>
		<path d="M63.63,40.97c0,0.18-0.14,0.32-0.32,0.32s-0.32-0.14-0.32-0.32s0.14-0.32,0.32-0.32C63.48,40.64,63.63,40.79,63.63,40.97z
			"/>
		<path d="M65.44,40.97c0,0.18-0.14,0.32-0.32,0.32s-0.32-0.14-0.32-0.32s0.14-0.32,0.32-0.32C65.29,40.64,65.44,40.79,65.44,40.97z
			"/>
		<path d="M67.25,40.97c0,0.18-0.14,0.32-0.32,0.32s-0.32-0.14-0.32-0.32s0.14-0.32,0.32-0.32C67.1,40.64,67.25,40.79,67.25,40.97z"
			/>
	</g>
	<g>
		<path d="M7.26,38.38c0,0.18-0.14,0.32-0.32,0.32c-0.18,0-0.32-0.14-0.32-0.32s0.14-0.32,0.32-0.32S7.26,38.21,7.26,38.38z"/>
		<path d="M9.07,38.38c0,0.18-0.14,0.32-0.32,0.32s-0.32-0.14-0.32-0.32s0.14-0.32,0.32-0.32S9.07,38.21,9.07,38.38z"/>
		<path d="M10.88,38.38c0,0.18-0.14,0.32-0.32,0.32c-0.18,0-0.32-0.14-0.32-0.32s0.14-0.32,0.32-0.32S10.88,38.21,10.88,38.38z"/>
		<path d="M12.7,38.38c0,0.18-0.14,0.32-0.32,0.32c-0.18,0-0.32-0.14-0.32-0.32s0.14-0.32,0.32-0.32
			C12.55,38.06,12.7,38.21,12.7,38.38z"/>
		<path d="M14.51,38.38c0,0.18-0.14,0.32-0.32,0.32c-0.18,0-0.32-0.14-0.32-0.32s0.14-0.32,0.32-0.32
			C14.36,38.06,14.51,38.21,14.51,38.38z"/>
		<path d="M16.32,38.38c0,0.18-0.14,0.32-0.32,0.32s-0.32-0.14-0.32-0.32s0.14-0.32,0.32-0.32C16.17,38.06,16.32,38.21,16.32,38.38z
			"/>
		<path d="M18.13,38.38c0,0.18-0.14,0.32-0.32,0.32s-0.32-0.14-0.32-0.32s0.14-0.32,0.32-0.32C17.98,38.06,18.13,38.21,18.13,38.38z
			"/>
		<path d="M19.94,38.38c0,0.18-0.14,0.32-0.32,0.32s-0.32-0.14-0.32-0.32s0.14-0.32,0.32-0.32C19.79,38.06,19.94,38.21,19.94,38.38z
			"/>
		<path d="M21.75,38.38c0,0.18-0.14,0.32-0.32,0.32s-0.32-0.14-0.32-0.32s0.14-0.32,0.32-0.32S21.75,38.21,21.75,38.38z"/>
		<path d="M23.56,38.38c0,0.18-0.14,0.32-0.32,0.32s-0.32-0.14-0.32-0.32s0.14-0.32,0.32-0.32S23.56,38.21,23.56,38.38z"/>
		<path d="M25.37,38.38c0,0.18-0.14,0.32-0.32,0.32s-0.32-0.14-0.32-0.32s0.14-0.32,0.32-0.32S25.37,38.21,25.37,38.38z"/>
		<path d="M27.18,38.38c0,0.18-0.14,0.32-0.32,0.32s-0.32-0.14-0.32-0.32s0.14-0.32,0.32-0.32S27.18,38.21,27.18,38.38z"/>
		<path d="M28.99,38.38c0,0.18-0.14,0.32-0.32,0.32s-0.32-0.14-0.32-0.32s0.14-0.32,0.32-0.32S28.99,38.21,28.99,38.38z"/>
		<path d="M30.8,38.38c0,0.18-0.14,0.32-0.32,0.32s-0.32-0.14-0.32-0.32s0.14-0.32,0.32-0.32S30.8,38.21,30.8,38.38z"/>
		<path d="M32.61,38.38c0,0.18-0.14,0.32-0.32,0.32s-0.32-0.14-0.32-0.32s0.14-0.32,0.32-0.32S32.61,38.21,32.61,38.38z"/>
		<path d="M34.42,38.38c0,0.18-0.14,0.32-0.32,0.32s-0.32-0.14-0.32-0.32s0.14-0.32,0.32-0.32S34.42,38.21,34.42,38.38z"/>
		<path d="M36.24,38.38c0,0.18-0.14,0.32-0.32,0.32s-0.32-0.14-0.32-0.32s0.14-0.32,0.32-0.32C36.09,38.06,36.24,38.21,36.24,38.38z
			"/>
		<path d="M38.05,38.38c0,0.18-0.14,0.32-0.32,0.32s-0.32-0.14-0.32-0.32s0.14-0.32,0.32-0.32C37.9,38.06,38.05,38.21,38.05,38.38z"
			/>
		<path d="M39.86,38.38c0,0.18-0.14,0.32-0.32,0.32s-0.32-0.14-0.32-0.32s0.14-0.32,0.32-0.32C39.71,38.06,39.86,38.21,39.86,38.38z
			"/>
		<path d="M41.67,38.38c0,0.18-0.14,0.32-0.32,0.32s-0.32-0.14-0.32-0.32s0.14-0.32,0.32-0.32C41.52,38.06,41.67,38.21,41.67,38.38z
			"/>
		<path d="M43.48,38.38c0,0.18-0.14,0.32-0.32,0.32s-0.32-0.14-0.32-0.32s0.14-0.32,0.32-0.32S43.48,38.21,43.48,38.38z"/>
		<path d="M45.29,38.38c0,0.18-0.14,0.32-0.32,0.32s-0.32-0.14-0.32-0.32s0.14-0.32,0.32-0.32S45.29,38.21,45.29,38.38z"/>
		<path d="M47.1,38.38c0,0.18-0.14,0.32-0.32,0.32s-0.32-0.14-0.32-0.32s0.14-0.32,0.32-0.32S47.1,38.21,47.1,38.38z"/>
		<path d="M48.91,38.38c0,0.18-0.14,0.32-0.32,0.32s-0.32-0.14-0.32-0.32s0.14-0.32,0.32-0.32S48.91,38.21,48.91,38.38z"/>
		<path d="M50.72,38.38c0,0.18-0.14,0.32-0.32,0.32s-0.32-0.14-0.32-0.32s0.14-0.32,0.32-0.32S50.72,38.21,50.72,38.38z"/>
		<path d="M52.53,38.38c0,0.18-0.14,0.32-0.32,0.32s-0.32-0.14-0.32-0.32s0.14-0.32,0.32-0.32S52.53,38.21,52.53,38.38z"/>
		<path d="M54.34,38.38c0,0.18-0.14,0.32-0.32,0.32s-0.32-0.14-0.32-0.32s0.14-0.32,0.32-0.32S54.34,38.21,54.34,38.38z"/>
		<path d="M56.15,38.38c0,0.18-0.14,0.32-0.32,0.32s-0.32-0.14-0.32-0.32s0.14-0.32,0.32-0.32S56.15,38.21,56.15,38.38z"/>
		<path d="M57.97,38.38c0,0.18-0.14,0.32-0.32,0.32s-0.32-0.14-0.32-0.32s0.14-0.32,0.32-0.32C57.82,38.06,57.97,38.21,57.97,38.38z
			"/>
		<path d="M59.78,38.38c0,0.18-0.14,0.32-0.32,0.32s-0.32-0.14-0.32-0.32s0.14-0.32,0.32-0.32C59.63,38.06,59.78,38.21,59.78,38.38z
			"/>
		<path d="M61.59,38.38c0,0.18-0.14,0.32-0.32,0.32s-0.32-0.14-0.32-0.32s0.14-0.32,0.32-0.32C61.44,38.06,61.59,38.21,61.59,38.38z
			"/>
		<path d="M63.4,38.38c0,0.18-0.14,0.32-0.32,0.32s-0.32-0.14-0.32-0.32s0.14-0.32,0.32-0.32C63.25,38.06,63.4,38.21,63.4,38.38z"/>
		<path d="M65.21,38.38c0,0.18-0.14,0.32-0.32,0.32s-0.32-0.14-0.32-0.32s0.14-0.32,0.32-0.32C65.06,38.06,65.21,38.21,65.21,38.38z
			"/>
		<path d="M67.02,38.38c0,0.18-0.14,0.32-0.32,0.32s-0.32-0.14-0.32-0.32s0.14-0.32,0.32-0.32C66.87,38.06,67.02,38.21,67.02,38.38z
			"/>
		<path d="M68.83,38.38c0,0.18-0.14,0.32-0.32,0.32s-0.32-0.14-0.32-0.32s0.14-0.32,0.32-0.32S68.83,38.21,68.83,38.38z"/>
	</g>
	<g>
		<path d="M8.85,35.8c0,0.18-0.14,0.32-0.32,0.32c-0.18,0-0.32-0.14-0.32-0.32s0.14-0.32,0.32-0.32C8.7,35.48,8.85,35.62,8.85,35.8z
			"/>
		<path d="M10.66,35.8c0,0.18-0.14,0.32-0.32,0.32c-0.18,0-0.32-0.14-0.32-0.32s0.14-0.32,0.32-0.32
			C10.51,35.48,10.66,35.62,10.66,35.8z"/>
		<path d="M12.47,35.8c0,0.18-0.14,0.32-0.32,0.32c-0.18,0-0.32-0.14-0.32-0.32s0.14-0.32,0.32-0.32
			C12.32,35.48,12.47,35.62,12.47,35.8z"/>
		<path d="M14.28,35.8c0,0.18-0.14,0.32-0.32,0.32c-0.18,0-0.32-0.14-0.32-0.32s0.14-0.32,0.32-0.32
			C14.13,35.48,14.28,35.62,14.28,35.8z"/>
		<path d="M16.09,35.8c0,0.18-0.14,0.32-0.32,0.32c-0.18,0-0.32-0.14-0.32-0.32s0.14-0.32,0.32-0.32
			C15.94,35.48,16.09,35.62,16.09,35.8z"/>
		<path d="M17.9,35.8c0,0.18-0.14,0.32-0.32,0.32s-0.32-0.14-0.32-0.32s0.14-0.32,0.32-0.32S17.9,35.62,17.9,35.8z"/>
		<path d="M19.71,35.8c0,0.18-0.14,0.32-0.32,0.32s-0.32-0.14-0.32-0.32s0.14-0.32,0.32-0.32S19.71,35.62,19.71,35.8z"/>
		<path d="M21.52,35.8c0,0.18-0.14,0.32-0.32,0.32s-0.32-0.14-0.32-0.32s0.14-0.32,0.32-0.32S21.52,35.62,21.52,35.8z"/>
		<path d="M23.33,35.8c0,0.18-0.14,0.32-0.32,0.32s-0.32-0.14-0.32-0.32s0.14-0.32,0.32-0.32S23.33,35.62,23.33,35.8z"/>
		<path d="M25.14,35.8c0,0.18-0.14,0.32-0.32,0.32s-0.32-0.14-0.32-0.32s0.14-0.32,0.32-0.32S25.14,35.62,25.14,35.8z"/>
		<path d="M26.95,35.8c0,0.18-0.14,0.32-0.32,0.32s-0.32-0.14-0.32-0.32s0.14-0.32,0.32-0.32S26.95,35.62,26.95,35.8z"/>
		<path d="M28.76,35.8c0,0.18-0.14,0.32-0.32,0.32s-0.32-0.14-0.32-0.32s0.14-0.32,0.32-0.32S28.76,35.62,28.76,35.8z"/>
		<path d="M30.58,35.8c0,0.18-0.14,0.32-0.32,0.32s-0.32-0.14-0.32-0.32s0.14-0.32,0.32-0.32C30.43,35.48,30.58,35.62,30.58,35.8z"
			/>
		<path d="M32.39,35.8c0,0.18-0.14,0.32-0.32,0.32s-0.32-0.14-0.32-0.32s0.14-0.32,0.32-0.32C32.24,35.48,32.39,35.62,32.39,35.8z"
			/>
		<path d="M34.2,35.8c0,0.18-0.14,0.32-0.32,0.32s-0.32-0.14-0.32-0.32s0.14-0.32,0.32-0.32C34.05,35.48,34.2,35.62,34.2,35.8z"/>
		<path d="M36.01,35.8c0,0.18-0.14,0.32-0.32,0.32s-0.32-0.14-0.32-0.32s0.14-0.32,0.32-0.32C35.86,35.48,36.01,35.62,36.01,35.8z"
			/>
		<path d="M37.82,35.8c0,0.18-0.14,0.32-0.32,0.32s-0.32-0.14-0.32-0.32s0.14-0.32,0.32-0.32C37.67,35.48,37.82,35.62,37.82,35.8z"
			/>
		<path d="M39.63,35.8c0,0.18-0.14,0.32-0.32,0.32s-0.32-0.14-0.32-0.32s0.14-0.32,0.32-0.32S39.63,35.62,39.63,35.8z"/>
		<path d="M41.44,35.8c0,0.18-0.14,0.32-0.32,0.32s-0.32-0.14-0.32-0.32s0.14-0.32,0.32-0.32S41.44,35.62,41.44,35.8z"/>
		<path d="M43.25,35.8c0,0.18-0.14,0.32-0.32,0.32s-0.32-0.14-0.32-0.32s0.14-0.32,0.32-0.32S43.25,35.62,43.25,35.8z"/>
		<path d="M45.06,35.8c0,0.18-0.14,0.32-0.32,0.32s-0.32-0.14-0.32-0.32s0.14-0.32,0.32-0.32S45.06,35.62,45.06,35.8z"/>
		<path d="M46.87,35.8c0,0.18-0.14,0.32-0.32,0.32s-0.32-0.14-0.32-0.32s0.14-0.32,0.32-0.32S46.87,35.62,46.87,35.8z"/>
		<path d="M48.68,35.8c0,0.18-0.14,0.32-0.32,0.32s-0.32-0.14-0.32-0.32s0.14-0.32,0.32-0.32S48.68,35.62,48.68,35.8z"/>
		<path d="M50.49,35.8c0,0.18-0.14,0.32-0.32,0.32s-0.32-0.14-0.32-0.32s0.14-0.32,0.32-0.32S50.49,35.62,50.49,35.8z"/>
		<path d="M52.3,35.8c0,0.18-0.14,0.32-0.32,0.32s-0.32-0.14-0.32-0.32s0.14-0.32,0.32-0.32S52.3,35.62,52.3,35.8z"/>
		<path d="M54.12,35.8c0,0.18-0.14,0.32-0.32,0.32s-0.32-0.14-0.32-0.32s0.14-0.32,0.32-0.32C53.97,35.48,54.12,35.62,54.12,35.8z"
			/>
		<path d="M55.93,35.8c0,0.18-0.14,0.32-0.32,0.32s-0.32-0.14-0.32-0.32s0.14-0.32,0.32-0.32C55.78,35.48,55.93,35.62,55.93,35.8z"
			/>
		<path d="M57.74,35.8c0,0.18-0.14,0.32-0.32,0.32s-0.32-0.14-0.32-0.32s0.14-0.32,0.32-0.32C57.59,35.48,57.74,35.62,57.74,35.8z"
			/>
		<path d="M59.55,35.8c0,0.18-0.14,0.32-0.32,0.32s-0.32-0.14-0.32-0.32s0.14-0.32,0.32-0.32C59.4,35.48,59.55,35.62,59.55,35.8z"/>
		<path d="M61.36,35.8c0,0.18-0.14,0.32-0.32,0.32s-0.32-0.14-0.32-0.32s0.14-0.32,0.32-0.32C61.21,35.48,61.36,35.62,61.36,35.8z"
			/>
		<path d="M63.17,35.8c0,0.18-0.14,0.32-0.32,0.32s-0.32-0.14-0.32-0.32s0.14-0.32,0.32-0.32S63.17,35.62,63.17,35.8z"/>
		<path d="M64.98,35.8c0,0.18-0.14,0.32-0.32,0.32s-0.32-0.14-0.32-0.32s0.14-0.32,0.32-0.32S64.98,35.62,64.98,35.8z"/>
		<path d="M66.79,35.8c0,0.18-0.14,0.32-0.32,0.32s-0.32-0.14-0.32-0.32s0.14-0.32,0.32-0.32S66.79,35.62,66.79,35.8z"/>
		<path d="M68.6,35.8c0,0.18-0.14,0.32-0.32,0.32s-0.32-0.14-0.32-0.32s0.14-0.32,0.32-0.32S68.6,35.62,68.6,35.8z"/>
		<path d="M70.41,35.8c0,0.18-0.14,0.32-0.32,0.32s-0.32-0.14-0.32-0.32s0.14-0.32,0.32-0.32S70.41,35.62,70.41,35.8z"/>
	</g>
	<g>
		<path d="M10.43,33.22c0,0.18-0.14,0.32-0.32,0.32c-0.18,0-0.32-0.14-0.32-0.32s0.14-0.32,0.32-0.32
			C10.28,32.9,10.43,33.04,10.43,33.22z"/>
		<path d="M12.24,33.22c0,0.18-0.14,0.32-0.32,0.32c-0.18,0-0.32-0.14-0.32-0.32s0.14-0.32,0.32-0.32S12.24,33.04,12.24,33.22z"/>
		<path d="M14.05,33.22c0,0.18-0.14,0.32-0.32,0.32c-0.18,0-0.32-0.14-0.32-0.32s0.14-0.32,0.32-0.32S14.05,33.04,14.05,33.22z"/>
		<path d="M15.86,33.22c0,0.18-0.14,0.32-0.32,0.32c-0.18,0-0.32-0.14-0.32-0.32s0.14-0.32,0.32-0.32
			C15.72,32.9,15.86,33.04,15.86,33.22z"/>
		<path d="M17.67,33.22c0,0.18-0.14,0.32-0.32,0.32s-0.32-0.14-0.32-0.32s0.14-0.32,0.32-0.32S17.67,33.04,17.67,33.22z"/>
		<path d="M19.48,33.22c0,0.18-0.14,0.32-0.32,0.32s-0.32-0.14-0.32-0.32s0.14-0.32,0.32-0.32S19.48,33.04,19.48,33.22z"/>
		<circle cx="20.97" cy="33.22" r="0.32"/>
		<path d="M23.1,33.22c0,0.18-0.14,0.32-0.32,0.32s-0.32-0.14-0.32-0.32s0.14-0.32,0.32-0.32S23.1,33.04,23.1,33.22z"/>
		<circle cx="24.59" cy="33.22" r="0.32"/>
		<path d="M26.73,33.22c0,0.18-0.14,0.32-0.32,0.32s-0.32-0.14-0.32-0.32s0.14-0.32,0.32-0.32C26.58,32.9,26.73,33.04,26.73,33.22z"
			/>
		<circle cx="28.21" cy="33.22" r="0.32"/>
		<circle cx="30.03" cy="33.22" r="0.32"/>
		<path d="M32.16,33.22c0,0.18-0.14,0.32-0.32,0.32s-0.32-0.14-0.32-0.32s0.14-0.32,0.32-0.32C32.01,32.9,32.16,33.04,32.16,33.22z"
			/>
		<circle cx="33.65" cy="33.22" r="0.32"/>
		<path d="M35.78,33.22c0,0.18-0.14,0.32-0.32,0.32s-0.32-0.14-0.32-0.32s0.14-0.32,0.32-0.32S35.78,33.04,35.78,33.22z"/>
		<circle cx="37.27" cy="33.22" r="0.32"/>
		<path d="M39.4,33.22c0,0.18-0.14,0.32-0.32,0.32s-0.32-0.14-0.32-0.32s0.14-0.32,0.32-0.32S39.4,33.04,39.4,33.22z"/>
		<circle cx="40.89" cy="33.22" r="0.32"/>
		<path d="M43.02,33.22c0,0.18-0.14,0.32-0.32,0.32s-0.32-0.14-0.32-0.32s0.14-0.32,0.32-0.32S43.02,33.04,43.02,33.22z"/>
		<path d="M44.83,33.22c0,0.18-0.14,0.32-0.32,0.32s-0.32-0.14-0.32-0.32s0.14-0.32,0.32-0.32S44.83,33.04,44.83,33.22z"/>
		<path d="M46.64,33.22c0,0.18-0.14,0.32-0.32,0.32S46,33.4,46,33.22s0.14-0.32,0.32-0.32S46.64,33.04,46.64,33.22z"/>
		<path d="M48.46,33.22c0,0.18-0.14,0.32-0.32,0.32s-0.32-0.14-0.32-0.32s0.14-0.32,0.32-0.32C48.31,32.9,48.46,33.04,48.46,33.22z"
			/>
		<path d="M50.27,33.22c0,0.18-0.14,0.32-0.32,0.32s-0.32-0.14-0.32-0.32s0.14-0.32,0.32-0.32C50.12,32.9,50.27,33.04,50.27,33.22z"
			/>
		<path d="M52.08,33.22c0,0.18-0.14,0.32-0.32,0.32s-0.32-0.14-0.32-0.32s0.14-0.32,0.32-0.32C51.93,32.9,52.08,33.04,52.08,33.22z"
			/>
		<circle cx="53.57" cy="33.22" r="0.32"/>
		<circle cx="55.38" cy="33.22" r="0.32"/>
		<path d="M57.51,33.22c0,0.18-0.14,0.32-0.32,0.32s-0.32-0.14-0.32-0.32s0.14-0.32,0.32-0.32S57.51,33.04,57.51,33.22z"/>
		<circle cx="59" cy="33.22" r="0.32"/>
		<path d="M61.13,33.22c0,0.18-0.14,0.32-0.32,0.32s-0.32-0.14-0.32-0.32s0.14-0.32,0.32-0.32S61.13,33.04,61.13,33.22z"/>
		<circle cx="62.62" cy="33.22" r="0.32"/>
		<path d="M64.75,33.22c0,0.18-0.14,0.32-0.32,0.32s-0.32-0.14-0.32-0.32s0.14-0.32,0.32-0.32S64.75,33.04,64.75,33.22z"/>
		<circle cx="66.24" cy="33.22" r="0.32"/>
		<path d="M68.37,33.22c0,0.18-0.14,0.32-0.32,0.32s-0.32-0.14-0.32-0.32s0.14-0.32,0.32-0.32S68.37,33.04,68.37,33.22z"/>
		<circle cx="69.86" cy="33.22" r="0.32"/>
		<circle cx="71.67" cy="33.22" r="0.32"/>
	</g>
	<g>
		<path d="M12.01,30.63c0,0.18-0.14,0.32-0.32,0.32c-0.18,0-0.32-0.14-0.32-0.32s0.14-0.32,0.32-0.32S12.01,30.46,12.01,30.63z"/>
		<path d="M13.82,30.63c0,0.18-0.14,0.32-0.32,0.32c-0.18,0-0.32-0.14-0.32-0.32s0.14-0.32,0.32-0.32
			C13.68,30.31,13.82,30.46,13.82,30.63z"/>
		<path d="M15.63,30.63c0,0.18-0.14,0.32-0.32,0.32c-0.18,0-0.32-0.14-0.32-0.32s0.14-0.32,0.32-0.32S15.63,30.46,15.63,30.63z"/>
		<path d="M17.44,30.63c0,0.18-0.14,0.32-0.32,0.32s-0.32-0.14-0.32-0.32s0.14-0.32,0.32-0.32S17.44,30.46,17.44,30.63z"/>
		<circle cx="18.93" cy="30.63" r="0.32"/>
		<path d="M21.07,30.63c0,0.18-0.14,0.32-0.32,0.32s-0.32-0.14-0.32-0.32s0.14-0.32,0.32-0.32C20.92,30.31,21.07,30.46,21.07,30.63z
			"/>
		<circle cx="22.55" cy="30.63" r="0.32"/>
		<path d="M24.69,30.63c0,0.18-0.14,0.32-0.32,0.32s-0.32-0.14-0.32-0.32s0.14-0.32,0.32-0.32C24.54,30.31,24.69,30.46,24.69,30.63z
			"/>
		<circle cx="26.18" cy="30.63" r="0.32"/>
		<path d="M28.31,30.63c0,0.18-0.14,0.32-0.32,0.32s-0.32-0.14-0.32-0.32s0.14-0.32,0.32-0.32C28.16,30.31,28.31,30.46,28.31,30.63z
			"/>
		<circle cx="29.8" cy="30.63" r="0.32"/>
		<circle cx="31.61" cy="30.63" r="0.32"/>
		<path d="M33.74,30.63c0,0.18-0.14,0.32-0.32,0.32s-0.32-0.14-0.32-0.32s0.14-0.32,0.32-0.32S33.74,30.46,33.74,30.63z"/>
		<circle cx="35.23" cy="30.63" r="0.32"/>
		<path d="M37.36,30.63c0,0.18-0.14,0.32-0.32,0.32s-0.32-0.14-0.32-0.32s0.14-0.32,0.32-0.32S37.36,30.46,37.36,30.63z"/>
		<circle cx="38.85" cy="30.63" r="0.32"/>
		<path d="M40.98,30.63c0,0.18-0.14,0.32-0.32,0.32s-0.32-0.14-0.32-0.32s0.14-0.32,0.32-0.32S40.98,30.46,40.98,30.63z"/>
		<path d="M42.8,30.63c0,0.18-0.14,0.32-0.32,0.32s-0.32-0.14-0.32-0.32s0.14-0.32,0.32-0.32C42.65,30.31,42.8,30.46,42.8,30.63z"/>
		<path d="M44.61,30.63c0,0.18-0.14,0.32-0.32,0.32s-0.32-0.14-0.32-0.32s0.14-0.32,0.32-0.32C44.46,30.31,44.61,30.46,44.61,30.63z
			"/>
		<path d="M46.42,30.63c0,0.18-0.14,0.32-0.32,0.32s-0.32-0.14-0.32-0.32s0.14-0.32,0.32-0.32C46.27,30.31,46.42,30.46,46.42,30.63z
			"/>
		<path d="M48.23,30.63c0,0.18-0.14,0.32-0.32,0.32s-0.32-0.14-0.32-0.32s0.14-0.32,0.32-0.32C48.08,30.31,48.23,30.46,48.23,30.63z
			"/>
		<path d="M50.04,30.63c0,0.18-0.14,0.32-0.32,0.32s-0.32-0.14-0.32-0.32s0.14-0.32,0.32-0.32C49.89,30.31,50.04,30.46,50.04,30.63z
			"/>
		<circle cx="51.53" cy="30.63" r="0.32"/>
		<path d="M53.66,30.63c0,0.18-0.14,0.32-0.32,0.32s-0.32-0.14-0.32-0.32s0.14-0.32,0.32-0.32S53.66,30.46,53.66,30.63z"/>
		<circle cx="55.15" cy="30.63" r="0.32"/>
		<path d="M57.28,30.63c0,0.18-0.14,0.32-0.32,0.32s-0.32-0.14-0.32-0.32s0.14-0.32,0.32-0.32S57.28,30.46,57.28,30.63z"/>
		<circle cx="58.77" cy="30.63" r="0.32"/>
		<circle cx="60.58" cy="30.63" r="0.32"/>
		<path d="M62.71,30.63c0,0.18-0.14,0.32-0.32,0.32s-0.32-0.14-0.32-0.32s0.14-0.32,0.32-0.32S62.71,30.46,62.71,30.63z"/>
		<circle cx="64.2" cy="30.63" r="0.32"/>
		<path d="M66.34,30.63c0,0.18-0.14,0.32-0.32,0.32s-0.32-0.14-0.32-0.32s0.14-0.32,0.32-0.32C66.19,30.31,66.34,30.46,66.34,30.63z
			"/>
		<circle cx="67.82" cy="30.63" r="0.32"/>
		<path d="M69.96,30.63c0,0.18-0.14,0.32-0.32,0.32s-0.32-0.14-0.32-0.32s0.14-0.32,0.32-0.32C69.81,30.31,69.96,30.46,69.96,30.63z
			"/>
		<circle cx="71.45" cy="30.63" r="0.32"/>
		<path d="M73.58,30.63c0,0.18-0.14,0.32-0.32,0.32s-0.32-0.14-0.32-0.32s0.14-0.32,0.32-0.32C73.43,30.31,73.58,30.46,73.58,30.63z
			"/>
	</g>
	<g>
		<path d="M13.59,28.05c0,0.18-0.14,0.32-0.32,0.32c-0.18,0-0.32-0.14-0.32-0.32s0.14-0.32,0.32-0.32S13.59,27.87,13.59,28.05z"/>
		<path d="M15.41,28.05c0,0.18-0.14,0.32-0.32,0.32c-0.18,0-0.32-0.14-0.32-0.32s0.14-0.32,0.32-0.32
			C15.26,27.73,15.41,27.87,15.41,28.05z"/>
		<path d="M17.22,28.05c0,0.18-0.14,0.32-0.32,0.32s-0.32-0.14-0.32-0.32s0.14-0.32,0.32-0.32C17.07,27.73,17.22,27.87,17.22,28.05z
			"/>
		<circle cx="18.7" cy="28.05" r="0.32"/>
		<path d="M20.84,28.05c0,0.18-0.14,0.32-0.32,0.32s-0.32-0.14-0.32-0.32s0.14-0.32,0.32-0.32C20.69,27.73,20.84,27.87,20.84,28.05z
			"/>
		<circle cx="22.33" cy="28.05" r="0.32"/>
		<circle cx="24.14" cy="28.05" r="0.32"/>
		<path d="M26.27,28.05c0,0.18-0.14,0.32-0.32,0.32s-0.32-0.14-0.32-0.32s0.14-0.32,0.32-0.32S26.27,27.87,26.27,28.05z"/>
		<circle cx="27.76" cy="28.05" r="0.32"/>
		<path d="M29.89,28.05c0,0.18-0.14,0.32-0.32,0.32s-0.32-0.14-0.32-0.32s0.14-0.32,0.32-0.32S29.89,27.87,29.89,28.05z"/>
		<circle cx="31.38" cy="28.05" r="0.32"/>
		<path d="M33.51,28.05c0,0.18-0.14,0.32-0.32,0.32s-0.32-0.14-0.32-0.32s0.14-0.32,0.32-0.32S33.51,27.87,33.51,28.05z"/>
		<circle cx="35" cy="28.05" r="0.32"/>
		<circle cx="36.81" cy="28.05" r="0.32"/>
		<path d="M38.95,28.05c0,0.18-0.14,0.32-0.32,0.32s-0.32-0.14-0.32-0.32s0.14-0.32,0.32-0.32C38.8,27.73,38.95,27.87,38.95,28.05z"
			/>
		<path d="M40.76,28.05c0,0.18-0.14,0.32-0.32,0.32s-0.32-0.14-0.32-0.32s0.14-0.32,0.32-0.32C40.61,27.73,40.76,27.87,40.76,28.05z
			"/>
		<path d="M42.57,28.05c0,0.18-0.14,0.32-0.32,0.32s-0.32-0.14-0.32-0.32s0.14-0.32,0.32-0.32C42.42,27.73,42.57,27.87,42.57,28.05z
			"/>
		<path d="M44.38,28.05c0,0.18-0.14,0.32-0.32,0.32s-0.32-0.14-0.32-0.32s0.14-0.32,0.32-0.32C44.23,27.73,44.38,27.87,44.38,28.05z
			"/>
		<path d="M46.19,28.05c0,0.18-0.14,0.32-0.32,0.32s-0.32-0.14-0.32-0.32s0.14-0.32,0.32-0.32C46.04,27.73,46.19,27.87,46.19,28.05z
			"/>
		<path d="M48,28.05c0,0.18-0.14,0.32-0.32,0.32s-0.32-0.14-0.32-0.32s0.14-0.32,0.32-0.32S48,27.87,48,28.05z"/>
		<circle cx="49.49" cy="28.05" r="0.32"/>
		<path d="M51.62,28.05c0,0.18-0.14,0.32-0.32,0.32s-0.32-0.14-0.32-0.32s0.14-0.32,0.32-0.32S51.62,27.87,51.62,28.05z"/>
		<circle cx="53.11" cy="28.05" r="0.32"/>
		<path d="M55.24,28.05c0,0.18-0.14,0.32-0.32,0.32s-0.32-0.14-0.32-0.32s0.14-0.32,0.32-0.32S55.24,27.87,55.24,28.05z"/>
		<circle cx="56.73" cy="28.05" r="0.32"/>
		<path d="M58.86,28.05c0,0.18-0.14,0.32-0.32,0.32s-0.32-0.14-0.32-0.32s0.14-0.32,0.32-0.32S58.86,27.87,58.86,28.05z"/>
		<circle cx="60.35" cy="28.05" r="0.32"/>
		<path d="M62.49,28.05c0,0.18-0.14,0.32-0.32,0.32s-0.32-0.14-0.32-0.32s0.14-0.32,0.32-0.32C62.34,27.73,62.49,27.87,62.49,28.05z
			"/>
		<circle cx="63.97" cy="28.05" r="0.32"/>
		<circle cx="65.79" cy="28.05" r="0.32"/>
		<path d="M67.92,28.05c0,0.18-0.14,0.32-0.32,0.32s-0.32-0.14-0.32-0.32s0.14-0.32,0.32-0.32C67.77,27.73,67.92,27.87,67.92,28.05z
			"/>
		<circle cx="69.41" cy="28.05" r="0.32"/>
		<path d="M71.54,28.05c0,0.18-0.14,0.32-0.32,0.32s-0.32-0.14-0.32-0.32s0.14-0.32,0.32-0.32S71.54,27.87,71.54,28.05z"/>
		<path d="M73.35,28.05c0,0.18-0.14,0.32-0.32,0.32s-0.32-0.14-0.32-0.32s0.14-0.32,0.32-0.32S73.35,27.87,73.35,28.05z"/>
		<path d="M75.16,28.05c0,0.18-0.14,0.32-0.32,0.32s-0.32-0.14-0.32-0.32s0.14-0.32,0.32-0.32S75.16,27.87,75.16,28.05z"/>
	</g>
	<g>
		<path d="M15.18,25.47c0,0.18-0.14,0.32-0.32,0.32c-0.18,0-0.32-0.14-0.32-0.32s0.14-0.32,0.32-0.32
			C15.03,25.15,15.18,25.29,15.18,25.47z"/>
		<circle cx="16.67" cy="25.47" r="0.32"/>
		<path d="M18.8,25.47c0,0.18-0.14,0.32-0.32,0.32s-0.32-0.14-0.32-0.32s0.14-0.32,0.32-0.32S18.8,25.29,18.8,25.47z"/>
		<circle cx="20.29" cy="25.47" r="0.32"/>
		<path d="M22.42,25.47c0,0.18-0.14,0.32-0.32,0.32s-0.32-0.14-0.32-0.32s0.14-0.32,0.32-0.32S22.42,25.29,22.42,25.47z"/>
		<circle cx="23.91" cy="25.47" r="0.32"/>
		<circle cx="25.72" cy="25.47" r="0.32"/>
		<path d="M27.85,25.47c0,0.18-0.14,0.32-0.32,0.32s-0.32-0.14-0.32-0.32s0.14-0.32,0.32-0.32S27.85,25.29,27.85,25.47z"/>
		<circle cx="29.34" cy="25.47" r="0.32"/>
		<path d="M31.47,25.47c0,0.18-0.14,0.32-0.32,0.32s-0.32-0.14-0.32-0.32s0.14-0.32,0.32-0.32S31.47,25.29,31.47,25.47z"/>
		<circle cx="32.96" cy="25.47" r="0.32"/>
		<path d="M35.1,25.47c0,0.18-0.14,0.32-0.32,0.32s-0.32-0.14-0.32-0.32s0.14-0.32,0.32-0.32C34.95,25.15,35.1,25.29,35.1,25.47z"/>
		<circle cx="36.58" cy="25.47" r="0.32"/>
		<path d="M38.72,25.47c0,0.18-0.14,0.32-0.32,0.32s-0.32-0.14-0.32-0.32s0.14-0.32,0.32-0.32C38.57,25.15,38.72,25.29,38.72,25.47z
			"/>
		<path d="M40.53,25.47c0,0.18-0.14,0.32-0.32,0.32s-0.32-0.14-0.32-0.32s0.14-0.32,0.32-0.32C40.38,25.15,40.53,25.29,40.53,25.47z
			"/>
		<path d="M42.34,25.47c0,0.18-0.14,0.32-0.32,0.32s-0.32-0.14-0.32-0.32s0.14-0.32,0.32-0.32S42.34,25.29,42.34,25.47z"/>
		<path d="M44.15,25.47c0,0.18-0.14,0.32-0.32,0.32s-0.32-0.14-0.32-0.32s0.14-0.32,0.32-0.32S44.15,25.29,44.15,25.47z"/>
		<path d="M45.96,25.47c0,0.18-0.14,0.32-0.32,0.32s-0.32-0.14-0.32-0.32s0.14-0.32,0.32-0.32S45.96,25.29,45.96,25.47z"/>
		<path d="M47.77,25.47c0,0.18-0.14,0.32-0.32,0.32s-0.32-0.14-0.32-0.32s0.14-0.32,0.32-0.32S47.77,25.29,47.77,25.47z"/>
		<circle cx="49.26" cy="25.47" r="0.32"/>
		<path d="M51.39,25.47c0,0.18-0.14,0.32-0.32,0.32s-0.32-0.14-0.32-0.32s0.14-0.32,0.32-0.32S51.39,25.29,51.39,25.47z"/>
		<circle cx="52.88" cy="25.47" r="0.32"/>
		<circle cx="54.69" cy="25.47" r="0.32"/>
		<path d="M56.83,25.47c0,0.18-0.14,0.32-0.32,0.32s-0.32-0.14-0.32-0.32s0.14-0.32,0.32-0.32C56.68,25.15,56.83,25.29,56.83,25.47z
			"/>
		<circle cx="58.31" cy="25.47" r="0.32"/>
		<path d="M60.45,25.47c0,0.18-0.14,0.32-0.32,0.32s-0.32-0.14-0.32-0.32s0.14-0.32,0.32-0.32C60.3,25.15,60.45,25.29,60.45,25.47z"
			/>
		<circle cx="61.94" cy="25.47" r="0.32"/>
		<path d="M64.07,25.47c0,0.18-0.14,0.32-0.32,0.32s-0.32-0.14-0.32-0.32s0.14-0.32,0.32-0.32C63.92,25.15,64.07,25.29,64.07,25.47z
			"/>
		<circle cx="65.56" cy="25.47" r="0.32"/>
		<circle cx="67.37" cy="25.47" r="0.32"/>
		<path d="M69.5,25.47c0,0.18-0.14,0.32-0.32,0.32s-0.32-0.14-0.32-0.32s0.14-0.32,0.32-0.32S69.5,25.29,69.5,25.47z"/>
		<path d="M71.31,25.47c0,0.18-0.14,0.32-0.32,0.32s-0.32-0.14-0.32-0.32s0.14-0.32,0.32-0.32S71.31,25.29,71.31,25.47z"/>
		<path d="M73.12,25.47c0,0.18-0.14,0.32-0.32,0.32s-0.32-0.14-0.32-0.32s0.14-0.32,0.32-0.32S73.12,25.29,73.12,25.47z"/>
		<path d="M74.93,25.47c0,0.18-0.14,0.32-0.32,0.32s-0.32-0.14-0.32-0.32s0.14-0.32,0.32-0.32S74.93,25.29,74.93,25.47z"/>
		<path d="M76.74,25.47c0,0.18-0.14,0.32-0.32,0.32s-0.32-0.14-0.32-0.32s0.14-0.32,0.32-0.32S76.74,25.29,76.74,25.47z"/>
	</g>
	<g>
		<circle cx="16.44" cy="22.89" r="0.32"/>
		<circle cx="18.25" cy="22.89" r="0.32"/>
		<path d="M20.38,22.89c0,0.18-0.14,0.32-0.32,0.32s-0.32-0.14-0.32-0.32s0.14-0.32,0.32-0.32C20.24,22.56,20.38,22.71,20.38,22.89z
			"/>
		<circle cx="21.87" cy="22.89" r="0.32"/>
		<path d="M24,22.89c0,0.18-0.14,0.32-0.32,0.32s-0.32-0.14-0.32-0.32s0.14-0.32,0.32-0.32C23.86,22.56,24,22.71,24,22.89z"/>
		<circle cx="25.49" cy="22.89" r="0.32"/>
		<path d="M27.63,22.89c0,0.18-0.14,0.32-0.32,0.32s-0.32-0.14-0.32-0.32s0.14-0.32,0.32-0.32C27.48,22.56,27.63,22.71,27.63,22.89z
			"/>
		<circle cx="29.11" cy="22.89" r="0.32"/>
		<circle cx="30.92" cy="22.89" r="0.32"/>
		<path d="M33.06,22.89c0,0.18-0.14,0.32-0.32,0.32s-0.32-0.14-0.32-0.32s0.14-0.32,0.32-0.32C32.91,22.56,33.06,22.71,33.06,22.89z
			"/>
		<circle cx="34.55" cy="22.89" r="0.32"/>
		<path d="M36.68,22.89c0,0.18-0.14,0.32-0.32,0.32s-0.32-0.14-0.32-0.32s0.14-0.32,0.32-0.32C36.54,22.56,36.68,22.71,36.68,22.89z
			"/>
		<path d="M38.49,22.89c0,0.18-0.14,0.32-0.32,0.32s-0.32-0.14-0.32-0.32s0.14-0.32,0.32-0.32C38.35,22.56,38.49,22.71,38.49,22.89z
			"/>
		<path d="M40.3,22.89c0,0.18-0.14,0.32-0.32,0.32s-0.32-0.14-0.32-0.32s0.14-0.32,0.32-0.32C40.16,22.56,40.3,22.71,40.3,22.89z"/>
		<path d="M42.11,22.89c0,0.18-0.14,0.32-0.32,0.32s-0.32-0.14-0.32-0.32s0.14-0.32,0.32-0.32C41.97,22.56,42.11,22.71,42.11,22.89z
			"/>
		<path d="M43.92,22.89c0,0.18-0.14,0.32-0.32,0.32s-0.32-0.14-0.32-0.32s0.14-0.32,0.32-0.32C43.78,22.56,43.92,22.71,43.92,22.89z
			"/>
		<path d="M45.73,22.89c0,0.18-0.14,0.32-0.32,0.32s-0.32-0.14-0.32-0.32s0.14-0.32,0.32-0.32C45.59,22.56,45.73,22.71,45.73,22.89z
			"/>
		<circle cx="47.22" cy="22.89" r="0.32"/>
		<path d="M49.35,22.89c0,0.18-0.14,0.32-0.32,0.32s-0.32-0.14-0.32-0.32s0.14-0.32,0.32-0.32C49.21,22.56,49.35,22.71,49.35,22.89z
			"/>
		<circle cx="50.84" cy="22.89" r="0.32"/>
		<path d="M52.98,22.89c0,0.18-0.14,0.32-0.32,0.32s-0.32-0.14-0.32-0.32s0.14-0.32,0.32-0.32C52.83,22.56,52.98,22.71,52.98,22.89z
			"/>
		<circle cx="54.46" cy="22.89" r="0.32"/>
		<path d="M56.6,22.89c0,0.18-0.14,0.32-0.32,0.32s-0.32-0.14-0.32-0.32s0.14-0.32,0.32-0.32C56.45,22.56,56.6,22.71,56.6,22.89z"/>
		<path d="M58.41,22.89c0,0.18-0.14,0.32-0.32,0.32s-0.32-0.14-0.32-0.32s0.14-0.32,0.32-0.32C58.26,22.56,58.41,22.71,58.41,22.89z
			"/>
		<circle cx="59.9" cy="22.89" r="0.32"/>
		<path d="M62.03,22.89c0,0.18-0.14,0.32-0.32,0.32s-0.32-0.14-0.32-0.32s0.14-0.32,0.32-0.32C61.89,22.56,62.03,22.71,62.03,22.89z
			"/>
		<circle cx="63.52" cy="22.89" r="0.32"/>
		<path d="M65.65,22.89c0,0.18-0.14,0.32-0.32,0.32s-0.32-0.14-0.32-0.32s0.14-0.32,0.32-0.32C65.51,22.56,65.65,22.71,65.65,22.89z
			"/>
		<circle cx="67.14" cy="22.89" r="0.32"/>
		<path d="M69.27,22.89c0,0.18-0.14,0.32-0.32,0.32s-0.32-0.14-0.32-0.32s0.14-0.32,0.32-0.32C69.13,22.56,69.27,22.71,69.27,22.89z
			"/>
		<path d="M71.08,22.89c0,0.18-0.14,0.32-0.32,0.32s-0.32-0.14-0.32-0.32s0.14-0.32,0.32-0.32C70.94,22.56,71.08,22.71,71.08,22.89z
			"/>
		<path d="M72.89,22.89c0,0.18-0.14,0.32-0.32,0.32s-0.32-0.14-0.32-0.32s0.14-0.32,0.32-0.32C72.75,22.56,72.89,22.71,72.89,22.89z
			"/>
		<path d="M74.71,22.89c0,0.18-0.14,0.32-0.32,0.32s-0.32-0.14-0.32-0.32s0.14-0.32,0.32-0.32C74.56,22.56,74.71,22.71,74.71,22.89z
			"/>
		<path d="M76.52,22.89c0,0.18-0.14,0.32-0.32,0.32s-0.32-0.14-0.32-0.32s0.14-0.32,0.32-0.32S76.52,22.71,76.52,22.89z"/>
		<path d="M78.33,22.89c0,0.18-0.14,0.32-0.32,0.32s-0.32-0.14-0.32-0.32s0.14-0.32,0.32-0.32C78.18,22.56,78.33,22.71,78.33,22.89z
			"/>
	</g>
	<g>
		<circle cx="18.02" cy="20.3" r="0.32"/>
		<circle cx="19.83" cy="20.3" r="0.32"/>
		<path d="M21.97,20.3c0,0.18-0.14,0.32-0.32,0.32s-0.32-0.14-0.32-0.32s0.14-0.32,0.32-0.32C21.82,19.98,21.97,20.12,21.97,20.3z"
			/>
		<circle cx="23.45" cy="20.3" r="0.32"/>
		<path d="M25.59,20.3c0,0.18-0.14,0.32-0.32,0.32s-0.32-0.14-0.32-0.32s0.14-0.32,0.32-0.32C25.44,19.98,25.59,20.12,25.59,20.3z"
			/>
		<circle cx="27.08" cy="20.3" r="0.32"/>
		<path d="M29.21,20.3c0,0.18-0.14,0.32-0.32,0.32s-0.32-0.14-0.32-0.32s0.14-0.32,0.32-0.32C29.06,19.98,29.21,20.12,29.21,20.3z"
			/>
		<circle cx="30.7" cy="20.3" r="0.32"/>
		<path d="M32.83,20.3c0,0.18-0.14,0.32-0.32,0.32s-0.32-0.14-0.32-0.32s0.14-0.32,0.32-0.32S32.83,20.12,32.83,20.3z"/>
		<path d="M34.64,20.3c0,0.18-0.14,0.32-0.32,0.32S34,20.48,34,20.3s0.14-0.32,0.32-0.32S34.64,20.12,34.64,20.3z"/>
		<path d="M36.45,20.3c0,0.18-0.14,0.32-0.32,0.32s-0.32-0.14-0.32-0.32s0.14-0.32,0.32-0.32S36.45,20.12,36.45,20.3z"/>
		<path d="M38.26,20.3c0,0.18-0.14,0.32-0.32,0.32s-0.32-0.14-0.32-0.32s0.14-0.32,0.32-0.32S38.26,20.12,38.26,20.3z"/>
		<path d="M40.07,20.3c0,0.18-0.14,0.32-0.32,0.32s-0.32-0.14-0.32-0.32s0.14-0.32,0.32-0.32S40.07,20.12,40.07,20.3z"/>
		<path d="M41.88,20.3c0,0.18-0.14,0.32-0.32,0.32s-0.32-0.14-0.32-0.32s0.14-0.32,0.32-0.32S41.88,20.12,41.88,20.3z"/>
		<path d="M43.69,20.3c0,0.18-0.14,0.32-0.32,0.32s-0.32-0.14-0.32-0.32s0.14-0.32,0.32-0.32S43.69,20.12,43.69,20.3z"/>
		<path d="M45.51,20.3c0,0.18-0.14,0.32-0.32,0.32s-0.32-0.14-0.32-0.32s0.14-0.32,0.32-0.32C45.36,19.98,45.51,20.12,45.51,20.3z"
			/>
		<circle cx="46.99" cy="20.3" r="0.32"/>
		<circle cx="48.8" cy="20.3" r="0.32"/>
		<path d="M50.94,20.3c0,0.18-0.14,0.32-0.32,0.32s-0.32-0.14-0.32-0.32s0.14-0.32,0.32-0.32C50.79,19.98,50.94,20.12,50.94,20.3z"
			/>
		<circle cx="52.43" cy="20.3" r="0.32"/>
		<path d="M54.56,20.3c0,0.18-0.14,0.32-0.32,0.32s-0.32-0.14-0.32-0.32s0.14-0.32,0.32-0.32C54.41,19.98,54.56,20.12,54.56,20.3z"
			/>
		<circle cx="56.05" cy="20.3" r="0.32"/>
		<path d="M58.18,20.3c0,0.18-0.14,0.32-0.32,0.32s-0.32-0.14-0.32-0.32s0.14-0.32,0.32-0.32S58.18,20.12,58.18,20.3z"/>
		<circle cx="59.67" cy="20.3" r="0.32"/>
		<circle cx="61.48" cy="20.3" r="0.32"/>
		<path d="M63.61,20.3c0,0.18-0.14,0.32-0.32,0.32s-0.32-0.14-0.32-0.32s0.14-0.32,0.32-0.32S63.61,20.12,63.61,20.3z"/>
		<circle cx="65.1" cy="20.3" r="0.32"/>
		<path d="M67.23,20.3c0,0.18-0.14,0.32-0.32,0.32s-0.32-0.14-0.32-0.32s0.14-0.32,0.32-0.32S67.23,20.12,67.23,20.3z"/>
		<path d="M69.05,20.3c0,0.18-0.14,0.32-0.32,0.32s-0.32-0.14-0.32-0.32s0.14-0.32,0.32-0.32C68.9,19.98,69.05,20.12,69.05,20.3z"/>
		<path d="M70.86,20.3c0,0.18-0.14,0.32-0.32,0.32s-0.32-0.14-0.32-0.32s0.14-0.32,0.32-0.32C70.71,19.98,70.86,20.12,70.86,20.3z"
			/>
		<path d="M72.67,20.3c0,0.18-0.14,0.32-0.32,0.32s-0.32-0.14-0.32-0.32s0.14-0.32,0.32-0.32C72.52,19.98,72.67,20.12,72.67,20.3z"
			/>
		<path d="M74.48,20.3c0,0.18-0.14,0.32-0.32,0.32s-0.32-0.14-0.32-0.32s0.14-0.32,0.32-0.32C74.33,19.98,74.48,20.12,74.48,20.3z"
			/>
		<path d="M76.29,20.3c0,0.18-0.14,0.32-0.32,0.32s-0.32-0.14-0.32-0.32s0.14-0.32,0.32-0.32C76.14,19.98,76.29,20.12,76.29,20.3z"
			/>
		<circle cx="77.78" cy="20.3" r="0.32"/>
		<path d="M79.91,20.3c0,0.18-0.14,0.32-0.32,0.32s-0.32-0.14-0.32-0.32s0.14-0.32,0.32-0.32S79.91,20.12,79.91,20.3z"/>
	</g>
	<g>
		<circle cx="19.6" cy="17.72" r="0.32"/>
		<path d="M21.74,17.72c0,0.18-0.14,0.32-0.32,0.32s-0.32-0.14-0.32-0.32s0.14-0.32,0.32-0.32C21.59,17.4,21.74,17.54,21.74,17.72z"
			/>
		<circle cx="23.23" cy="17.72" r="0.32"/>
		<circle cx="25.04" cy="17.72" r="0.32"/>
		<path d="M27.17,17.72c0,0.18-0.14,0.32-0.32,0.32s-0.32-0.14-0.32-0.32s0.14-0.32,0.32-0.32S27.17,17.54,27.17,17.72z"/>
		<circle cx="28.66" cy="17.72" r="0.32"/>
		<path d="M30.79,17.72c0,0.18-0.14,0.32-0.32,0.32s-0.32-0.14-0.32-0.32s0.14-0.32,0.32-0.32S30.79,17.54,30.79,17.72z"/>
		<circle cx="32.28" cy="17.72" r="0.32"/>
		<path d="M34.41,17.72c0,0.18-0.14,0.32-0.32,0.32s-0.32-0.14-0.32-0.32s0.14-0.32,0.32-0.32S34.41,17.54,34.41,17.72z"/>
		<path d="M36.22,17.72c0,0.18-0.14,0.32-0.32,0.32s-0.32-0.14-0.32-0.32s0.14-0.32,0.32-0.32S36.22,17.54,36.22,17.72z"/>
		<path d="M38.03,17.72c0,0.18-0.14,0.32-0.32,0.32s-0.32-0.14-0.32-0.32s0.14-0.32,0.32-0.32S38.03,17.54,38.03,17.72z"/>
		<path d="M39.85,17.72c0,0.18-0.14,0.32-0.32,0.32s-0.32-0.14-0.32-0.32s0.14-0.32,0.32-0.32C39.7,17.4,39.85,17.54,39.85,17.72z"
			/>
		<path d="M41.66,17.72c0,0.18-0.14,0.32-0.32,0.32s-0.32-0.14-0.32-0.32s0.14-0.32,0.32-0.32C41.51,17.4,41.66,17.54,41.66,17.72z"
			/>
		<path d="M43.47,17.72c0,0.18-0.14,0.32-0.32,0.32s-0.32-0.14-0.32-0.32s0.14-0.32,0.32-0.32C43.32,17.4,43.47,17.54,43.47,17.72z"
			/>
		<circle cx="44.96" cy="17.72" r="0.32"/>
		<path d="M47.09,17.72c0,0.18-0.14,0.32-0.32,0.32s-0.32-0.14-0.32-0.32s0.14-0.32,0.32-0.32C46.94,17.4,47.09,17.54,47.09,17.72z"
			/>
		<circle cx="48.58" cy="17.72" r="0.32"/>
		<circle cx="50.39" cy="17.72" r="0.32"/>
		<path d="M52.52,17.72c0,0.18-0.14,0.32-0.32,0.32s-0.32-0.14-0.32-0.32s0.14-0.32,0.32-0.32S52.52,17.54,52.52,17.72z"/>
		<circle cx="54.01" cy="17.72" r="0.32"/>
		<path d="M56.14,17.72c0,0.18-0.14,0.32-0.32,0.32s-0.32-0.14-0.32-0.32s0.14-0.32,0.32-0.32S56.14,17.54,56.14,17.72z"/>
		<circle cx="57.63" cy="17.72" r="0.32"/>
		<path d="M59.76,17.72c0,0.18-0.14,0.32-0.32,0.32s-0.32-0.14-0.32-0.32s0.14-0.32,0.32-0.32S59.76,17.54,59.76,17.72z"/>
		<circle cx="61.25" cy="17.72" r="0.32"/>
		<path d="M63.39,17.72c0,0.18-0.14,0.32-0.32,0.32s-0.32-0.14-0.32-0.32s0.14-0.32,0.32-0.32C63.24,17.4,63.39,17.54,63.39,17.72z"
			/>
		<circle cx="64.87" cy="17.72" r="0.32"/>
		<path d="M67.01,17.72c0,0.18-0.14,0.32-0.32,0.32s-0.32-0.14-0.32-0.32s0.14-0.32,0.32-0.32C66.86,17.4,67.01,17.54,67.01,17.72z"
			/>
		<path d="M68.82,17.72c0,0.18-0.14,0.32-0.32,0.32s-0.32-0.14-0.32-0.32s0.14-0.32,0.32-0.32C68.67,17.4,68.82,17.54,68.82,17.72z"
			/>
		<path d="M70.63,17.72c0,0.18-0.14,0.32-0.32,0.32s-0.32-0.14-0.32-0.32s0.14-0.32,0.32-0.32C70.48,17.4,70.63,17.54,70.63,17.72z"
			/>
		<path d="M72.44,17.72c0,0.18-0.14,0.32-0.32,0.32s-0.32-0.14-0.32-0.32s0.14-0.32,0.32-0.32C72.29,17.4,72.44,17.54,72.44,17.72z"
			/>
		<path d="M74.25,17.72c0,0.18-0.14,0.32-0.32,0.32s-0.32-0.14-0.32-0.32s0.14-0.32,0.32-0.32S74.25,17.54,74.25,17.72z"/>
		<path d="M76.06,17.72c0,0.18-0.14,0.32-0.32,0.32s-0.32-0.14-0.32-0.32s0.14-0.32,0.32-0.32S76.06,17.54,76.06,17.72z"/>
		<circle cx="77.55" cy="17.72" r="0.32"/>
		<circle cx="79.36" cy="17.72" r="0.32"/>
		<path d="M81.49,17.72c0,0.18-0.14,0.32-0.32,0.32s-0.32-0.14-0.32-0.32s0.14-0.32,0.32-0.32S81.49,17.54,81.49,17.72z"/>
	</g>
	<g>
		<path d="M21.51,15.14c0,0.18-0.14,0.32-0.32,0.32s-0.32-0.14-0.32-0.32c0-0.18,0.14-0.32,0.32-0.32S21.51,14.96,21.51,15.14z"/>
		<path d="M23.32,15.14c0,0.18-0.14,0.32-0.32,0.32s-0.32-0.14-0.32-0.32c0-0.18,0.14-0.32,0.32-0.32
			C23.18,14.81,23.32,14.96,23.32,15.14z"/>
		<path d="M25.13,15.14c0,0.18-0.14,0.32-0.32,0.32s-0.32-0.14-0.32-0.32c0-0.18,0.14-0.32,0.32-0.32
			C24.99,14.81,25.13,14.96,25.13,15.14z"/>
		<path d="M26.94,15.14c0,0.18-0.14,0.32-0.32,0.32s-0.32-0.14-0.32-0.32c0-0.18,0.14-0.32,0.32-0.32
			C26.8,14.81,26.94,14.96,26.94,15.14z"/>
		<path d="M28.75,15.14c0,0.18-0.14,0.32-0.32,0.32s-0.32-0.14-0.32-0.32c0-0.18,0.14-0.32,0.32-0.32
			C28.61,14.81,28.75,14.96,28.75,15.14z"/>
		<path d="M30.56,15.14c0,0.18-0.14,0.32-0.32,0.32s-0.32-0.14-0.32-0.32c0-0.18,0.14-0.32,0.32-0.32
			C30.42,14.81,30.56,14.96,30.56,15.14z"/>
		<path d="M32.37,15.14c0,0.18-0.14,0.32-0.32,0.32s-0.32-0.14-0.32-0.32c0-0.18,0.14-0.32,0.32-0.32
			C32.23,14.81,32.37,14.96,32.37,15.14z"/>
		<path d="M34.18,15.14c0,0.18-0.14,0.32-0.32,0.32s-0.32-0.14-0.32-0.32c0-0.18,0.14-0.32,0.32-0.32
			C34.04,14.81,34.18,14.96,34.18,15.14z"/>
		<path d="M36,15.14c0,0.18-0.14,0.32-0.32,0.32s-0.32-0.14-0.32-0.32c0-0.18,0.14-0.32,0.32-0.32C35.85,14.81,36,14.96,36,15.14z"
			/>
		<path d="M37.81,15.14c0,0.18-0.14,0.32-0.32,0.32s-0.32-0.14-0.32-0.32c0-0.18,0.14-0.32,0.32-0.32
			C37.66,14.81,37.81,14.96,37.81,15.14z"/>
		<path d="M39.62,15.14c0,0.18-0.14,0.32-0.32,0.32s-0.32-0.14-0.32-0.32c0-0.18,0.14-0.32,0.32-0.32
			C39.47,14.81,39.62,14.96,39.62,15.14z"/>
		<path d="M41.43,15.14c0,0.18-0.14,0.32-0.32,0.32s-0.32-0.14-0.32-0.32c0-0.18,0.14-0.32,0.32-0.32
			C41.28,14.81,41.43,14.96,41.43,15.14z"/>
		<path d="M43.24,15.14c0,0.18-0.14,0.32-0.32,0.32s-0.32-0.14-0.32-0.32c0-0.18,0.14-0.32,0.32-0.32
			C43.09,14.81,43.24,14.96,43.24,15.14z"/>
		<path d="M45.05,15.14c0,0.18-0.14,0.32-0.32,0.32s-0.32-0.14-0.32-0.32c0-0.18,0.14-0.32,0.32-0.32
			C44.91,14.81,45.05,14.96,45.05,15.14z"/>
		<path d="M46.86,15.14c0,0.18-0.14,0.32-0.32,0.32s-0.32-0.14-0.32-0.32c0-0.18,0.14-0.32,0.32-0.32
			C46.72,14.81,46.86,14.96,46.86,15.14z"/>
		<path d="M48.67,15.14c0,0.18-0.14,0.32-0.32,0.32s-0.32-0.14-0.32-0.32c0-0.18,0.14-0.32,0.32-0.32
			C48.53,14.81,48.67,14.96,48.67,15.14z"/>
		<path d="M50.48,15.14c0,0.18-0.14,0.32-0.32,0.32s-0.32-0.14-0.32-0.32c0-0.18,0.14-0.32,0.32-0.32
			C50.34,14.81,50.48,14.96,50.48,15.14z"/>
		<path d="M52.29,15.14c0,0.18-0.14,0.32-0.32,0.32s-0.32-0.14-0.32-0.32c0-0.18,0.14-0.32,0.32-0.32
			C52.15,14.81,52.29,14.96,52.29,15.14z"/>
		<path d="M54.1,15.14c0,0.18-0.14,0.32-0.32,0.32s-0.32-0.14-0.32-0.32c0-0.18,0.14-0.32,0.32-0.32
			C53.96,14.81,54.1,14.96,54.1,15.14z"/>
		<path d="M55.91,15.14c0,0.18-0.14,0.32-0.32,0.32s-0.32-0.14-0.32-0.32c0-0.18,0.14-0.32,0.32-0.32
			C55.77,14.81,55.91,14.96,55.91,15.14z"/>
		<path d="M57.73,15.14c0,0.18-0.14,0.32-0.32,0.32s-0.32-0.14-0.32-0.32c0-0.18,0.14-0.32,0.32-0.32
			C57.58,14.81,57.73,14.96,57.73,15.14z"/>
		<path d="M59.54,15.14c0,0.18-0.14,0.32-0.32,0.32s-0.32-0.14-0.32-0.32c0-0.18,0.14-0.32,0.32-0.32
			C59.39,14.81,59.54,14.96,59.54,15.14z"/>
		<path d="M61.35,15.14c0,0.18-0.14,0.32-0.32,0.32s-0.32-0.14-0.32-0.32c0-0.18,0.14-0.32,0.32-0.32
			C61.2,14.81,61.35,14.96,61.35,15.14z"/>
		<path d="M63.16,15.14c0,0.18-0.14,0.32-0.32,0.32s-0.32-0.14-0.32-0.32c0-0.18,0.14-0.32,0.32-0.32
			C63.01,14.81,63.16,14.96,63.16,15.14z"/>
		<path d="M64.97,15.14c0,0.18-0.14,0.32-0.32,0.32s-0.32-0.14-0.32-0.32c0-0.18,0.14-0.32,0.32-0.32
			C64.82,14.81,64.97,14.96,64.97,15.14z"/>
		<path d="M66.78,15.14c0,0.18-0.14,0.32-0.32,0.32s-0.32-0.14-0.32-0.32c0-0.18,0.14-0.32,0.32-0.32
			C66.63,14.81,66.78,14.96,66.78,15.14z"/>
		<path d="M68.59,15.14c0,0.18-0.14,0.32-0.32,0.32s-0.32-0.14-0.32-0.32c0-0.18,0.14-0.32,0.32-0.32
			C68.45,14.81,68.59,14.96,68.59,15.14z"/>
		<path d="M70.4,15.14c0,0.18-0.14,0.32-0.32,0.32s-0.32-0.14-0.32-0.32c0-0.18,0.14-0.32,0.32-0.32
			C70.26,14.81,70.4,14.96,70.4,15.14z"/>
		<path d="M72.21,15.14c0,0.18-0.14,0.32-0.32,0.32s-0.32-0.14-0.32-0.32c0-0.18,0.14-0.32,0.32-0.32
			C72.07,14.81,72.21,14.96,72.21,15.14z"/>
		<path d="M74.02,15.14c0,0.18-0.14,0.32-0.32,0.32s-0.32-0.14-0.32-0.32c0-0.18,0.14-0.32,0.32-0.32
			C73.88,14.81,74.02,14.96,74.02,15.14z"/>
		<path d="M75.83,15.14c0,0.18-0.14,0.32-0.32,0.32s-0.32-0.14-0.32-0.32c0-0.18,0.14-0.32,0.32-0.32
			C75.69,14.81,75.83,14.96,75.83,15.14z"/>
		<path d="M77.64,15.14c0,0.18-0.14,0.32-0.32,0.32S77,15.32,77,15.14c0-0.18,0.14-0.32,0.32-0.32
			C77.5,14.81,77.64,14.96,77.64,15.14z"/>
		<path d="M79.45,15.14c0,0.18-0.14,0.32-0.32,0.32s-0.32-0.14-0.32-0.32c0-0.18,0.14-0.32,0.32-0.32
			C79.31,14.81,79.45,14.96,79.45,15.14z"/>
		<path d="M81.27,15.14c0,0.18-0.14,0.32-0.32,0.32s-0.32-0.14-0.32-0.32c0-0.18,0.14-0.32,0.32-0.32
			C81.12,14.81,81.27,14.96,81.27,15.14z"/>
		<path d="M83.08,15.14c0,0.18-0.14,0.32-0.32,0.32s-0.32-0.14-0.32-0.32c0-0.18,0.14-0.32,0.32-0.32
			C82.93,14.81,83.08,14.96,83.08,15.14z"/>
	</g>
	<g>
		<path d="M23.09,12.55c0,0.18-0.14,0.32-0.32,0.32s-0.32-0.14-0.32-0.32c0-0.18,0.14-0.32,0.32-0.32S23.09,12.38,23.09,12.55z"/>
		<path d="M24.9,12.55c0,0.18-0.14,0.32-0.32,0.32s-0.32-0.14-0.32-0.32c0-0.18,0.14-0.32,0.32-0.32
			C24.76,12.23,24.9,12.38,24.9,12.55z"/>
		<path d="M26.71,12.55c0,0.18-0.14,0.32-0.32,0.32s-0.32-0.14-0.32-0.32c0-0.18,0.14-0.32,0.32-0.32S26.71,12.38,26.71,12.55z"/>
		<path d="M28.52,12.55c0,0.18-0.14,0.32-0.32,0.32s-0.32-0.14-0.32-0.32c0-0.18,0.14-0.32,0.32-0.32S28.52,12.38,28.52,12.55z"/>
		<path d="M30.34,12.55c0,0.18-0.14,0.32-0.32,0.32s-0.32-0.14-0.32-0.32c0-0.18,0.14-0.32,0.32-0.32
			C30.19,12.23,30.34,12.38,30.34,12.55z"/>
		<path d="M32.15,12.55c0,0.18-0.14,0.32-0.32,0.32s-0.32-0.14-0.32-0.32c0-0.18,0.14-0.32,0.32-0.32
			C32,12.23,32.15,12.38,32.15,12.55z"/>
		<path d="M33.96,12.55c0,0.18-0.14,0.32-0.32,0.32s-0.32-0.14-0.32-0.32c0-0.18,0.14-0.32,0.32-0.32
			C33.81,12.23,33.96,12.38,33.96,12.55z"/>
		<path d="M35.77,12.55c0,0.18-0.14,0.32-0.32,0.32s-0.32-0.14-0.32-0.32c0-0.18,0.14-0.32,0.32-0.32
			C35.62,12.23,35.77,12.38,35.77,12.55z"/>
		<path d="M37.58,12.55c0,0.18-0.14,0.32-0.32,0.32s-0.32-0.14-0.32-0.32c0-0.18,0.14-0.32,0.32-0.32
			C37.43,12.23,37.58,12.38,37.58,12.55z"/>
		<path d="M39.39,12.55c0,0.18-0.14,0.32-0.32,0.32s-0.32-0.14-0.32-0.32c0-0.18,0.14-0.32,0.32-0.32S39.39,12.38,39.39,12.55z"/>
		<path d="M41.2,12.55c0,0.18-0.14,0.32-0.32,0.32s-0.32-0.14-0.32-0.32c0-0.18,0.14-0.32,0.32-0.32
			C41.06,12.23,41.2,12.38,41.2,12.55z"/>
		<path d="M43.01,12.55c0,0.18-0.14,0.32-0.32,0.32s-0.32-0.14-0.32-0.32s0.14-0.32,0.32-0.32S43.01,12.38,43.01,12.55z"/>
		<path d="M44.82,12.55c0,0.18-0.14,0.32-0.32,0.32s-0.32-0.14-0.32-0.32c0-0.18,0.14-0.32,0.32-0.32S44.82,12.38,44.82,12.55z"/>
		<path d="M46.63,12.55c0,0.18-0.14,0.32-0.32,0.32s-0.32-0.14-0.32-0.32c0-0.18,0.14-0.32,0.32-0.32S46.63,12.38,46.63,12.55z"/>
		<path d="M48.44,12.55c0,0.18-0.14,0.32-0.32,0.32s-0.32-0.14-0.32-0.32c0-0.18,0.14-0.32,0.32-0.32S48.44,12.38,48.44,12.55z"/>
		<path d="M50.25,12.55c0,0.18-0.14,0.32-0.32,0.32s-0.32-0.14-0.32-0.32c0-0.18,0.14-0.32,0.32-0.32S50.25,12.38,50.25,12.55z"/>
		<path d="M52.06,12.55c0,0.18-0.14,0.32-0.32,0.32s-0.32-0.14-0.32-0.32c0-0.18,0.14-0.32,0.32-0.32S52.06,12.38,52.06,12.55z"/>
		<path d="M53.88,12.55c0,0.18-0.14,0.32-0.32,0.32s-0.32-0.14-0.32-0.32c0-0.18,0.14-0.32,0.32-0.32
			C53.73,12.23,53.88,12.38,53.88,12.55z"/>
		<path d="M55.69,12.55c0,0.18-0.14,0.32-0.32,0.32s-0.32-0.14-0.32-0.32c0-0.18,0.14-0.32,0.32-0.32
			C55.54,12.23,55.69,12.38,55.69,12.55z"/>
		<path d="M57.5,12.55c0,0.18-0.14,0.32-0.32,0.32s-0.32-0.14-0.32-0.32c0-0.18,0.14-0.32,0.32-0.32
			C57.35,12.23,57.5,12.38,57.5,12.55z"/>
		<path d="M59.31,12.55c0,0.18-0.14,0.32-0.32,0.32s-0.32-0.14-0.32-0.32c0-0.18,0.14-0.32,0.32-0.32
			C59.16,12.23,59.31,12.38,59.31,12.55z"/>
		<path d="M61.12,12.55c0,0.18-0.14,0.32-0.32,0.32s-0.32-0.14-0.32-0.32c0-0.18,0.14-0.32,0.32-0.32
			C60.97,12.23,61.12,12.38,61.12,12.55z"/>
		<path d="M62.93,12.55c0,0.18-0.14,0.32-0.32,0.32s-0.32-0.14-0.32-0.32c0-0.18,0.14-0.32,0.32-0.32
			C62.79,12.23,62.93,12.38,62.93,12.55z"/>
		<path d="M64.74,12.55c0,0.18-0.14,0.32-0.32,0.32s-0.32-0.14-0.32-0.32c0-0.18,0.14-0.32,0.32-0.32S64.74,12.38,64.74,12.55z"/>
		<path d="M66.55,12.55c0,0.18-0.14,0.32-0.32,0.32s-0.32-0.14-0.32-0.32c0-0.18,0.14-0.32,0.32-0.32S66.55,12.38,66.55,12.55z"/>
		<path d="M68.36,12.55c0,0.18-0.14,0.32-0.32,0.32s-0.32-0.14-0.32-0.32c0-0.18,0.14-0.32,0.32-0.32S68.36,12.38,68.36,12.55z"/>
		<path d="M70.17,12.55c0,0.18-0.14,0.32-0.32,0.32s-0.32-0.14-0.32-0.32c0-0.18,0.14-0.32,0.32-0.32S70.17,12.38,70.17,12.55z"/>
		<path d="M71.98,12.55c0,0.18-0.14,0.32-0.32,0.32s-0.32-0.14-0.32-0.32c0-0.18,0.14-0.32,0.32-0.32S71.98,12.38,71.98,12.55z"/>
		<path d="M73.79,12.55c0,0.18-0.14,0.32-0.32,0.32s-0.32-0.14-0.32-0.32c0-0.18,0.14-0.32,0.32-0.32S73.79,12.38,73.79,12.55z"/>
		<path d="M75.61,12.55c0,0.18-0.14,0.32-0.32,0.32s-0.32-0.14-0.32-0.32c0-0.18,0.14-0.32,0.32-0.32
			C75.46,12.23,75.61,12.38,75.61,12.55z"/>
		<path d="M77.42,12.55c0,0.18-0.14,0.32-0.32,0.32s-0.32-0.14-0.32-0.32c0-0.18,0.14-0.32,0.32-0.32S77.42,12.38,77.42,12.55z"/>
		<path d="M79.23,12.55c0,0.18-0.14,0.32-0.32,0.32s-0.32-0.14-0.32-0.32c0-0.18,0.14-0.32,0.32-0.32
			C79.08,12.23,79.23,12.38,79.23,12.55z"/>
		<path d="M81.04,12.55c0,0.18-0.14,0.32-0.32,0.32s-0.32-0.14-0.32-0.32c0-0.18,0.14-0.32,0.32-0.32S81.04,12.38,81.04,12.55z"/>
		<path d="M82.85,12.55c0,0.18-0.14,0.32-0.32,0.32s-0.32-0.14-0.32-0.32c0-0.18,0.14-0.32,0.32-0.32
			C82.7,12.23,82.85,12.38,82.85,12.55z"/>
		<path d="M84.66,12.55c0,0.18-0.14,0.32-0.32,0.32s-0.32-0.14-0.32-0.32c0-0.18,0.14-0.32,0.32-0.32
			C84.51,12.23,84.66,12.38,84.66,12.55z"/>
	</g>
	<g>
		<path d="M24.68,9.97c0,0.18-0.14,0.32-0.32,0.32s-0.32-0.14-0.32-0.32c0-0.18,0.14-0.32,0.32-0.32
			C24.53,9.65,24.68,9.79,24.68,9.97z"/>
		<path d="M26.49,9.97c0,0.18-0.14,0.32-0.32,0.32s-0.32-0.14-0.32-0.32c0-0.18,0.14-0.32,0.32-0.32
			C26.34,9.65,26.49,9.79,26.49,9.97z"/>
		<path d="M28.3,9.97c0,0.18-0.14,0.32-0.32,0.32s-0.32-0.14-0.32-0.32c0-0.18,0.14-0.32,0.32-0.32S28.3,9.79,28.3,9.97z"/>
		<path d="M30.11,9.97c0,0.18-0.14,0.32-0.32,0.32s-0.32-0.14-0.32-0.32s0.14-0.32,0.32-0.32C29.96,9.65,30.11,9.79,30.11,9.97z"/>
		<path d="M31.92,9.97c0,0.18-0.14,0.32-0.32,0.32s-0.32-0.14-0.32-0.32c0-0.18,0.14-0.32,0.32-0.32
			C31.77,9.65,31.92,9.79,31.92,9.97z"/>
		<path d="M33.73,9.97c0,0.18-0.14,0.32-0.32,0.32s-0.32-0.14-0.32-0.32c0-0.18,0.14-0.32,0.32-0.32
			C33.58,9.65,33.73,9.79,33.73,9.97z"/>
		<path d="M35.54,9.97c0,0.18-0.14,0.32-0.32,0.32s-0.32-0.14-0.32-0.32c0-0.18,0.14-0.32,0.32-0.32S35.54,9.79,35.54,9.97z"/>
		<path d="M37.35,9.97c0,0.18-0.14,0.32-0.32,0.32s-0.32-0.14-0.32-0.32c0-0.18,0.14-0.32,0.32-0.32S37.35,9.79,37.35,9.97z"/>
		<path d="M39.16,9.97c0,0.18-0.14,0.32-0.32,0.32s-0.32-0.14-0.32-0.32c0-0.18,0.14-0.32,0.32-0.32S39.16,9.79,39.16,9.97z"/>
		<path d="M40.97,9.97c0,0.18-0.14,0.32-0.32,0.32s-0.32-0.14-0.32-0.32c0-0.18,0.14-0.32,0.32-0.32S40.97,9.79,40.97,9.97z"/>
		<path d="M42.78,9.97c0,0.18-0.14,0.32-0.32,0.32s-0.32-0.14-0.32-0.32c0-0.18,0.14-0.32,0.32-0.32S42.78,9.79,42.78,9.97z"/>
		<path d="M44.59,9.97c0,0.18-0.14,0.32-0.32,0.32s-0.32-0.14-0.32-0.32c0-0.18,0.14-0.32,0.32-0.32S44.59,9.79,44.59,9.97z"/>
		<path d="M46.4,9.97c0,0.18-0.14,0.32-0.32,0.32s-0.32-0.14-0.32-0.32c0-0.18,0.14-0.32,0.32-0.32S46.4,9.79,46.4,9.97z"/>
		<path d="M48.22,9.97c0,0.18-0.14,0.32-0.32,0.32s-0.32-0.14-0.32-0.32c0-0.18,0.14-0.32,0.32-0.32
			C48.07,9.65,48.22,9.79,48.22,9.97z"/>
		<path d="M50.03,9.97c0,0.18-0.14,0.32-0.32,0.32s-0.32-0.14-0.32-0.32c0-0.18,0.14-0.32,0.32-0.32
			C49.88,9.65,50.03,9.79,50.03,9.97z"/>
		<path d="M51.84,9.97c0,0.18-0.14,0.32-0.32,0.32s-0.32-0.14-0.32-0.32c0-0.18,0.14-0.32,0.32-0.32
			C51.69,9.65,51.84,9.79,51.84,9.97z"/>
		<path d="M53.65,9.97c0,0.18-0.14,0.32-0.32,0.32s-0.32-0.14-0.32-0.32c0-0.18,0.14-0.32,0.32-0.32
			C53.5,9.65,53.65,9.79,53.65,9.97z"/>
		<path d="M55.46,9.97c0,0.18-0.14,0.32-0.32,0.32s-0.32-0.14-0.32-0.32c0-0.18,0.14-0.32,0.32-0.32
			C55.31,9.65,55.46,9.79,55.46,9.97z"/>
		<path d="M57.27,9.97c0,0.18-0.14,0.32-0.32,0.32s-0.32-0.14-0.32-0.32c0-0.18,0.14-0.32,0.32-0.32
			C57.13,9.65,57.27,9.79,57.27,9.97z"/>
		<path d="M59.08,9.97c0,0.18-0.14,0.32-0.32,0.32s-0.32-0.14-0.32-0.32c0-0.18,0.14-0.32,0.32-0.32S59.08,9.79,59.08,9.97z"/>
		<path d="M60.89,9.97c0,0.18-0.14,0.32-0.32,0.32s-0.32-0.14-0.32-0.32c0-0.18,0.14-0.32,0.32-0.32S60.89,9.79,60.89,9.97z"/>
		<path d="M62.7,9.97c0,0.18-0.14,0.32-0.32,0.32s-0.32-0.14-0.32-0.32c0-0.18,0.14-0.32,0.32-0.32C62.56,9.65,62.7,9.79,62.7,9.97z
			"/>
		<path d="M64.51,9.97c0,0.18-0.14,0.32-0.32,0.32s-0.32-0.14-0.32-0.32s0.14-0.32,0.32-0.32S64.51,9.79,64.51,9.97z"/>
		<path d="M66.32,9.97c0,0.18-0.14,0.32-0.32,0.32s-0.32-0.14-0.32-0.32c0-0.18,0.14-0.32,0.32-0.32S66.32,9.79,66.32,9.97z"/>
		<path d="M68.13,9.97c0,0.18-0.14,0.32-0.32,0.32s-0.32-0.14-0.32-0.32c0-0.18,0.14-0.32,0.32-0.32S68.13,9.79,68.13,9.97z"/>
		<path d="M69.94,9.97c0,0.18-0.14,0.32-0.32,0.32s-0.32-0.14-0.32-0.32c0-0.18,0.14-0.32,0.32-0.32S69.94,9.79,69.94,9.97z"/>
		<path d="M71.76,9.97c0,0.18-0.14,0.32-0.32,0.32s-0.32-0.14-0.32-0.32c0-0.18,0.14-0.32,0.32-0.32
			C71.61,9.65,71.76,9.79,71.76,9.97z"/>
		<path d="M73.57,9.97c0,0.18-0.14,0.32-0.32,0.32s-0.32-0.14-0.32-0.32c0-0.18,0.14-0.32,0.32-0.32
			C73.42,9.65,73.57,9.79,73.57,9.97z"/>
		<path d="M75.38,9.97c0,0.18-0.14,0.32-0.32,0.32s-0.32-0.14-0.32-0.32c0-0.18,0.14-0.32,0.32-0.32
			C75.23,9.65,75.38,9.79,75.38,9.97z"/>
		<path d="M77.19,9.97c0,0.18-0.14,0.32-0.32,0.32s-0.32-0.14-0.32-0.32c0-0.18,0.14-0.32,0.32-0.32
			C77.04,9.65,77.19,9.79,77.19,9.97z"/>
		<path d="M79,9.97c0,0.18-0.14,0.32-0.32,0.32s-0.32-0.14-0.32-0.32c0-0.18,0.14-0.32,0.32-0.32C78.85,9.65,79,9.79,79,9.97z"/>
		<path d="M80.81,9.97c0,0.18-0.14,0.32-0.32,0.32s-0.32-0.14-0.32-0.32s0.14-0.32,0.32-0.32S80.81,9.79,80.81,9.97z"/>
		<path d="M82.62,9.97c0,0.18-0.14,0.32-0.32,0.32s-0.32-0.14-0.32-0.32c0-0.18,0.14-0.32,0.32-0.32S82.62,9.79,82.62,9.97z"/>
		<path d="M84.43,9.97c0,0.18-0.14,0.32-0.32,0.32s-0.32-0.14-0.32-0.32c0-0.18,0.14-0.32,0.32-0.32S84.43,9.79,84.43,9.97z"/>
		<path d="M86.24,9.97c0,0.18-0.14,0.32-0.32,0.32s-0.32-0.14-0.32-0.32c0-0.18,0.14-0.32,0.32-0.32S86.24,9.79,86.24,9.97z"/>
	</g>
	<g>
		<path d="M26.26,7.39c0,0.18-0.14,0.32-0.32,0.32s-0.32-0.14-0.32-0.32c0-0.18,0.14-0.32,0.32-0.32
			C26.11,7.07,26.26,7.21,26.26,7.39z"/>
		<path d="M28.07,7.39c0,0.18-0.14,0.32-0.32,0.32s-0.32-0.14-0.32-0.32c0-0.18,0.14-0.32,0.32-0.32
			C27.92,7.07,28.07,7.21,28.07,7.39z"/>
		<path d="M29.88,7.39c0,0.18-0.14,0.32-0.32,0.32s-0.32-0.14-0.32-0.32c0-0.18,0.14-0.32,0.32-0.32S29.88,7.21,29.88,7.39z"/>
		<path d="M31.69,7.39c0,0.18-0.14,0.32-0.32,0.32s-0.32-0.14-0.32-0.32c0-0.18,0.14-0.32,0.32-0.32
			C31.55,7.07,31.69,7.21,31.69,7.39z"/>
		<path d="M33.5,7.39c0,0.18-0.14,0.32-0.32,0.32s-0.32-0.14-0.32-0.32c0-0.18,0.14-0.32,0.32-0.32C33.36,7.07,33.5,7.21,33.5,7.39z
			"/>
		<path d="M35.31,7.39c0,0.18-0.14,0.32-0.32,0.32s-0.32-0.14-0.32-0.32c0-0.18,0.14-0.32,0.32-0.32
			C35.17,7.07,35.31,7.21,35.31,7.39z"/>
		<path d="M37.12,7.39c0,0.18-0.14,0.32-0.32,0.32s-0.32-0.14-0.32-0.32c0-0.18,0.14-0.32,0.32-0.32
			C36.98,7.07,37.12,7.21,37.12,7.39z"/>
		<path d="M38.93,7.39c0,0.18-0.14,0.32-0.32,0.32s-0.32-0.14-0.32-0.32c0-0.18,0.14-0.32,0.32-0.32
			C38.79,7.07,38.93,7.21,38.93,7.39z"/>
		<path d="M40.74,7.39c0,0.18-0.14,0.32-0.32,0.32S40.1,7.57,40.1,7.39c0-0.18,0.14-0.32,0.32-0.32C40.6,7.07,40.74,7.21,40.74,7.39
			z"/>
		<path d="M42.56,7.39c0,0.18-0.14,0.32-0.32,0.32s-0.32-0.14-0.32-0.32c0-0.18,0.14-0.32,0.32-0.32
			C42.41,7.07,42.56,7.21,42.56,7.39z"/>
		<path d="M44.37,7.39c0,0.18-0.14,0.32-0.32,0.32s-0.32-0.14-0.32-0.32c0-0.18,0.14-0.32,0.32-0.32
			C44.22,7.07,44.37,7.21,44.37,7.39z"/>
		<path d="M46.18,7.39c0,0.18-0.14,0.32-0.32,0.32s-0.32-0.14-0.32-0.32c0-0.18,0.14-0.32,0.32-0.32
			C46.03,7.07,46.18,7.21,46.18,7.39z"/>
		<path d="M47.99,7.39c0,0.18-0.14,0.32-0.32,0.32s-0.32-0.14-0.32-0.32c0-0.18,0.14-0.32,0.32-0.32
			C47.84,7.07,47.99,7.21,47.99,7.39z"/>
		<path d="M49.8,7.39c0,0.18-0.14,0.32-0.32,0.32s-0.32-0.14-0.32-0.32c0-0.18,0.14-0.32,0.32-0.32C49.65,7.07,49.8,7.21,49.8,7.39z
			"/>
		<path d="M51.61,7.39c0,0.18-0.14,0.32-0.32,0.32s-0.32-0.14-0.32-0.32c0-0.18,0.14-0.32,0.32-0.32
			C51.46,7.07,51.61,7.21,51.61,7.39z"/>
		<path d="M53.42,7.39c0,0.18-0.14,0.32-0.32,0.32s-0.32-0.14-0.32-0.32c0-0.18,0.14-0.32,0.32-0.32
			C53.28,7.07,53.42,7.21,53.42,7.39z"/>
		<path d="M55.23,7.39c0,0.18-0.14,0.32-0.32,0.32s-0.32-0.14-0.32-0.32c0-0.18,0.14-0.32,0.32-0.32
			C55.09,7.07,55.23,7.21,55.23,7.39z"/>
		<path d="M57.04,7.39c0,0.18-0.14,0.32-0.32,0.32S56.4,7.57,56.4,7.39c0-0.18,0.14-0.32,0.32-0.32C56.9,7.07,57.04,7.21,57.04,7.39
			z"/>
		<path d="M58.85,7.39c0,0.18-0.14,0.32-0.32,0.32s-0.32-0.14-0.32-0.32c0-0.18,0.14-0.32,0.32-0.32
			C58.71,7.07,58.85,7.21,58.85,7.39z"/>
		<path d="M60.66,7.39c0,0.18-0.14,0.32-0.32,0.32s-0.32-0.14-0.32-0.32c0-0.18,0.14-0.32,0.32-0.32
			C60.52,7.07,60.66,7.21,60.66,7.39z"/>
		<path d="M62.47,7.39c0,0.18-0.14,0.32-0.32,0.32s-0.32-0.14-0.32-0.32c0-0.18,0.14-0.32,0.32-0.32
			C62.33,7.07,62.47,7.21,62.47,7.39z"/>
		<path d="M64.28,7.39c0,0.18-0.14,0.32-0.32,0.32s-0.32-0.14-0.32-0.32c0-0.18,0.14-0.32,0.32-0.32
			C64.14,7.07,64.28,7.21,64.28,7.39z"/>
		<path d="M66.1,7.39c0,0.18-0.14,0.32-0.32,0.32s-0.32-0.14-0.32-0.32c0-0.18,0.14-0.32,0.32-0.32C65.95,7.07,66.1,7.21,66.1,7.39z
			"/>
		<path d="M67.91,7.39c0,0.18-0.14,0.32-0.32,0.32s-0.32-0.14-0.32-0.32c0-0.18,0.14-0.32,0.32-0.32
			C67.76,7.07,67.91,7.21,67.91,7.39z"/>
		<path d="M69.72,7.39c0,0.18-0.14,0.32-0.32,0.32s-0.32-0.14-0.32-0.32c0-0.18,0.14-0.32,0.32-0.32
			C69.57,7.07,69.72,7.21,69.72,7.39z"/>
		<path d="M71.53,7.39c0,0.18-0.14,0.32-0.32,0.32s-0.32-0.14-0.32-0.32c0-0.18,0.14-0.32,0.32-0.32
			C71.38,7.07,71.53,7.21,71.53,7.39z"/>
		<path d="M73.34,7.39c0,0.18-0.14,0.32-0.32,0.32S72.7,7.57,72.7,7.39c0-0.18,0.14-0.32,0.32-0.32
			C73.19,7.07,73.34,7.21,73.34,7.39z"/>
		<path d="M75.15,7.39c0,0.18-0.14,0.32-0.32,0.32s-0.32-0.14-0.32-0.32c0-0.18,0.14-0.32,0.32-0.32C75,7.07,75.15,7.21,75.15,7.39z
			"/>
		<path d="M76.96,7.39c0,0.18-0.14,0.32-0.32,0.32s-0.32-0.14-0.32-0.32c0-0.18,0.14-0.32,0.32-0.32
			C76.82,7.07,76.96,7.21,76.96,7.39z"/>
		<path d="M78.77,7.39c0,0.18-0.14,0.32-0.32,0.32s-0.32-0.14-0.32-0.32c0-0.18,0.14-0.32,0.32-0.32
			C78.63,7.07,78.77,7.21,78.77,7.39z"/>
		<path d="M80.58,7.39c0,0.18-0.14,0.32-0.32,0.32s-0.32-0.14-0.32-0.32c0-0.18,0.14-0.32,0.32-0.32
			C80.44,7.07,80.58,7.21,80.58,7.39z"/>
		<path d="M82.39,7.39c0,0.18-0.14,0.32-0.32,0.32s-0.32-0.14-0.32-0.32c0-0.18,0.14-0.32,0.32-0.32
			C82.25,7.07,82.39,7.21,82.39,7.39z"/>
		<path d="M84.2,7.39c0,0.18-0.14,0.32-0.32,0.32s-0.32-0.14-0.32-0.32c0-0.18,0.14-0.32,0.32-0.32C84.06,7.07,84.2,7.21,84.2,7.39z
			"/>
		<path d="M86.01,7.39c0,0.18-0.14,0.32-0.32,0.32s-0.32-0.14-0.32-0.32c0-0.18,0.14-0.32,0.32-0.32
			C85.87,7.07,86.01,7.21,86.01,7.39z"/>
		<path d="M87.82,7.39c0,0.18-0.14,0.32-0.32,0.32s-0.32-0.14-0.32-0.32c0-0.18,0.14-0.32,0.32-0.32
			C87.68,7.07,87.82,7.21,87.82,7.39z"/>
	</g>
	<g>
		<path d="M27.84,4.81c0,0.18-0.14,0.32-0.32,0.32S27.2,4.99,27.2,4.81s0.14-0.32,0.32-0.32C27.7,4.48,27.84,4.63,27.84,4.81z"/>
		<path d="M29.65,4.81c0,0.18-0.14,0.32-0.32,0.32s-0.32-0.14-0.32-0.32s0.14-0.32,0.32-0.32C29.51,4.48,29.65,4.63,29.65,4.81z"/>
		<path d="M31.46,4.81c0,0.18-0.14,0.32-0.32,0.32s-0.32-0.14-0.32-0.32s0.14-0.32,0.32-0.32C31.32,4.48,31.46,4.63,31.46,4.81z"/>
		<path d="M33.27,4.81c0,0.18-0.14,0.32-0.32,0.32s-0.32-0.14-0.32-0.32s0.14-0.32,0.32-0.32C33.13,4.48,33.27,4.63,33.27,4.81z"/>
		<path d="M35.08,4.81c0,0.18-0.14,0.32-0.32,0.32s-0.32-0.14-0.32-0.32s0.14-0.32,0.32-0.32C34.94,4.48,35.08,4.63,35.08,4.81z"/>
		<path d="M36.9,4.81c0,0.18-0.14,0.32-0.32,0.32s-0.32-0.14-0.32-0.32s0.14-0.32,0.32-0.32C36.75,4.48,36.9,4.63,36.9,4.81z"/>
		<path d="M38.71,4.81c0,0.18-0.14,0.32-0.32,0.32s-0.32-0.14-0.32-0.32s0.14-0.32,0.32-0.32C38.56,4.48,38.71,4.63,38.71,4.81z"/>
		<path d="M40.52,4.81c0,0.18-0.14,0.32-0.32,0.32s-0.32-0.14-0.32-0.32s0.14-0.32,0.32-0.32C40.37,4.48,40.52,4.63,40.52,4.81z"/>
		<path d="M42.33,4.81c0,0.18-0.14,0.32-0.32,0.32s-0.32-0.14-0.32-0.32s0.14-0.32,0.32-0.32C42.18,4.48,42.33,4.63,42.33,4.81z"/>
		<path d="M44.14,4.81c0,0.18-0.14,0.32-0.32,0.32S43.5,4.99,43.5,4.81s0.14-0.32,0.32-0.32C43.99,4.48,44.14,4.63,44.14,4.81z"/>
		<path d="M45.95,4.81c0,0.18-0.14,0.32-0.32,0.32s-0.32-0.14-0.32-0.32s0.14-0.32,0.32-0.32C45.8,4.48,45.95,4.63,45.95,4.81z"/>
		<path d="M47.76,4.81c0,0.18-0.14,0.32-0.32,0.32s-0.32-0.14-0.32-0.32s0.14-0.32,0.32-0.32S47.76,4.63,47.76,4.81z"/>
		<path d="M49.57,4.81c0,0.18-0.14,0.32-0.32,0.32s-0.32-0.14-0.32-0.32s0.14-0.32,0.32-0.32C49.43,4.48,49.57,4.63,49.57,4.81z"/>
		<path d="M51.38,4.81c0,0.18-0.14,0.32-0.32,0.32s-0.32-0.14-0.32-0.32s0.14-0.32,0.32-0.32C51.24,4.48,51.38,4.63,51.38,4.81z"/>
		<path d="M53.19,4.81c0,0.18-0.14,0.32-0.32,0.32s-0.32-0.14-0.32-0.32s0.14-0.32,0.32-0.32C53.05,4.48,53.19,4.63,53.19,4.81z"/>
		<path d="M55,4.81c0,0.18-0.14,0.32-0.32,0.32s-0.32-0.14-0.32-0.32s0.14-0.32,0.32-0.32C54.86,4.48,55,4.63,55,4.81z"/>
		<path d="M56.81,4.81c0,0.18-0.14,0.32-0.32,0.32s-0.32-0.14-0.32-0.32s0.14-0.32,0.32-0.32C56.67,4.48,56.81,4.63,56.81,4.81z"/>
		<path d="M58.62,4.81c0,0.18-0.14,0.32-0.32,0.32s-0.32-0.14-0.32-0.32s0.14-0.32,0.32-0.32C58.48,4.48,58.62,4.63,58.62,4.81z"/>
		<path d="M60.44,4.81c0,0.18-0.14,0.32-0.32,0.32S59.8,4.99,59.8,4.81s0.14-0.32,0.32-0.32C60.29,4.48,60.44,4.63,60.44,4.81z"/>
		<path d="M62.25,4.81c0,0.18-0.14,0.32-0.32,0.32s-0.32-0.14-0.32-0.32s0.14-0.32,0.32-0.32C62.1,4.48,62.25,4.63,62.25,4.81z"/>
		<path d="M64.06,4.81c0,0.18-0.14,0.32-0.32,0.32s-0.32-0.14-0.32-0.32s0.14-0.32,0.32-0.32C63.91,4.48,64.06,4.63,64.06,4.81z"/>
		<path d="M65.87,4.81c0,0.18-0.14,0.32-0.32,0.32s-0.32-0.14-0.32-0.32s0.14-0.32,0.32-0.32C65.72,4.48,65.87,4.63,65.87,4.81z"/>
		<path d="M67.68,4.81c0,0.18-0.14,0.32-0.32,0.32s-0.32-0.14-0.32-0.32s0.14-0.32,0.32-0.32C67.53,4.48,67.68,4.63,67.68,4.81z"/>
		<path d="M69.49,4.81c0,0.18-0.14,0.32-0.32,0.32s-0.32-0.14-0.32-0.32s0.14-0.32,0.32-0.32C69.34,4.48,69.49,4.63,69.49,4.81z"/>
		<path d="M71.3,4.81c0,0.18-0.14,0.32-0.32,0.32s-0.32-0.14-0.32-0.32s0.14-0.32,0.32-0.32C71.16,4.48,71.3,4.63,71.3,4.81z"/>
		<path d="M73.11,4.81c0,0.18-0.14,0.32-0.32,0.32s-0.32-0.14-0.32-0.32s0.14-0.32,0.32-0.32C72.97,4.48,73.11,4.63,73.11,4.81z"/>
		<path d="M74.92,4.81c0,0.18-0.14,0.32-0.32,0.32s-0.32-0.14-0.32-0.32s0.14-0.32,0.32-0.32C74.78,4.48,74.92,4.63,74.92,4.81z"/>
		<path d="M76.73,4.81c0,0.18-0.14,0.32-0.32,0.32s-0.32-0.14-0.32-0.32s0.14-0.32,0.32-0.32S76.73,4.63,76.73,4.81z"/>
		<path d="M78.54,4.81c0,0.18-0.14,0.32-0.32,0.32S77.9,4.99,77.9,4.81s0.14-0.32,0.32-0.32C78.4,4.48,78.54,4.63,78.54,4.81z"/>
		<path d="M80.35,4.81c0,0.18-0.14,0.32-0.32,0.32s-0.32-0.14-0.32-0.32s0.14-0.32,0.32-0.32C80.21,4.48,80.35,4.63,80.35,4.81z"/>
		<path d="M82.16,4.81c0,0.18-0.14,0.32-0.32,0.32s-0.32-0.14-0.32-0.32s0.14-0.32,0.32-0.32C82.02,4.48,82.16,4.63,82.16,4.81z"/>
		<path d="M83.98,4.81c0,0.18-0.14,0.32-0.32,0.32s-0.32-0.14-0.32-0.32s0.14-0.32,0.32-0.32C83.83,4.48,83.98,4.63,83.98,4.81z"/>
		<path d="M85.79,4.81c0,0.18-0.14,0.32-0.32,0.32s-0.32-0.14-0.32-0.32s0.14-0.32,0.32-0.32C85.64,4.48,85.79,4.63,85.79,4.81z"/>
		<path d="M87.6,4.81c0,0.18-0.14,0.32-0.32,0.32s-0.32-0.14-0.32-0.32s0.14-0.32,0.32-0.32C87.45,4.48,87.6,4.63,87.6,4.81z"/>
		<path d="M89.41,4.81c0,0.18-0.14,0.32-0.32,0.32s-0.32-0.14-0.32-0.32s0.14-0.32,0.32-0.32S89.41,4.63,89.41,4.81z"/>
	</g>
	<g>
		<path d="M29.42,2.22c0,0.18-0.14,0.32-0.32,0.32s-0.32-0.14-0.32-0.32c0-0.18,0.14-0.32,0.32-0.32S29.42,2.04,29.42,2.22z"/>
		<path d="M31.23,2.22c0,0.18-0.14,0.32-0.32,0.32s-0.32-0.14-0.32-0.32c0-0.18,0.14-0.32,0.32-0.32S31.23,2.04,31.23,2.22z"/>
		<path d="M33.05,2.22c0,0.18-0.14,0.32-0.32,0.32s-0.32-0.14-0.32-0.32c0-0.18,0.14-0.32,0.32-0.32C32.9,1.9,33.05,2.04,33.05,2.22
			z"/>
		<path d="M34.86,2.22c0,0.18-0.14,0.32-0.32,0.32s-0.32-0.14-0.32-0.32c0-0.18,0.14-0.32,0.32-0.32
			C34.71,1.9,34.86,2.04,34.86,2.22z"/>
		<path d="M36.67,2.22c0,0.18-0.14,0.32-0.32,0.32s-0.32-0.14-0.32-0.32c0-0.18,0.14-0.32,0.32-0.32
			C36.52,1.9,36.67,2.04,36.67,2.22z"/>
		<path d="M38.48,2.22c0,0.18-0.14,0.32-0.32,0.32s-0.32-0.14-0.32-0.32c0-0.18,0.14-0.32,0.32-0.32
			C38.33,1.9,38.48,2.04,38.48,2.22z"/>
		<path d="M40.29,2.22c0,0.18-0.14,0.32-0.32,0.32s-0.32-0.14-0.32-0.32c0-0.18,0.14-0.32,0.32-0.32
			C40.14,1.9,40.29,2.04,40.29,2.22z"/>
		<path d="M42.1,2.22c0,0.18-0.14,0.32-0.32,0.32s-0.32-0.14-0.32-0.32c0-0.18,0.14-0.32,0.32-0.32S42.1,2.04,42.1,2.22z"/>
		<path d="M43.91,2.22c0,0.18-0.14,0.32-0.32,0.32s-0.32-0.14-0.32-0.32c0-0.18,0.14-0.32,0.32-0.32S43.91,2.04,43.91,2.22z"/>
		<path d="M45.72,2.22c0,0.18-0.14,0.32-0.32,0.32s-0.32-0.14-0.32-0.32c0-0.18,0.14-0.32,0.32-0.32S45.72,2.04,45.72,2.22z"/>
		<path d="M47.53,2.22c0,0.18-0.14,0.32-0.32,0.32s-0.32-0.14-0.32-0.32c0-0.18,0.14-0.32,0.32-0.32S47.53,2.04,47.53,2.22z"/>
		<path d="M49.34,2.22c0,0.18-0.14,0.32-0.32,0.32S48.7,2.4,48.7,2.22s0.14-0.32,0.32-0.32S49.34,2.04,49.34,2.22z"/>
		<path d="M51.15,2.22c0,0.18-0.14,0.32-0.32,0.32s-0.32-0.14-0.32-0.32c0-0.18,0.14-0.32,0.32-0.32S51.15,2.04,51.15,2.22z"/>
		<path d="M52.96,2.22c0,0.18-0.14,0.32-0.32,0.32s-0.32-0.14-0.32-0.32c0-0.18,0.14-0.32,0.32-0.32S52.96,2.04,52.96,2.22z"/>
		<path d="M54.77,2.22c0,0.18-0.14,0.32-0.32,0.32s-0.32-0.14-0.32-0.32c0-0.18,0.14-0.32,0.32-0.32
			C54.63,1.9,54.77,2.04,54.77,2.22z"/>
		<path d="M56.59,2.22c0,0.18-0.14,0.32-0.32,0.32s-0.32-0.14-0.32-0.32c0-0.18,0.14-0.32,0.32-0.32
			C56.44,1.9,56.59,2.04,56.59,2.22z"/>
		<path d="M58.4,2.22c0,0.18-0.14,0.32-0.32,0.32s-0.32-0.14-0.32-0.32c0-0.18,0.14-0.32,0.32-0.32C58.25,1.9,58.4,2.04,58.4,2.22z"
			/>
		<path d="M60.21,2.22c0,0.18-0.14,0.32-0.32,0.32s-0.32-0.14-0.32-0.32c0-0.18,0.14-0.32,0.32-0.32
			C60.06,1.9,60.21,2.04,60.21,2.22z"/>
		<path d="M62.02,2.22c0,0.18-0.14,0.32-0.32,0.32s-0.33-0.14-0.33-0.32c0-0.18,0.14-0.32,0.32-0.32S62.02,2.04,62.02,2.22z"/>
		<path d="M63.83,2.22c0,0.18-0.14,0.32-0.32,0.32s-0.32-0.14-0.32-0.32c0-0.18,0.14-0.32,0.32-0.32
			C63.68,1.9,63.83,2.04,63.83,2.22z"/>
		<path d="M65.64,2.22c0,0.18-0.14,0.32-0.32,0.32S65,2.4,65,2.22s0.14-0.32,0.32-0.32S65.64,2.04,65.64,2.22z"/>
		<path d="M67.45,2.22c0,0.18-0.14,0.32-0.32,0.32s-0.32-0.14-0.32-0.32c0-0.18,0.14-0.32,0.32-0.32S67.45,2.04,67.45,2.22z"/>
		<path d="M69.26,2.22c0,0.18-0.14,0.32-0.32,0.32s-0.32-0.14-0.32-0.32c0-0.18,0.14-0.32,0.32-0.32S69.26,2.04,69.26,2.22z"/>
		<path d="M71.07,2.22c0,0.18-0.14,0.32-0.32,0.32s-0.32-0.14-0.32-0.32c0-0.18,0.14-0.32,0.32-0.32S71.07,2.04,71.07,2.22z"/>
		<path d="M72.88,2.22c0,0.18-0.14,0.32-0.32,0.32s-0.32-0.14-0.32-0.32c0-0.18,0.14-0.32,0.32-0.32S72.88,2.04,72.88,2.22z"/>
		<path d="M74.69,2.22c0,0.18-0.14,0.32-0.32,0.32s-0.32-0.14-0.32-0.32c0-0.18,0.14-0.32,0.32-0.32S74.69,2.04,74.69,2.22z"/>
		<path d="M76.5,2.22c0,0.18-0.14,0.32-0.32,0.32s-0.32-0.14-0.32-0.32c0-0.18,0.14-0.32,0.32-0.32S76.5,2.04,76.5,2.22z"/>
		<path d="M78.32,2.22c0,0.18-0.14,0.32-0.32,0.32s-0.32-0.14-0.32-0.32c0-0.18,0.14-0.32,0.32-0.32
			C78.17,1.9,78.32,2.04,78.32,2.22z"/>
		<path d="M80.13,2.22c0,0.18-0.14,0.32-0.32,0.32s-0.32-0.14-0.32-0.32c0-0.18,0.14-0.32,0.32-0.32
			C79.98,1.9,80.13,2.04,80.13,2.22z"/>
		<path d="M81.94,2.22c0,0.18-0.14,0.32-0.32,0.32S81.3,2.4,81.3,2.22s0.14-0.32,0.32-0.32C81.79,1.9,81.94,2.04,81.94,2.22z"/>
		<path d="M83.75,2.22c0,0.18-0.14,0.32-0.32,0.32s-0.32-0.14-0.32-0.32c0-0.18,0.14-0.32,0.32-0.32C83.6,1.9,83.75,2.04,83.75,2.22
			z"/>
		<path d="M85.56,2.22c0,0.18-0.14,0.32-0.32,0.32s-0.32-0.14-0.32-0.32c0-0.18,0.14-0.32,0.32-0.32
			C85.41,1.9,85.56,2.04,85.56,2.22z"/>
		<path d="M87.37,2.22c0,0.18-0.14,0.32-0.32,0.32s-0.32-0.14-0.32-0.32c0-0.18,0.14-0.32,0.32-0.32
			C87.22,1.9,87.37,2.04,87.37,2.22z"/>
		<path d="M89.18,2.22c0,0.18-0.14,0.32-0.32,0.32s-0.32-0.14-0.32-0.32c0-0.18,0.14-0.32,0.32-0.32S89.18,2.04,89.18,2.22z"/>
		<path d="M90.99,2.22c0,0.18-0.14,0.32-0.32,0.32s-0.32-0.14-0.32-0.32c0-0.18,0.14-0.32,0.32-0.32S90.99,2.04,90.99,2.22z"/>
	</g>
</g>
</svg>
