<?xml version="1.0" encoding="utf-8"?>
<!-- Generator: Adobe Illustrator 24.3.0, SVG Export Plug-In . SVG Version: 6.00 Build 0)  -->
<svg version="1.1" xmlns="http://www.w3.org/2000/svg" xmlns:xlink="http://www.w3.org/1999/xlink" x="0px" y="0px"
	 viewBox="0 0 415 519" style="enable-background:new 0 0 415 519;" xml:space="preserve">
<g>
	<g>
		
			<linearGradient id="SVGID_1_" gradientUnits="userSpaceOnUse" x1="207.5742" y1="12.3087" x2="207.5742" y2="512.5887" gradientTransform="matrix(1 0 0 -1 0 522)">
			<stop  offset="0" style="stop-color:#656565"/>
			<stop  offset="0.618" style="stop-color:#1B1B1B"/>
			<stop  offset="0.6292" style="stop-color:#545454"/>
			<stop  offset="0.9831" style="stop-color:#3E3E3E"/>
		</linearGradient>
		<path style="fill:url(#SVGID_1_);" d="M207.58,509.69l-7.73-3.71c-52.25-25.08-94.57-55.43-125.79-90.19
			c-40.99-45.66-61.78-97.91-61.78-155.3V92.77l15.86-1.79c61.65-6.95,118.2-31.26,168.09-72.25l11.35-9.32l11.34,9.32
			c49.89,40.99,106.44,65.3,168.09,72.25l15.86,1.79v167.72c0,57.39-20.79,109.65-61.78,155.3
			c-31.21,34.77-73.54,65.11-125.79,90.19L207.58,509.69z"/>
	</g>
	<g style="opacity:0.51;">
		
			<linearGradient id="SVGID_2_" gradientUnits="userSpaceOnUse" x1="207.5742" y1="12.3087" x2="207.5742" y2="512.5887" gradientTransform="matrix(1 0 0 -1 0 522)">
			<stop  offset="0" style="stop-color:#0E0E0E"/>
			<stop  offset="0.5" style="stop-color:#000000"/>
			<stop  offset="0.5213" style="stop-color:#010101"/>
			<stop  offset="0.7262" style="stop-color:#0B0B0B"/>
			<stop  offset="1" style="stop-color:#0E0E0E"/>
		</linearGradient>
		<path style="fill:url(#SVGID_2_);" d="M207.58,509.69l-7.73-3.71c-52.25-25.08-94.57-55.43-125.79-90.19
			c-40.99-45.66-61.78-97.91-61.78-155.3V92.77l15.86-1.79c61.65-6.95,118.2-31.26,168.09-72.25l11.35-9.32l11.34,9.32
			c49.89,40.99,106.44,65.3,168.09,72.25l15.86,1.79v167.72c0,57.39-20.79,109.65-61.78,155.3
			c-31.21,34.77-73.54,65.11-125.79,90.19L207.58,509.69z"/>
	</g>
	<g style="opacity:0.7;">
		
			<linearGradient id="SVGID_3_" gradientUnits="userSpaceOnUse" x1="214.8946" y1="465.533" x2="194.8016" y2="126.1848" gradientTransform="matrix(1 0 0 -1 0 522)">
			<stop  offset="0" style="stop-color:#FFFFFF;stop-opacity:0.77"/>
			<stop  offset="0.2033" style="stop-color:#FFFFFF;stop-opacity:0.65"/>
			<stop  offset="0.3448" style="stop-color:#FFFFFF;stop-opacity:0.65"/>
			<stop  offset="0.3462" style="stop-color:#FFFFFF;stop-opacity:0.65"/>
			<stop  offset="0.511" style="stop-color:#FFFFFF;stop-opacity:0"/>
			<stop  offset="0.5247" style="stop-color:#E1E1E1;stop-opacity:4.472275e-03"/>
			<stop  offset="0.5464" style="stop-color:#B8B8B8;stop-opacity:0.0116"/>
			<stop  offset="0.5708" style="stop-color:#929292;stop-opacity:0.0196"/>
			<stop  offset="0.5974" style="stop-color:#727272;stop-opacity:0.0283"/>
			<stop  offset="0.6268" style="stop-color:#565656;stop-opacity:0.0379"/>
			<stop  offset="0.6599" style="stop-color:#404040;stop-opacity:0.0487"/>
			<stop  offset="0.6986" style="stop-color:#2F2F2F;stop-opacity:0.0614"/>
			<stop  offset="0.7465" style="stop-color:#242424;stop-opacity:0.0771"/>
			<stop  offset="0.8136" style="stop-color:#1D1D1D;stop-opacity:0.099"/>
			<stop  offset="1" style="stop-color:#1B1B1B;stop-opacity:0.16"/>
		</linearGradient>
		<path style="fill:url(#SVGID_3_);" d="M207.58,509.69l-7.73-3.71c-52.25-25.08-94.57-55.43-125.79-90.19
			c-40.99-45.66-61.78-97.91-61.78-155.3V92.77l15.86-1.79c61.65-6.95,118.2-31.26,168.09-72.25l11.35-9.32l11.34,9.32
			c49.89,40.99,106.44,65.3,168.09,72.25l15.86,1.79v167.72c0,57.39-20.79,109.65-61.78,155.3
			c-31.21,34.77-73.54,65.11-125.79,90.19L207.58,509.69z"/>
	</g>
	<g style="opacity:0.49;">
		<g>
			<path style="fill:#FFFFFF;" d="M201.1,503.78C115.74,462.64,33.75,395.04,17.66,296.47c-3.48-21.33-2.85-42.9-2.85-64.42
				c0-27.41,0-54.82,0-82.23c0-18.91,0-37.82,0-56.73c-0.73,0.73-1.45,1.45-2.18,2.18c26.19-2.95,51.93-6.79,77.13-14.89
				c32.53-10.46,63.19-26.32,90.83-46.38c9.83-7.13,19.15-14.89,28.53-22.59c-1.03,0-2.05,0-3.08,0
				c21.32,17.52,43.1,34.01,67.55,47.02c29.86,15.9,62.22,26.98,95.58,32.59c11.06,1.86,22.21,2.99,33.35,4.25
				c-0.73-0.73-1.45-1.45-2.18-2.18c0,44.87,0,89.75,0,134.62c0,21.32,0.84,42.92-2.13,64.08c-6.88,48.99-31.04,93.19-64.96,128.75
				c-35.85,37.6-80.26,64.55-126.77,86.88c0.73,0,1.47,0,2.2,0C206.15,506.2,203.63,504.99,201.1,503.78
				c-2.51-1.21-4.73,2.55-2.2,3.76c2.32,1.12,4.95,2.98,7.45,3.58c2.43,0.58,4.31-0.89,6.55-1.97c10.8-5.18,21.49-10.57,31.95-16.41
				c22.36-12.48,43.76-26.73,63.49-43.08c38.32-31.76,70.1-72.24,85.59-119.98c7.25-22.35,10.7-45.77,10.76-69.25
				c0.02-5.69,0-11.39,0-17.08c0-28.44,0-56.89,0-85.33c0-21.64,0-43.27,0-64.91c0-1.27-1-2.05-2.18-2.18
				c-25.53-2.88-50.62-6.66-75.19-14.48c-32.2-10.26-62.5-25.92-89.88-45.69C227.66,23.7,218.41,16,209.11,8.35
				c-0.98-0.8-2.09-0.81-3.08,0c-20.82,17.11-42.1,33.18-65.94,45.95c-29.5,15.81-61.47,26.77-94.46,32.4
				c-10.94,1.87-21.98,2.98-33.01,4.23c-1.17,0.13-2.18,0.89-2.18,2.18c0,44.47,0,88.93,0,133.4c0,19.8-0.79,39.9,1.42,59.6
				c5.26,46.89,25.81,90.12,56.36,125.82c35.43,41.41,81.89,72.13,130.67,95.64C201.42,508.75,203.63,505,201.1,503.78z"/>
		</g>
	</g>
	<g>
		<path style="fill:none;stroke:#717171;stroke-width:0.5878;stroke-miterlimit:1;" d="M207.58,509.69l-7.73-3.71
			c-52.25-25.08-94.57-55.43-125.79-90.19c-40.99-45.66-61.78-97.91-61.78-155.3V92.77l15.86-1.79
			c61.65-6.95,118.2-31.26,168.09-72.25l11.35-9.32l11.34,9.32c49.89,40.99,106.44,65.3,168.09,72.25l15.86,1.79v167.72
			c0,57.39-20.79,109.65-61.78,155.3c-31.21,34.77-73.54,65.11-125.79,90.19L207.58,509.69z"/>
	</g>
	<g style="opacity:0.58;">
		<g>
			<path d="M207.58,509.63c-27.43-13.17-54.09-27.63-78.85-45.41c-26.03-18.7-49.96-40.65-69.35-66.25
				c-19.57-25.84-34.13-55.37-41.43-87.01c-4.38-18.98-5.67-38.19-5.67-57.6c0-14.52,0-29.03,0-43.55c0-19.77,0-39.53,0-59.3
				c0-15.63,0-31.26,0-46.89c0-2.21,0-4.43,0-6.64c0-1.08-0.27-2.55,0-3.61c0.03-0.13-0.08-0.48,0-0.59
				c0.2-0.26,2.82-0.26,3.26-0.31c4.1-0.46,8.19-0.92,12.29-1.39c32.2-3.64,63.74-12.12,93.31-25.39
				c28.44-12.76,54.34-29.84,78.38-49.59c1.82-1.49,3.63-2.99,5.45-4.48c0.44-0.36,2.04-2.15,2.63-2.13
				c0.77,0.02,2.7,2.22,3.27,2.68c1.82,1.49,3.63,2.99,5.45,4.48c11.16,9.17,22.68,17.86,34.82,25.7
				c28.13,18.17,59.01,31.98,91.42,40.45c14.83,3.87,29.92,6.6,45.14,8.32c4.23,0.48,8.47,0.95,12.7,1.43
				c1.51,0.17,2.28-0.31,2.48,0.96c0.52,3.37,0,7.24,0,10.64c0,6.79,0,13.58,0,20.37c0,18.95,0,37.91,0,56.86
				c0,18.22,0,36.44,0,54.66c0,8.94,0.08,17.89-0.01,26.84c-0.33,32.84-7.86,65.31-22.24,94.85
				c-14.22,29.19-34.64,54.99-58.28,77.12c-24.27,22.71-51.89,41.67-80.96,57.67C230.31,498.61,218.97,504.16,207.58,509.63
				c-0.02,0.01,0.01,0.11,0,0.12c42.22-20.27,82.61-44.18,116.71-76.63c35.49-33.77,62.86-76.11,73.43-124.34
				c3.56-16.24,5.15-32.79,5.15-49.4c0-7.06,0-14.12,0-21.18c0-28.19,0-56.37,0-84.56c0-19.97,0.21-39.96,0-59.93
				c0-0.31,0-0.62,0-0.93v-0.06c-9.02-1.02-18.07-1.91-27.05-3.25c-16.77-2.49-33.34-6.32-49.49-11.5
				c-32.63-10.46-63.33-26.42-91-46.58c-9.26-6.75-18.06-14.06-26.91-21.34c-0.97-0.8-0.82-0.71-1.79,0.09
				c-1.64,1.35-3.27,2.69-4.91,4.04c-3.84,3.16-7.67,6.33-11.58,9.41c-27.06,21.28-57.27,38.56-89.63,50.38
				c-15.76,5.76-31.99,10.22-48.47,13.36c-11.95,2.27-24,3.62-36.08,4.98c-1.23,0.14-2.45,0.28-3.68,0.41v0.06
				c0,16.82,0,33.63,0,50.45c0,28.91,0,57.82,0,86.72c0,20.58-0.7,41.31,2.11,61.75c6.76,49.22,30.83,93.75,64.72,129.64
				c34.14,36.15,76.63,63.52,121.23,84.95c2.41,1.16,4.83,2.32,7.24,3.47C207.57,509.74,207.6,509.64,207.58,509.63z"/>
		</g>
	</g>
	<g>
		<path style="stroke:#000000;stroke-miterlimit:10;" d="M207.58,509.69l-7.73-3.71c-52.25-25.08-94.57-55.43-125.79-90.19
			c-40.99-45.66-61.78-97.91-61.78-155.3V92.77l15.86-1.79c61.65-6.95,118.2-31.26,168.09-72.25l11.35-9.32l11.34,9.32
			c49.89,40.99,106.44,65.3,168.09,72.25l15.86,1.79v167.72c0,57.39-20.79,109.65-61.78,155.3
			c-31.21,34.77-73.54,65.11-125.79,90.19L207.58,509.69z"/>
	</g>
</g>
</svg>
