<?xml version="1.0" encoding="utf-8"?>
<!-- Generator: Adobe Illustrator 24.3.0, SVG Export Plug-In . SVG Version: 6.00 Build 0)  -->
<svg version="1.1" xmlns="http://www.w3.org/2000/svg" xmlns:xlink="http://www.w3.org/1999/xlink" x="0px" y="0px"
	 viewBox="0 0 440 515" style="enable-background:new 0 0 440 515;" xml:space="preserve">
<g>
	<path style="fill-rule:evenodd;clip-rule:evenodd;" d="M351.32,273c-12.72,44.62-34.46,83.76-66.43,119.44
		c-21.05,23.45-45.55,43.05-74.46,59.5c-28.91-16.45-53.41-36.05-74.49-59.53c-32.66-36.45-54.68-76.54-67.29-122.51
		c-3.65-13.41-6.23-25.89-7.85-38.05c-2.95-22.03-2.97-44.98-2.99-69.28c0,0-0.04-36.97-0.05-44.04
		c51.63-6.67,100.91-23.21,146.47-49.22l0.38-0.22c1.9-1.09,3.85-2.2,5.83-3.36c2,1.16,3.96,2.28,5.87,3.38l0.26,0.15
		c32.59,18.6,67.06,32.33,102.94,41.11l37.66-37.66c1.73-1.73,3.56-3.31,5.48-4.77c-42.88-6.39-83.31-20.44-121.21-42.07
		c-9.68-5.55-19.41-11.1-28.04-18.37c-0.98,0-1.97,0-2.96,0c-0.99,0-1.97,0-2.96,0c-8.63,7.26-18.36,12.82-28.03,18.37
		C137.81,49.63,93.12,64.27,45.5,69.63c-10.24,1.17-20.55,1.55-30.82,2.22c-6.48,0.46-6.95,0.77-6.95,7.48
		c-0.01,27.72,0.04,55.48,0.07,83.27c0.02,25.33,0.06,50.66,3.44,75.86c2.02,15.1,5.2,29.96,9.19,44.65
		c14.76,53.81,41.13,101.2,78.3,142.69c30.78,34.29,67.4,60.81,108.75,81.11c1.11,0.55,2.08,0.67,2.95,0.55
		c0.87,0.12,1.83,0,2.95-0.55c41.35-20.3,77.97-46.82,108.75-81.11c37.17-41.49,63.54-88.88,78.31-142.69
		c4-14.69,7.17-29.55,9.2-44.65c1.17-8.72,1.93-17.46,2.44-26.21L351.32,273z"/>
	<g>
		<path style="fill-rule:evenodd;clip-rule:evenodd;" d="M216.3,69.1l0.26,0.15c32.59,18.6,67.06,32.33,102.94,41.11l37.66-37.66
			c1.73-1.73,3.56-3.31,5.48-4.77c-42.88-6.39-83.31-20.44-121.21-42.07c-9.68-5.55-19.41-11.1-28.04-18.37c-0.98,0-1.97,0-2.96,0
			v58.22c0,0,0,0,0,0C212.43,66.88,214.39,68,216.3,69.1z"/>
		<path style="fill-rule:evenodd;clip-rule:evenodd;" d="M351.32,273c-12.72,44.62-34.46,83.76-66.43,119.44
			c-21.05,23.45-45.55,43.05-74.46,59.5h0v55.52c0.87,0.12,1.83,0,2.95-0.55c41.35-20.3,77.97-46.82,108.75-81.11
			c37.17-41.49,63.54-88.88,78.31-142.69c4-14.69,7.17-29.55,9.2-44.65c1.17-8.72,1.93-17.46,2.44-26.21L351.32,273z"/>
	</g>
	<path d="M221.04,261.86c-2.71,2.71-6.46,4.39-10.61,4.39c-4.14,0-7.89-1.68-10.61-4.39l-60.99-60.99
		c-2.71-2.71-6.46-4.39-10.61-4.39c-4.14,0-7.89,1.68-10.61,4.39l-22.98,22.98c-2.71,2.71-4.39,6.47-4.39,10.61
		c0,4.14,1.68,7.89,4.39,10.61l71.59,71.59l33.59,33.59c2.71,2.71,6.47,4.39,10.61,4.39c4.14,0,7.89-1.68,10.61-4.39l33.59-33.59
		l173.24-173.24c2.71-2.71,4.39-6.46,4.39-10.61c0-4.14-1.68-7.89-4.4-10.61l-22.98-22.98c-2.71-2.71-6.46-4.39-10.6-4.39
		c-4.14,0-7.9,1.68-10.61,4.39L221.04,261.86z"/>
	<path d="M209.9,266.22c-3.93-0.14-7.48-1.77-10.08-4.37l-60.99-60.99c-2.71-2.71-6.46-4.39-10.61-4.39
		c-4.14,0-7.89,1.68-10.61,4.39l-22.98,22.98c-2.71,2.71-4.39,6.47-4.39,10.61c0,4.14,1.68,7.89,4.39,10.61l71.59,71.59l33.59,33.59
		c2.6,2.6,6.15,4.23,10.08,4.37V266.22z"/>
</g>
</svg>
