<?xml version="1.0" encoding="utf-8"?>
<!-- Generator: Adobe Illustrator 24.3.0, SVG Export Plug-In . SVG Version: 6.00 Build 0)  -->
<svg version="1.1" xmlns="http://www.w3.org/2000/svg" xmlns:xlink="http://www.w3.org/1999/xlink" x="0px" y="0px"
	 viewBox="0 0 109.1 94.9" style="enable-background:new 0 0 109.1 94.9;" xml:space="preserve">
<style type="text/css">
	.st0{display:none;fill:#808285;}
	.st1{display:none;fill:#58595B;}
</style>
<g>
	<g>
		<path d="M99.8,49.7c-1-1.4-2.2-2.7-3.7-3.7c-3.2-2.2-7.3-3.3-9.3-6.5c-1.8-2.9-1.3-6.6-0.4-9.8c0.9-3.3,2.1-6.6,1.6-9.9
			c-0.9-5.5-6.2-9.1-11.2-11.4c-20-8.9-54.2-4.5-67.7,12.3C7,23.2,2.7,28.6,2.8,36c0,2.9,0.4,5.8,1.7,8.5c3,6.1,9.6,8.4,8.5,16.2
			c-0.4,2.7-1.4,5.3-2.2,8c0,0-0.9,6.2,1.4,12.3c5.7,14.8,72.3,14.8,85.9-5.3c5.2-7.7,5-15.3,5-15.3C103,58.4,102.7,53.9,99.8,49.7z
			"/>
		<g>
			<path class="st0" d="M64.7,73.8c-0.4,0-0.7,0.2-0.8,0.6c0.7-0.2,1.5-0.4,2.3-0.5c3.8-0.4,7.7,0.8,11.5,0.9c2.2,0,4.5-0.3,6.7-0.8
				c-0.1-0.1-0.3-0.2-0.5-0.2H64.7L64.7,73.8z"/>
			<path class="st1" d="M97.4,68.4H24.3h-0.2c-1.1,0-2,0.9-2,2l0,0c0,1.1,0.9,2,2,2h0.1h0.1H96h1.4h0.1c1.1,0,2-0.8,2-1.9
				c0,0,0-0.1,0-0.1l0,0C99.5,69.3,98.5,68.4,97.4,68.4z"/>
		</g>
	</g>
</g>
</svg>
