<?xml version="1.0" encoding="utf-8"?>
<!-- Generator: Adobe Illustrator 24.3.0, SVG Export Plug-In . SVG Version: 6.00 Build 0)  -->
<svg version="1.1" xmlns="http://www.w3.org/2000/svg" xmlns:xlink="http://www.w3.org/1999/xlink" x="0px" y="0px"
	 viewBox="0 0 104 84.3" style="enable-background:new 0 0 104 84.3;" xml:space="preserve">
<g>
	<g>
		<g>
			<path id="XMLID_10_" d="M88,79.1c10.7-4.8,13.8-17.7,14-28.3c0.1-12.7-4-25.5-12.4-35.2C84.6,9.9,78.2,5.5,71,3.5
				c-10.2-2.8-22-0.3-30.7,5.6C37,11.3,34,14,31.5,17c-1.8,2.1-3.1,4.6-4.8,6.8c-2.1,2.8-4.8,4.9-7.8,6.6
				c-5.1,2.9-10.3,5.8-13.5,10.9c-3.5,5.5-4.1,13.1-2.9,19.4c2.4,12.1,12,20.1,24.1,20.9c8.2,0.6,16.8-0.2,25.1-0.2
				c5.6,0,11.2,0,16.8,0c6,0,12.3,0.3,18.1-1.6C87,79.5,87.5,79.3,88,79.1z"/>
		</g>
	</g>
</g>
</svg>
