<?xml version="1.0" encoding="utf-8"?>
<!-- Generator: Adobe Illustrator 24.3.0, SVG Export Plug-In . SVG Version: 6.00 Build 0)  -->
<svg version="1.1" xmlns="http://www.w3.org/2000/svg" xmlns:xlink="http://www.w3.org/1999/xlink" x="0px" y="0px"
	 viewBox="0 0 119 104" style="enable-background:new 0 0 119 104;" xml:space="preserve">
<path d="M23,99.47C14.3,95.62,7.59,88.11,4.66,78.98C2.89,73.47,2.58,67.5,3.7,61.82c1.21-6.17,4.64-9.38,7.61-14.62
	c3.16-5.57,2.97-10.13,3.45-16.2c0.47-5.94,2.66-11.75,6.29-16.48c5.61-7.3,14.55-11.65,23.6-12.7c10.82-1.25,18.81,4.74,29.09,6.12
	c10.34,1.39,21.34-4.35,30.97-0.34c8.96,3.74,12.86,15.13,10.62,24.58c-0.76,3.22-2.09,6.29-2.87,9.5
	c-3.97,16.4,7.01,37.29-5.5,51.39c-3.69,4.16-9.02,6.66-14.49,7.66c-8.2,1.5-16.28-0.53-24.46-1.02
	c-14.14-0.85-27.42,5.45-41.5,1.08C25.31,100.42,24.13,99.97,23,99.47z"/>
</svg>
