<?xml version="1.0" encoding="utf-8"?>
<!-- Generator: Adobe Illustrator 24.3.0, SVG Export Plug-In . SVG Version: 6.00 Build 0)  -->
<svg version="1.1" xmlns="http://www.w3.org/2000/svg" xmlns:xlink="http://www.w3.org/1999/xlink" x="0px" y="0px"
	 viewBox="0 0 105.35 89.16" style="enable-background:new 0 0 105.35 89.16;" xml:space="preserve">
<g>
	<path d="M85.61,56.18l0.02,0.06C75.65,60.25,66.89,66.74,60.17,75l-0.01-0.01c-6.38,7.72-16.22,12.41-26.99,11.82
		c-18.01-0.99-31.8-16.4-30.8-34.41C3.18,37.77,13.5,25.92,27,22.53v-0.02c11.47-2.9,22.12-7.97,31.47-14.77l0.01,0.01
		c1.99-1.47,4.19-2.68,6.53-3.58c3.58-1.38,7.51-2.04,11.59-1.82c15.42,0.85,27.24,14.05,26.38,29.47
		C102.36,42.97,95.3,52.22,85.61,56.18z"/>
</g>
</svg>
