<?xml version="1.0" encoding="utf-8"?>
<!-- Generator: Adobe Illustrator 24.3.0, SVG Export Plug-In . SVG Version: 6.00 Build 0)  -->
<svg version="1.1" xmlns="http://www.w3.org/2000/svg" xmlns:xlink="http://www.w3.org/1999/xlink" x="0px" y="0px"
	 viewBox="0 0 107.1 86" style="enable-background:new 0 0 107.1 86;" xml:space="preserve">
<style type="text/css">
	.st0{stroke:#000000;stroke-miterlimit:1;}
</style>
<g>
	<path class="st0" d="M102.9,63.7c0.8-2.5,1.2-5,0.9-7.1c-1-8.3-6.8-15.5-14.1-19.7c-5.8-3.3-12.7-5-17.1-10
		c-3.4-3.9-4.8-9.2-7.7-13.5c-4.2-6.3-11.8-10-19.3-10.2c-7.6-0.2-15,3.1-20.6,8.2c-5.5,5.2-9.1,12.3-10.7,19.7
		c-1,4.8-1.3,10-3.7,14.3c-1.3,2.3-3.1,4.2-4.6,6.3C2.9,56.8,2,63.4,3.9,69.1c0.5,1.6,1.3,3.1,2.2,4.5H97
		C99.6,70.9,101.7,67.5,102.9,63.7z"/>
	<path class="st0" d="M6.1,73.6c0.1,0.1,0.2,0.3,0.3,0.4c3.3,4.8,8.8,7.7,14.7,7.7h57c7.3,0,14.1-3,18.9-8.1H6.1L6.1,73.6z"/>
</g>
</svg>
