<?xml version="1.0" encoding="utf-8"?>
<!-- Generator: Adobe Illustrator 24.3.0, SVG Export Plug-In . SVG Version: 6.00 Build 0)  -->
<svg version="1.1" xmlns="http://www.w3.org/2000/svg" xmlns:xlink="http://www.w3.org/1999/xlink" x="0px" y="0px"
	 viewBox="0 0 103.4 95.4" style="enable-background:new 0 0 103.4 95.4;" xml:space="preserve">
<g>
	<path d="M19.9,90.4c-2.2-0.8-4.3-1.9-6.4-3.4C2.8,78.9-1,63,5.1,51.5c1.8-3.5,5-5.9,7-9.2c1.9-3.3,2.3-7.2,2.3-10.8
		c0-3.8,1-7.4,2.7-10.8C21.3,12.6,29.8,7,38.9,4.5c4.6-1.3,9.4-1.9,14.2-1.8c5.7,0.2,11.5,2.6,16.6,4.8c6.7,3,13.5,6.8,19.7,10.6
		c5.3,3.3,10.2,7.8,11.7,13.7c1.8,7-1.5,13.7-3.6,20.3c-2.2,7.1,0,13.9-1.5,21c-1.1,5.6-5.7,10.4-11.3,12.5
		c-6.7,2.5-13.3-0.5-20.1-0.2c-7.4,0.3-14.6,2.7-21.7,4.4C35.2,91.7,27.2,92.9,19.9,90.4z"/>
</g>
</svg>
