<?xml version="1.0" encoding="utf-8"?>
<!-- Generator: Adobe Illustrator 24.3.0, SVG Export Plug-In . SVG Version: 6.00 Build 0)  -->
<svg version="1.1" xmlns="http://www.w3.org/2000/svg" xmlns:xlink="http://www.w3.org/1999/xlink" x="0px" y="0px"
	 viewBox="0 0 108 102.4" style="enable-background:new 0 0 108 102.4;" xml:space="preserve">
<path d="M23.33,14.34c7.9,1.82,14.57-0.78,21.23-5.76c2.4-1.79,4.75-3.83,7.58-4.94c3.38-1.32,5.74-0.3,8.12,2.14
	c1.28,1.32,2.43,2.77,3.91,3.88c2.38,1.77,5.83,2.07,8.73,1.36c3.94-0.97,7.89-1.27,10.94,1.76c1.48,1.47,2.36,3.43,2.85,5.45
	c0.61,2.51,0.18,4.93,1.51,7.28c2.59,4.59,8.53,5.01,12.08,8.66c2.76,2.84,3.93,6.71,3.8,10.62c-0.16,4.55-1.96,9.01-4.44,13.25
	c-2.27,3.88-3.98,7.19-3.13,11.31c0.54,2.59,1.61,5.03,2.29,7.58c0.69,2.55,0.97,5.31-0.05,7.97C96,92.08,87.4,91.56,81.38,89.4
	c-3.14-1.13-6.09-2.62-9.35-3.5c-2.87-0.77-6.7,0.6-9.5,2.44c-2.75,1.8-3.95,5.23-6.03,7.52c-1.36,1.5-3,2.51-5.04,3.12
	c-2.42,0.72-5.23,0.26-7.49-0.52c-2.24-0.78-4.04-2.21-5.92-3.47c-3.83-2.56-8.05-8.98-12.72-10.63
	c-5.46-1.92-12.52-1.44-17.08-4.38c-4.1-2.64-5-7.43-3.88-11.77s2.24-7.85,4.65-11.96c2.4-4.11,4.48-8.52,3.96-12.79
	c-0.55-4.6-2.32-8.96-4.7-13.05c-1.62-2.77-2.61-6.04-2.1-9.24c0.27-1.67,1.02-3.44,2.57-4.77c1.41-1.21,3.39-1.97,5.35-2.33
	c2.7-0.49,5.89-0.62,8.39,0.05C22.76,14.21,23.05,14.28,23.33,14.34z"/>
</svg>
