<?xml version="1.0" encoding="utf-8"?>
<!-- Generator: Adobe Illustrator 24.3.0, SVG Export Plug-In . SVG Version: 6.00 Build 0)  -->
<svg version="1.1" xmlns="http://www.w3.org/2000/svg" xmlns:xlink="http://www.w3.org/1999/xlink" x="0px" y="0px"
	 viewBox="0 0 114 79.3" style="enable-background:new 0 0 114 79.3;" xml:space="preserve">
<g>
	<path d="M100.5,73.1c1.5-0.7,2.8-1.7,3.9-3.1c4-5,2.7-11.8,0-17.1c-1.2-2.5-2.8-4.9-3.2-7.7c-0.5-3.1,0.5-6.2,0.6-9.3
		c0.2-6.5-4.3-12.9-10.5-15c-6.6-2.3-13.9,0.1-20.8-1.3c-5.9-1.2-10.8-5-15.8-8.4c-5.6-3.8-12.2-7-19.1-5.7
		c-9.6,1.8-19.4,8.7-22,18.4c-2,7.2,1.1,14.9-1.6,21.9c-1.4,3.7-4.3,6.7-5.3,10.6c-1.1,4.6,1,9.5,4.4,12.7c1.7,1.6,3.7,2.8,5.9,3.8
		c3.2,1.4,6.6,2,10,2h41.4c5.8,0,11.7,0,17.5,0C90.7,74.9,96.2,75.2,100.5,73.1z"/>
</g>
</svg>
