<?xml version="1.0" encoding="utf-8"?>
<!-- Generator: Adobe Illustrator 24.3.0, SVG Export Plug-In . SVG Version: 6.00 Build 0)  -->
<svg version="1.1" xmlns="http://www.w3.org/2000/svg" xmlns:xlink="http://www.w3.org/1999/xlink" x="0px" y="0px"
	 viewBox="0 0 109 100.68" style="enable-background:new 0 0 109 100.68;" xml:space="preserve">
<path d="M101.97,68.26c-0.73-1.12-1.57-2.19-2.5-3.21c-1.88-2.07-3.44-4.12-4.09-7.03c-1.4-6.28,8.19-16.4,5.12-22.4
	c-1.84-3.59-5.65-5.45-7.54-9c-2.29-4.3-1.4-10.36-4.65-13.78c-3.44-3.61-14.84,1.83-19.33,0.69C62.9,11.98,58.59,1.44,52.51,2.15
	c-4.58,0.54-8.66,8.82-13.28,8.02c-3.48-0.61-6.4-4.6-9.85-4.2c-3.26,0.38-4.93,4.38-7.55,6.49c-2.57,2.06-5.96,2.21-9.13,2.73
	s-6.58,1.75-7.99,4.96c-1.4,3.2-0.26,7.32,1.73,10.32c1.98,3.01,4.17,5.24,6.49,7.92s4.35,6.1,4.27,9.75
	c-0.04,1.89-1.16,3.55-2.32,4.97c-1.3,1.58-2.79,3-4.01,4.65c-1.13,1.54-1.69,3.2-1.73,5.12c-0.05,2.28,1.19,4.64,2.61,6.44
	c1.41,1.78,3.34,3.03,5.13,4.39c3.64,2.77,11.27,5,14.22,8.7c3.45,4.34,4.94,10.62,9.16,13.94c3.79,2.99,8.85,2.68,12.9,0.72
	c4.04-1.96,7.26-3.74,10.72-6.78s7.31-5.85,11.74-6.37c4.77-0.56,9.64-0.01,14.42,1.15c3.24,0.78,6.8,0.91,9.87-0.26
	c1.6-0.61,3.17-1.68,4.08-3.33c0.83-1.51,1.03-3.41,0.85-5.21C104.52,73.21,103.49,70.61,101.97,68.26z"/>
</svg>
