<?xml version="1.0" encoding="utf-8"?>
<!-- Generator: Adobe Illustrator 24.3.0, SVG Export Plug-In . SVG Version: 6.00 Build 0)  -->
<svg version="1.1" xmlns="http://www.w3.org/2000/svg" xmlns:xlink="http://www.w3.org/1999/xlink" x="0px" y="0px"
	 viewBox="0 0 235 512" style="enable-background:new 0 0 235 512;" xml:space="preserve">
<path d="M124.04,9.63c-3.28-7.68-5.17-1.5-5.17,3.17v106.42c0,95.48,0,220.64,0,220.64v65.04c0,6.54-4.25,8.52-10.31,6.06
	c-15.58-6.3-36.71-5.87-57.27,2.65C17.52,427.6-1.93,458.07,7.84,481.66c9.78,23.59,45.06,31.38,78.83,17.39
	c22.64-9.37,38.82-26.17,44.08-43.33c1.92-6.26,1.85-16.98,1.86-23.53c0.02-16.24,0.02-47.17,0.02-80.47c0-6.56,0-17.19,0-23.73
	c0-30.09,0-107.04,0-107.04c0-19.02,8.48-31.46,39.05-0.89c11.5,11.5,19.83,21.46,25.9,30.85c3.56,5.49,4.32,14.38,1.97,19.24
	c-2.32,4.81-4.11,7.78-4.55,8.66c-1.64,3.38,0.1,4.04,3.3,1.68c0.51-0.37,2.35-1.84,4.9-4.84c2.46-2.91,6.06-0.56,7.55,5.83
	c1.16,5,1.96,10.15,2.51,15.59c3.16,36.66-6.32,63.65-12.81,77.64c-2.75,5.95-7.29,13.32-5.35,13.6c0.69,0.1,1.8-0.35,3.2-1.38
	c2.08-1.52,26.33-21.11,31.11-90.65c1.05-15.14-1.08-28.66-5.4-41.05c-2.15-6.18-2.78-15.99-1.15-22.35
	c2.96-11.57,5.36-25.72,6.55-43.02C235,108.48,149.39,73.9,124.04,9.63z M132.62,122.1v-7.56c0-19.03,8.48-31.47,39.05-0.89
	s38.86,50.32,41.57,77c0.87,10.06,0.77,19.34,0.05,27.86c-0.55,6.54-4.25,7.25-8.09,1.96c-19.7-27.06-47.12-50.04-66.12-77.12
	C135.32,137.98,132.62,127.3,132.62,122.1z"/>
</svg>
