<?xml version="1.0" encoding="utf-8"?>
<!-- Generator: Adobe Illustrator 24.3.0, SVG Export Plug-In . SVG Version: 6.00 Build 0)  -->
<svg version="1.1" xmlns="http://www.w3.org/2000/svg" xmlns:xlink="http://www.w3.org/1999/xlink" x="0px" y="0px"
	 viewBox="0 0 295 512" style="enable-background:new 0 0 295 512;" xml:space="preserve">
<path d="M149.27,14.64v362.92c0,8.32-5.42,10.84-13.11,7.72c-19.8-7.99-46.62-7.47-72.77,3.36c-42.91,17.77-67.62,56.47-55.2,86.44
	c12.42,29.96,57.24,39.86,100.15,22.1c28.75-11.92,49.33-33.25,55.99-55.04c2.45-7.95,2.37-21.57,2.37-29.9
	c0.03-58.63,0.03-268.35,0.03-268.35c0-24.17,10.76-39.98,49.61-1.12c38.83,38.84,49.36,63.93,52.82,97.83
	c4.02,46.58-8.01,80.86-16.26,98.64c-3.5,7.55-9.27,16.91-6.8,17.27c0.87,0.13,2.3-0.46,4.08-1.76
	c2.64-1.94,33.45-26.82,39.51-115.16C296.8,136.2,188.03,92.26,155.82,10.61C151.66,0.86,149.27,8.71,149.27,14.64z"/>
</svg>
