<?xml version="1.0" encoding="utf-8"?>
<!-- Generator: Adobe Illustrator 24.3.0, SVG Export Plug-In . SVG Version: 6.00 Build 0)  -->
<svg version="1.1" xmlns="http://www.w3.org/2000/svg" xmlns:xlink="http://www.w3.org/1999/xlink" x="0px" y="0px"
	 viewBox="0 0 441 510" style="enable-background:new 0 0 441 510;" xml:space="preserve">
<path d="M436.36,16.21c0-7.42-5.91-12.33-13.21-10.98L146.37,56.75c-7.29,1.36-13.2,8.48-13.2,15.88v317.84
	c0,7.43-4.8,9.66-11.68,6.9c-17.65-7.13-41.57-6.66-64.87,2.98C18.38,416.2-3.66,450.7,7.41,477.42
	c11.06,26.72,51.04,35.55,89.28,19.7c25.72-10.65,44.07-29.75,49.97-49.23c2.15-7.1,2.06-19.22,2.06-26.66
	c0.02-50.72,0.03-230.34,0.03-281.06c0-7.42,5.91-14.53,13.21-15.9l245.61-45.71c7.29-1.36,13.2,3.57,13.2,10.97v244.58
	c0,7.42-4.82,9.69-11.7,6.94c-17.63-7.05-41.47-6.55-64.69,3.06c-38.24,15.85-60.28,50.37-49.21,77.08
	c11.08,26.72,51.05,35.54,89.29,19.7c32.68-13.53,53.45-40.7,51.91-65V16.21H436.36z M148.75,91.85v-0.63
	c0-7.42,5.91-14.54,13.21-15.89l245.61-45.72c7.29-1.37,13.2,3.55,13.2,10.97v0.63c0,7.4-5.91,14.54-13.2,15.89l-245.61,45.72
	C154.66,104.18,148.75,99.27,148.75,91.85z"/>
</svg>
