<?xml version="1.0" encoding="utf-8"?>
<!-- Generator: Adobe Illustrator 24.3.0, SVG Export Plug-In . SVG Version: 6.00 Build 0)  -->
<svg version="1.1" xmlns="http://www.w3.org/2000/svg" xmlns:xlink="http://www.w3.org/1999/xlink" x="0px" y="0px"
	 viewBox="0 0 444 514" style="enable-background:new 0 0 444 514;" xml:space="preserve">
<path d="M438.23,17.77c0-7.44-5.91-12.35-13.22-11L147.74,58.39c-7.31,1.36-13.23,8.48-13.23,15.92v318.42
	c0,7.43-4.82,9.67-11.69,6.88c-17.69-7.14-41.65-6.67-64.99,3c-38.32,15.88-60.39,50.44-49.3,77.21s51.12,35.61,89.45,19.74
	c25.75-10.68,44.15-29.8,50.06-49.32c2.16-7.11,2.07-19.27,2.07-26.71c0.03-50.81,0.03-230.73,0.03-281.56
	c0-7.43,5.91-14.57,13.22-15.92l246.06-45.8c7.3-1.36,13.23,3.56,13.23,11v245.01c0,7.43-4.84,9.71-11.74,6.95
	c-17.65-7.07-41.56-6.56-64.8,3.08c-38.3,15.88-60.4,50.44-49.29,77.2c11.09,26.76,51.12,35.62,89.44,19.74
	c32.74-13.55,53.55-40.78,52-65.11V17.77H438.23z"/>
</svg>
