<?xml version="1.0" encoding="utf-8"?>
<!-- Generator: Adobe Illustrator 24.3.0, SVG Export Plug-In . SVG Version: 6.00 Build 0)  -->
<svg version="1.1" xmlns="http://www.w3.org/2000/svg" xmlns:xlink="http://www.w3.org/1999/xlink" x="0px" y="0px"
	 viewBox="0 0 192.43 512" style="enable-background:new 0 0 192.43 512;" xml:space="preserve">
<path d="M114.9,213.49c-5.08,0.63-9.9-2.44-10.85-7.47l-3.8-19.87c-0.96-5.03,1.09-12.16,4.44-16.01
	c19.13-21.99,36.11-47.02,42.72-59.88c8.32-16.21,16.11-37.39,12.3-67.71c-4.46-35.35-35.43-47.69-62.23-25.3
	c-26.81,22.39-28.86,61.7-24.51,84.39c2.39,12.51,6.43,33.04,8.76,44.83c0.99,5.02-1.67,11.37-5.78,14.44
	c-15.25,11.38-49.59,40.24-65.42,79.67c-18.82,46.87-1.64,87.69,32.36,113.64c14.59,11.14,42.33,17.67,71.38,11.33
	c5-1.09,9.73,1.71,10.69,6.74l14.9,77.92c3.36,17.57-8.03,34.96-25.59,38.32c-5.91,1.13-11.62-2.75-12.75-8.65
	c-0.9-4.75,1.42-9.34,5.43-11.57c1.17-0.7,2.11-1.35,3-2.07c7.63-6.02,11.73-15.99,9.78-26.2c-2.16-11.28-11.08-19.56-21.75-21.46
	c-3.15-0.56-6.44-0.56-9.76,0.06c-3.82,0.73-7.29,2.24-10.29,4.32c-1.37,1.02-2.67,2.14-3.92,3.3
	c-11.08,10.47-16.78,26.18-13.7,42.26c4.79,25.02,28.96,41.43,53.98,36.65c25.03-4.79,41.43-28.96,36.64-53.98l-15.79-82.61
	c-0.96-5.03,2.09-10.7,6.62-13.09c5.94-3.15,11.77-6.96,17.4-11.54c41.37-33.69,33.62-78.43,17.7-101.96
	C162.79,221.22,142.01,210.09,114.9,213.49z M142.92,84.01c-6.05,25.99-26.24,45.67-42.77,58.93c-3.99,3.21-8.11,1.6-9.04-3.43
	c-2.83-15.35-4.2-25.72-4.38-45.03c-0.21-23.33,8.58-46.8,29.08-50.72C136.33,39.84,148.18,61.34,142.92,84.01z M82.93,193.07
	c3.51-3.72,7.27-2.54,8.23,2.48l2.64,13.82c0.96,5.03-2.12,10.71-6.33,13.63c-18.55,12.85-24.5,36.24-21.55,51.61
	c0,0,3.27,17.17,12.35-3.43c2.86-6.48,8.43-11.67,15.25-15.6c4.43-2.56,9.13,0.09,10.1,5.11l15.41,80.66
	c0.97,5.03-2.36,9.92-7.47,9.77c-21.92-0.71-52.57-16.13-65.95-53.51C31.52,258.28,59.12,218.29,82.93,193.07z M139.52,343.66
	c-4.51,2.42-9.2-0.24-10.17-5.27l-15.47-80.89c-0.96-5.02,2.29-10.13,7.37-10.75c7.34-0.91,14.17-0.7,19.15,0.59
	c16.5,4.3,35.11,23.84,31.28,52.47C168.95,320.32,155.08,335.29,139.52,343.66z"/>
</svg>
