<?xml version="1.0" encoding="utf-8"?>
<!-- Generator: Adobe Illustrator 24.3.0, SVG Export Plug-In . SVG Version: 6.00 Build 0)  -->
<svg version="1.1" xmlns="http://www.w3.org/2000/svg" xmlns:xlink="http://www.w3.org/1999/xlink" x="0px" y="0px"
	 viewBox="0 0 554 515" style="enable-background:new 0 0 554 515;" xml:space="preserve">
<g>
	<path d="M148.51,7.49C69.17,7.49,6.39,71.44,6.39,149.61c0,159.38,160.05,201.07,268.99,357.36c0.24,0.34,0.61,0.53,1.03,0.53
		c0.41-0.01,0.79-0.21,1.01-0.55c104.29-155.14,270.2-203.87,270.2-357.34C547.62,71.44,483.67,7.49,405.51,7.49
		c-55.91,0-104.95,32.08-127.96,79.34c-0.21,0.43-0.65,0.71-1.13,0.71s-0.92-0.28-1.13-0.71C252.32,39.57,204.42,7.49,148.51,7.49z"
		/>
</g>
</svg>
