<?xml version="1.0" encoding="utf-8"?>
<!-- Generator: Adobe Illustrator 24.3.0, SVG Export Plug-In . SVG Version: 6.00 Build 0)  -->
<svg version="1.1" xmlns="http://www.w3.org/2000/svg" xmlns:xlink="http://www.w3.org/1999/xlink" x="0px" y="0px"
	 viewBox="0 0 540 516" style="enable-background:new 0 0 540 516;" xml:space="preserve">
<g>
	<path d="M413.88,334.35c-3.5,5.23-5.14,12.14-12.6,13.83c-0.76,0.17-1.51,0.87-2.03,1.51c-8.67,10.92-17.11,22.03-26.01,32.76
		c-5.92,7.14-12.82,13.49-18.69,20.67c-7.8,9.53-15.17,19.43-22.44,29.38c-2.94,4.02-5.39,7-8.75,12.88
		c-4.19,7.36-8.33,12.6-13.25,25.14c-5.02,13.16-5.96,17.71-10.47,29.93c-4.92,13.34-9.69,9-21.24,1.07
		c-20.75-14.25-50.33-39.26-102.23-83.48C89.43,344.12,17.45,261.85,7.7,167.8C-1.95,74.67,80.14,0.85,167.04,30.71
		c20.84,7.16,40.44,18.07,58.01,31.34c4.98,3.77,55.29,48.11,58.35,44.22c18.58-23.63,41.07-44.14,65.95-61.9
		c28.84-20.58,66.07-38.45,102.27-37.32c97.64,3.06,93.59,148.32,59.65,211.25c-3.82,7.08-13.35,6.73-14.4,15.35
		c-0.5,4.14-2.36,8.13-1.98,12.98c-2.54,2.1-6.32,3.7-7.42,6.38c-4.7,11.47-14.64,19.23-20.27,29.98
		c-7.19,13.76-16.75,25.78-27.45,37.03c-5.48,5.77-10.15,12.34-16.52,20.21c-1.55-11.62,8.07-15.04,10.83-22.17
		c2.74-7.06,8.96-12.78,13.14-19.54c-12.9,8.02-24.09,17.6-30.14,32.13c-0.62,1.5-2.23,2.58-3.46,3.92c-7.41-2.22,5.33-8.59-3-10.94
		c-2.64,4.05-5.43,8.32-9.66,14.8C406.89,336.56,410.38,335.45,413.88,334.35z M470.13,215.17c-5.98,14.95-10.63,21.3-18.35,36.37
		c15.85-10.69,30.86-30.16,42.97-56.86c2.29-5.06,10.16-26.08,11.07-31.53c6.13-29.85,5.48-46.47,2.7-66.75
		c-2.18-14.55-8.77-27.74-22.03-37.17c7.44,14.87,9.15,34.99,8.96,52.64c-0.09,8.7-0.28,20.36-1.53,28.96
		c-2.57,17.69-5.75,27.41-9.79,38.95C479.86,191.97,477.49,199.05,470.13,215.17L470.13,215.17z M356.08,311.25
		c10.37-8.08,10.89-9.23,6.83-17.07c-2.44,6.12-4.62,11.59-6.79,17.07c0.17,1.95,1.03,4.16,0.4,5.8
		c-4.75,12.49-9.8,24.87-15.06,38.05c8.81-3.62,18.92-15.39,16.45-21.19c-2.12-5,0.17-5.85,2.43-8.02
		c4.46-4.29,8.02-8.82,4.59-15.75C361.8,310.53,358.93,310.89,356.08,311.25z M71.15,177.2c7.84-4.27,8.72-11.97,10.7-20.88
		c-3.1,0.73-6.3,0.81-6.51,1.64c-1.62,6.36-2.65,12.88-3.87,19.35c-11.74,1.66-15.14,11.8-18.79,20.34
		c-3.45,8.07,6.72,10.91,9.76,17.28c4.94-11.47,8.86-22.84,12.43-34.32C75.09,179.93,72.46,178.36,71.15,177.2z M342.03,389.32
		c2.75-0.62,5.5-1.24,8.25-1.87l-0.27-0.26c-2.91,5.22-5.83,10.44-8.75,15.66c9.6-7.04,17.67-15.02,24.75-23.81
		c9.88-12.25,19.39-24.85,28.33-37.8c3.76-5.45,5.66-12.18,8.36-18.38c1.91-3.26,3.83-6.52,5.73-9.78
		c-6.79,2.29-6.79,2.29-5.42,10.11c-8.04,4.51-16.14,8.9-24.05,13.62c-2.05,1.22-3.72,3.32-5.16,5.31
		c-6.41,8.92-12.82,17.85-18.93,26.97c-4.45,6.65-8.42,13.62-12.61,20.46c-8.23,2.47-14.06,7.57-18.15,15.2
		c-3.94,7.34-12.29,13.01-8.37,24.05c2.09-0.89,4.37-1.12,4.87-2.2c5.76-12.08,10.97-24.45,21.36-33.61
		C342.62,392.47,342.05,390.58,342.03,389.32z M43.43,133.42c18.61-25.64,36.16-49.8,53.71-73.97c-0.83-0.74-1.66-1.47-2.49-2.21
		c-13.6,11.34-27.21,22.68-40.77,34.07c-0.58,0.49-0.76,1.5-1.03,2.3c-3.54,10.38-7.22,20.71-10.44,31.18
		C41.77,126.86,42.91,129.48,43.43,133.42z M110.95,181.45c-4.28-3.56-6.79-2.26-8.68,1.51c-2.67,5.32-4.82,10.98-8.1,15.89
		c-7.04,10.55-14.66,20.7-22.54,31.72c2.19,3.52,4.29,6.92,7.61,12.27c2.94-4.3,5.44-6.63,6.29-9.46c2.29-7.57,2.75-15.88,6.06-22.9
		c3.52-7.46,9.53-13.72,14.32-20.6C107.8,187.2,109.31,184.24,110.95,181.45z M352.3,67.04c6.51,4.92,10.43,9.48,15.72,4.61
		c10.67-9.83,20.98-20.05,31.43-30.12c-0.57-0.73-1.14-1.46-1.71-2.18C383.08,48.27,368.43,57.21,352.3,67.04z M275.45,326.11
		c12.71-5.22,31.42-35.2,32.43-49.3C291.65,289.36,285.49,307.54,275.45,326.11z M274.52,331.16
		c-16.66,12.55-21.28,21.07-20.62,36.09C261.93,355.42,269.97,344.35,274.52,331.16z M339.07,285.97
		c-15.9,9.94-20.65,16.61-20.52,26.74c0.82-0.05,2.1,0.22,2.39-0.2C327.05,303.72,333.05,294.83,339.07,285.97z M328.08,357.79
		c5.16-5.56,6.08-10.19,4.94-16.27c-0.88-4.75,8.09-7.23,5.25-14.28C326.96,334.46,326.45,344.74,328.08,357.79z M317.48,388.09
		c16.58-8.71,18.32-10.9,17.04-21.57C326.92,372.21,318.67,377.18,317.48,388.09z M262.72,244.95c-1.1-0.6-2.2-1.22-3.31-1.82
		c-6.54,9.72-13.08,19.43-19.61,29.15c0.67,0.45,1.35,0.89,2.02,1.34C248.79,264.05,255.75,254.5,262.72,244.95z M321.58,94.27
		c-0.78-0.65-1.56-1.31-2.35-1.96c-3.68,3.16-9,5.08-8.23,14.2C315.38,101.43,318.48,97.85,321.58,94.27z M53,165.65
		c0.92,0.64,1.83,1.29,2.76,1.93c2.64-3.85,5.28-7.69,7.92-11.53c-0.75-0.53-1.51-1.05-2.26-1.57
		C58.61,158.21,55.81,161.93,53,165.65z M292.05,412.92c10.83-4.77,10.78-4.82,10.2-14.86
		C298.76,403.14,296.23,406.83,292.05,412.92z M299.65,343.73c-0.76-0.74-1.51-1.47-2.27-2.21c-2.52,3.37-5.05,6.75-7.57,10.12
		c0.68,0.51,1.35,1.01,2.03,1.52C294.45,350.01,297.05,346.87,299.65,343.73z M279.27,226.53c-8.54-0.47-10.22,3.74-11.26,9.01
		C271.36,232.86,274.53,230.32,279.27,226.53z M306.39,325.31c6.63-2.04,9.28-5.78,6.18-8.75
		C310.64,319.29,308.77,321.94,306.39,325.31z M50.56,190.91c1.17-2.7,2.34-5.39,4-9.19C47.01,182.58,49.42,187.16,50.56,190.91z
		 M440.87,281.62c0.69,0.24,1.39,0.49,2.08,0.72c0.66-1.87,1.33-3.75,2-5.62c-0.77-0.14-2.14-0.54-2.21-0.37
		C441.99,278.05,441.46,279.85,440.87,281.62z"/>
</g>
</svg>
