<?xml version="1.0" encoding="utf-8"?>
<!-- Generator: Adobe Illustrator 24.3.0, SVG Export Plug-In . SVG Version: 6.00 Build 0)  -->
<svg version="1.1" xmlns="http://www.w3.org/2000/svg" xmlns:xlink="http://www.w3.org/1999/xlink" x="0px" y="0px"
	 viewBox="0 0 514 505" style="enable-background:new 0 0 514 505;" xml:space="preserve">
<g>
	<path d="M161.69,42.64c-2.96,8.39-5.93,16.78-8.76,24.8c5.96-4.4,12.19-9,18.41-13.59c1.49,1.36,2.98,2.72,4.47,4.08
		c-3.11,5.64-5.89,11.48-9.38,16.88c-26.24,40.56-52.76,80.94-78.81,121.63c-5.03,7.86-10.41,16.7-11.93,31.55
		c-1.1,10.79-5.88,23-15.93,24.42c-12.7-13.62-18.32-26.73-3.61-56.73C44.73,202.07,38,205.83,31.26,209.6
		c-1.45-0.94-2.9-1.88-4.34-2.82c3.58-11.18,7.16-22.37,11.07-34.59c-4.45-1.89-8.97-3.8-14.85-6.29
		c5.54-11.59,10.85-22.67,16.77-35.03c-15.16-2.14-12.41,28.92-33.18,15.66c6.66-12.11,12.99-23.61,20.08-36.49
		c-11.18-8.61-9.34-18.34-2.55-29.46C32.64,66.88,38.92,51.9,47.2,38.12c5.8-9.65,13.52-18.01,26.59-8.21
		c6.62-7.23,12.58-13.75,19.91-21.75c14.44,5.99,29.06,12.06,45.36,18.82c-5.82,25.81-27.09,42.53-40.04,64.15
		c-12.58,21.03-25.72,41.74-38.62,62.59c1.73,1.16,3.46,2.33,5.19,3.49c29.43-39.25,58.85-78.5,88.27-117.76
		C156.48,40.51,159.09,41.58,161.69,42.64z M139.85,90.16c-1.28-1.01-2.57-2.02-3.85-3.03c-5.91,7.13-11.82,14.26-17.74,21.39
		c1.6,1.27,3.2,2.54,4.8,3.82C128.66,104.95,134.25,97.56,139.85,90.16z M57.43,104.21c-1.53-1.25-3.07-2.5-4.6-3.75
		c-1.89,3.54-3.77,7.08-5.66,10.63c1.11,0.7,2.23,1.4,3.34,2.1C52.82,110.19,55.12,107.2,57.43,104.21z"/>
	<path d="M434.26,85.31c4.43-1.49,8.86-2.98,16.63-5.59c-3.78,10.63-6.33,17.82-8.88,25l0.57-0.73
		c-4.79,6.76-9.58,13.51-14.37,20.27c-4.38,7.81-8.75,15.62-13.13,23.43c-19.56,14.69-49.91,57.1-53.44,76.95
		c10.39-13.08,19.31-27.23,29.35-40.52c5.6-7.41,13.06-13.42,19.68-20.06l-0.51-0.37c-8.28,14.58-15.75,29.69-24.99,43.63
		c-29.73,44.8-60.14,89.14-90.19,133.72c-2.35,3.49-4.03,7.44-6.03,11.17c1.45,0.98,2.9,1.96,4.36,2.94
		c68.18-95.74,136.36-191.46,205.12-288.02c9.55,9.07,2.46,14.89-1.08,19.76c-26.86,36.98-54.65,73.29-81.19,110.49
		c-28.06,39.32-55.18,79.33-82.39,119.25c-3.4,5-4.76,11.36-7.22,17.02c-5.3,12.2-9.78,24.86-16.25,36.41
		c-16.59,29.61-34.01,58.76-51.31,87.96c-2.19,3.7-5.59,6.67-8.18,9.7c-30.02-11.77-37.58-28.23-22.39-54.04
		c27.71-47.09,57.3-93.06,85.51-139.86c4.74-7.86,6.52-17.51,9.67-26.32c6.11-9.88,11.48-20.32,18.48-29.53
		c18.84-24.8,39.31-48.41,57.34-73.77c13.36-18.81,23.9-39.62,35.69-59.53L434.26,85.31z M262.81,394.96
		c1.61,0.97,3.22,1.93,4.83,2.9c4.2-7.25,8.4-14.5,12.6-21.75c-1.48-0.83-2.97-1.66-4.45-2.49
		C271.47,380.73,267.14,387.83,262.81,394.96z"/>
	<path d="M500.91,122c-26.04,49.54-62.78,92.88-88.02,143c32.46-39.12,61.23-80.99,93.47-120.3c5.47,22.38-15.16,30.82-21.1,49.3
		c1.57,3.27,4.06,8.48,5.35,11.16c-38.39,57.81-75.49,113.76-112.7,169.64c-7.95,11.94-16.21,23.68-24.43,35.43
		c-2.57,3.67-4.71,8.77-8.33,10.4c-30.63,13.84-40.68,45.47-60.49,68.6c-2.62,3.05-6.88,4.7-11.32,7.61
		c-7.43-8.58-4.72-16.22-1-23.11c17.01-31.49,33.08-63.59,51.95-93.93c30.26-48.67,62.82-95.9,93.74-144.17
		c22.09-34.48,43.01-69.7,64.65-104.48c3.02-4.86,7.14-9.04,10.76-13.53C495.94,119.08,498.42,120.54,500.91,122z M413.11,300.23
		c-1.63-1.1-3.26-2.2-4.89-3.3c-11.69,17.03-26.76,32.02-28.5,55.17C390.85,334.82,401.98,317.52,413.11,300.23z M350.07,388.51
		c1.45,0.88,2.89,1.75,4.33,2.62c4.5-6.81,9-13.62,13.5-20.43c-1.72-1.06-3.44-2.12-5.15-3.18
		C358.52,374.52,354.3,381.52,350.07,388.51z M387.57,295.08c1.21,1.04,2.42,2.09,3.63,3.13c3.43-4.8,6.86-9.6,10.29-14.4
		c-1.01-0.69-2.02-1.39-3.03-2.08C394.83,286.18,391.2,290.64,387.57,295.08z"/>
	<path d="M292.79,281.71c-1.63,0.65-4.09,0.83-4.75,2.02c-26.27,47.36-52.2,94.91-78.72,142.13c-3.89,6.92-10.53,12.3-15.89,18.39
		c-2.18-1.29-4.36-2.58-6.55-3.86c3.52-10.29,7.04-20.57,11.19-32.66c-2.69-3.51-6.18-8.07-9.61-12.55
		c1.32-3.22,2.09-5.77,3.35-8.06c25.8-46.79,51.66-93.54,77.51-140.31c2.47-0.1,4.93-0.19,7.4-0.29c-1.15,5.08-2.3,10.15-4.89,21.56
		c25.99-26.69,44.3-52.98,64.47-77.51c20.29-24.66,39.54-50.21,58.61-75.83c19.32-25.96,37.87-52.49,58.66-81.43
		c8.25,15.76-3.39,20.79-7.02,28.31c-3.86,8-8.17,15.79-12.28,23.68l0.87-0.63c-2.74,2.07-6.08,3.68-8.15,6.29
		c-38.07,47.91-77.05,95.17-113.24,144.46C304.21,248.41,287.24,260.8,292.79,281.71z"/>
	<path d="M253.23,98.13c-3.37-0.21-5.27,2.17-7.56,5.23c-7.69,10.22-14.82,20.84-22.47,31.09c-7.61,10.19-15.83,20.03-25.59,28.26
		c4.8-11.94,11.88-22.11,18.76-32.39c8.24-12.29,16.68-24.48,24.43-37.07c1.05-1.71,0.84-3.94-0.5-5.44
		c-1.79-1.99-3.64-3.73-6.1-5.23c-0.14-0.08-0.23-0.21-0.37-0.29c-21.97,28.8-41.35,54.19-60.65,79.58
		c-1.61,2.12-4.48,5.71-3.83,6.75c9.42,14.83-4.71,22.08-10.12,31.86c-7.36,13.31-16.15,25.84-23.23,39.28
		c-7.91,15.01-21.21,31.19-20.07,45.91c1.34,17.27-6.95,30.44-7.85,45.8c-0.09,1.44,1.49,2.97,4.24,8.04
		c5.77-6.17,11.77-10.83,15.43-16.9c6.92-11.47,13.29-23.41,18.52-35.74c24.76-58.36,59.18-110.8,97.36-161.02
		c4.15-5.46,8.5-10.79,12.41-16.43c1.52-2.18,4.72-5.25,3.18-8.01C258.13,99.42,255.43,98.27,253.23,98.13z"/>
	<path d="M217.98,70.11c8.47,11.65-0.29,17.94-4.94,24.49c-16.08,22.67-32.35,45.23-49.11,67.4c-12.16,16.08-19.13,35.26-33.26,50.5
		c-7.53,8.11-12.31,24.62-18.1,38.43c-8.53,20.66-12.92,33.58-24.33,45.53c-3.69,2.58-4.69,1.73-7.46,1.07
		c-3.22-32.87,3.41-62.2,22.25-89.78c11.12-16.28,23.18-32.63,24.99-54.84c0.87-10.7,13.24-20.7,20.96-30.57
		c15.79-20.19,31.96-40.09,49.65-62.19c8.82,15.3-2.24,21.97-7.34,29.83c-5.79,8.93-12.57,17.22-17.57,27.04
		C196.09,109.49,198.25,81.68,217.98,70.11z"/>
	<path d="M155.18,353.12c7.08-28.91,22.77-53.79,38.67-78.45c29.11-45.15,60.49-88.93,87.39-135.34c21.74-37.5,40.74-61.13,65.98-99
		c2.56-3.84,5.3-7.56,8.22-11.14c4.73-5.79,8.97-10.52,13.09-14.26c4.32,15.89-4.46,24.55-10.65,33.39
		c-28.72,41.07-58.4,81.48-86.74,122.81c-9.97,14.54-17.02,31.06-25.5,46.63c-3.83,7.03-7.32,14.33-11.93,20.83
		c-24.37,34.29-49.15,68.26-64.08,108.19c-1.53,4.09-6.61,6.85-10.04,10.23C158.12,355.74,156.65,354.43,155.18,353.12z"/>
	<path d="M126.86,358.42C143.9,292.58,284.67,72,315.33,58.99c-2.92,6.58-4.16,11.39-6.88,15.14
		c-18.86,26.12-41.74,50.11-56.31,78.4c-29.1,56.49-72.69,103.77-99.22,161.58c-5.22,11.38-10.97,23.21-16.71,34.32
		c-2.11,4.08-3.13,5.69-6.96,11.18C128.41,360.8,126.49,359.83,126.86,358.42z"/>
	<path d="M276.71,246.53c-2.47,0.1-4.94,0.19-7.4,0.29c-6.51,5.96-13.02,11.93-19.52,17.89c5.6-20.69,23.11-32.9,35.13-48.97
		c12.3-16.44,26.09-31.75,38.95-47.78c13.44-16.74,26.78-33.57,39.75-50.67c12.45-16.4,19.08-27.47,33.94-48.3
		c15.18-20.77,23.97-35.68,41.15-48.52c-1.6,6.81-1.92,10.97-5.21,15.57c-18.72,26.21-37.81,52.17-56.82,78.19
		c-26.96,36.9-53.84,73.86-81.02,110.59C289.97,232.52,283.06,239.32,276.71,246.53z"/>
	<path d="M292.79,281.71c-5.55-20.92,11.42-33.31,20.95-46.29c36.19-49.3,75.16-96.55,113.24-144.46c2.07-2.61,5.41-4.21,8.15-6.29
		c-11.79,19.92-22.33,40.73-35.69,59.53c-18.02,25.36-38.49,48.97-57.34,73.77c-7,9.21-12.37,19.65-18.48,29.53
		C313.34,258.93,303.07,270.33,292.79,281.71z"/>
	<path d="M257.66,224.01c-9.1,16.28-20.11,31.85-26.57,49.12c-3.73,10,0.45,22.2-8.5,32.26c-8.21,9.25-14.28,20.55-20.45,31.43
		c-6.61,11.66-12.56,23.75-18.21,35.91c-3.97,8.53-8.57,15.17-21.27,14.2c0.8-5.38,0.26-10.16,2.2-13.5
		c26.93-46.41,54.09-92.69,81.59-138.76c2.51-4.2,7.76-6.76,11.73-10.08L257.66,224.01z"/>
	<path d="M258.19,224.6c9.98-26.7,24.19-50.03,43.39-71.97c29.94-34.22,55.38-72.36,82.76-108.81c3.92-5.22,8.05-10.28,12.95-16.52
		c6.96,13.24-1.42,19.46-6.41,26.07c-28.56,37.87-57.3,75.6-86.39,113.06c-15.17,19.53-31.19,38.4-46.83,57.58L258.19,224.6z"/>
	<path d="M442.01,104.72c13.44-18.42,26.88-36.84,43.15-59.13c-0.11,7.72,1.18,12.12-0.42,14.71
		c-9.89,15.99-20.01,31.88-30.96,47.14c-5.15,7.17-8.67,1.76-11.14-3.52C442.57,103.99,442.01,104.72,442.01,104.72z"/>
	<path d="M415.09,147.69c4.38-7.81,8.75-15.62,13.13-23.43c4.39-1.95,8.77-3.89,13.16-5.83c1.2,1.45,2.4,2.91,3.59,4.36
		c-11.59,13.64-23.19,27.27-34.79,40.91l0.51,0.37C412.15,158.6,413.62,153.15,415.09,147.69z"/>
	<path d="M379.13,277.07c-4.34,5.23-8.68,10.46-13.02,15.7c-0.77-0.55-1.54-1.11-2.32-1.66c4.12-5.83,8.24-11.66,12.36-17.49
		C377.14,274.77,378.14,275.9,379.13,277.07z"/>
	<path d="M139.85,90.16c-5.59,7.39-11.19,14.79-16.78,22.18c-1.6-1.27-3.2-2.54-4.8-3.82c5.91-7.13,11.82-14.26,17.74-21.39
		C137.28,88.15,138.57,89.16,139.85,90.16z"/>
	<path d="M57.43,104.21c-2.3,2.99-4.61,5.98-6.91,8.97c-1.11-0.7-2.23-1.4-3.34-2.1c1.89-3.54,3.77-7.08,5.66-10.63
		C54.36,101.71,55.9,102.96,57.43,104.21z"/>
	<path d="M415.09,147.69c-1.47,5.46-2.94,10.91-4.41,16.37c-6.62,6.64-14.08,12.65-19.68,20.06c-10.04,13.3-18.96,27.44-29.35,40.52
		C365.18,204.79,395.53,162.38,415.09,147.69z"/>
	<path d="M262.81,394.96c4.33-7.11,8.66-14.23,12.98-21.34c1.48,0.83,2.97,1.66,4.45,2.49c-4.2,7.25-8.4,14.5-12.6,21.75
		C266.03,396.89,264.42,395.92,262.81,394.96z"/>
	<path d="M413.11,300.23c-11.13,17.29-22.26,34.58-33.39,51.87c1.74-23.16,16.82-38.14,28.5-55.17
		C409.85,298.02,411.48,299.12,413.11,300.23z"/>
	<path d="M350.07,388.51c4.22-7,8.45-14,12.68-20.99c1.72,1.06,3.44,2.12,5.15,3.18c-4.5,6.81-9,13.62-13.5,20.43
		C352.96,390.26,351.52,389.39,350.07,388.51z"/>
	<path d="M387.57,295.08c3.63-4.45,7.26-8.89,10.89-13.34c1.01,0.69,2.02,1.39,3.03,2.08c-3.43,4.8-6.86,9.6-10.29,14.4
		C389.99,297.17,388.78,296.12,387.57,295.08z"/>
</g>
</svg>
