<?xml version="1.0" encoding="utf-8"?>
<!-- Generator: Adobe Illustrator 24.3.0, SVG Export Plug-In . SVG Version: 6.00 Build 0)  -->
<svg version="1.1" xmlns="http://www.w3.org/2000/svg" xmlns:xlink="http://www.w3.org/1999/xlink" x="0px" y="0px"
	 viewBox="0 0 515 461" style="enable-background:new 0 0 515 461;" xml:space="preserve">
<path d="M495.4,206.34c-16.93,42.35-190.7,202.65-236.69,246.16c-0.21-0.37-0.72-0.57-1.22-0.57s-1,0.19-1.22,0.57
	c-46-43.51-219.76-203.82-236.69-246.16C7.04,174.93-4.13,123.72,29.55,72.42C57.94,29.2,113.11,3.44,161.79,9.34
	c56.48,6.87,80.02,36.39,95.71,57.68c15.68-21.29,39.23-50.81,95.71-57.68c48.68-5.9,103.84,19.85,132.24,63.08
	C519.12,123.71,507.96,174.93,495.4,206.34z"/>
</svg>
