<?xml version="1.0" encoding="utf-8"?>
<!-- Generator: Adobe Illustrator 24.3.0, SVG Export Plug-In . SVG Version: 6.00 Build 0)  -->
<svg version="1.1" xmlns="http://www.w3.org/2000/svg" xmlns:xlink="http://www.w3.org/1999/xlink" x="0px" y="0px"
	 viewBox="0 0 513 467.78" style="enable-background:new 0 0 513 467.78;" xml:space="preserve">
<g>
	<path d="M327.94,24.53c6.5,0.14,6.34,10.9,5.22,15.69c-3.17,13.57-6.77,27.04-10.35,40.5c-1.21,4.57-2.69,9.06-4.25,14.01
		c-0.58,1.85,1.76,3.17,2.87,1.61c0.74-1.04,1.01-2.37,1.49-3.41c7.32-15.69,14.9-32.78,22.71-48.81
		c4.13-8.48,7.64-17.34,12.5-25.41c3.97-6.59,10.7-18.7,15.2-5.91c3.52,10.02-3.41,25.09-6.13,34.63
		c-11.7,41.05-28.89,80.03-41.97,120.56c-12.75,39.53-26.84,78.55-41.08,117.51c-14.6,39.92-29.01,78.41-39.74,119.7
		c-1.07,4.11-2.67,8.83-6.54,10.12c-3.92,1.3-8.14-2.01-9.55-6.07c-1.41-4.06-0.77-8.55-0.06-12.8
		c7.45-44.32,23.24-85.38,36.58-127.7c14.96-47.45,29.87-94.92,44.8-142.38c-14.8,34.22-36.87,89.19-49.5,124.36
		c-13.23,36.86-18.37,50.77-29.68,83.67c-8.6,25.01-15.37,44.78-26.79,68.65c-1.26,2.62-4.11,7.92-7.14,8.75
		c-2.6,0.71-4.6-4.65-4.6-6.35c-0.05-15.64,3.77-29.96,7.49-45.05c6.35-25.83,15.26-45.84,21.91-71.59
		c9.83-38.08,23.84-81.51,36.67-118.49c9-25.96,19.96-51.22,31.1-76.28C295.15,80.42,302,67.21,308.83,54
		c3.04-5.88,10.1-27.46,17.18-29.22C326.7,24.59,327.34,24.51,327.94,24.53z"/>
	<path d="M140.56,15.4c8.26-4.57,3.89,14.68,3.2,17.81c-4.97,22.4-17.12,42.38-25.83,63.25c-5.93,14.22-11.07,28.81-16.03,43.52
		c-0.51,1.5,1.38,2.6,2.31,1.35c3.06-4.09,4.79-9.05,6.55-13.77c9.2-24.68,21.88-47.37,34.76-70c4.92-8.65,9.18-17.73,14.28-26.26
		c3.04-5.08,6.99-9.55,10.6-14.25c0.37-0.49,1.02-0.67,1.57-0.41c17.68,8.4,9.6,30.42,3.11,44.09
		c-26.56,55.96-49.28,114.84-70.24,173.75c-6.01,16.16-9.99,38.71-20.88,51.85c-11.69,14.08-14.24-11.95-14.33-19.81
		c-0.25-21.44,4.84-46.25,12.43-66c0.01-0.03,0.02-0.05,0.03-0.08c0.62-1.62-1.57-2.73-2.41-1.22
		c-9.78,17.7-12.72,41.02-24.61,57.08c-7.67,10.37-13.58-5.41-14-13.3c-1.17-22.37,9.62-44.94,17.08-65.3
		c10.71-29.23,24.11-57.09,37.83-84.83c7.74-15.65,16.07-31.16,23-47.22c3.31-7.66,6.89-15.4,12.17-21.81
		C133.09,21.47,137.11,17.32,140.56,15.4z"/>
	<path d="M455.82,14.92c2.27-0.76,3.87,1.62,3.59,10.26c-0.96,30.65-16.12,59.61-26.63,87.8
		c-34.69,92.99-72.48,186.39-111.21,278.22c-3.82,9.05-29.64,87.59-44.18,70.53c-5.54-6.5,2.34-22.48,4.51-29
		c42.93-129.23,95.85-256.15,151.51-379.82c3.67-8.17,7.73-16.13,11.8-24.09C447.73,23.89,452.5,16.04,455.82,14.92z"/>
	<path d="M414.49,3.64c3.22,0.27,3.06,15.03,3.07,16.61c0.07,6.5-1.82,16.88-3.31,23.2c-1.51,6.44-4.21,12.43-6.1,18.74
		c-4.26,14.19-8.65,28.34-13.77,42.22c-5.77,15.68-12,31.16-17.94,46.77c-12.09,31.76-24.46,63.4-37.01,94.95
		c-12.55,31.56-25.28,63.02-38.12,94.45c-6.95,17.02-13.82,34.08-20.66,51.15c-3.46,8.65-11.62,29.21-14.93,37.92
		c-1.55,4.07-6.4,14.08-10.89,10.59c-4.27-3.34-6.29-9-6.5-13.87c-0.22-5.35,6.14-26.81,7.77-31.92
		c27.16-85.8,64.32-167.71,98.09-250.75c17.98-44.21,35.8-88.49,53.56-132.82C409.16,7.34,410.97,3.34,414.49,3.64z"/>
	<path d="M488.18,48.43c8.61,15.97-1.84,45.13-6.15,60.63c-13.7,49.33-34.29,96.18-56.28,141.94
		c-10.92,22.72-22.25,45.22-33.42,67.8c-10.1,20.43-31.14,80.11-46.93,96.55c-9.69,10.09-7.64-6.97-4.59-16.97
		c5.15-16.88,24.26-69.5,30.78-85.98c31.92-80.65,66.15-160.27,100.43-239.82c3.52-8.17,8.11-18.73,14.59-24.63
		C487.23,47.41,487.74,47.64,488.18,48.43z"/>
	<path d="M169.53,377.85c-1.86-0.84-3.45-3.37-4.59-7c-2.91-9.22-2.09-19.65-0.82-29.06c2.7-20.03,11.34-38.65,17.57-57.61
		c6.5-19.81,12.92-39.67,19.74-59.36c13.64-39.38,28.74-78.34,47.87-115.16c5.04-9.69,10.6-19.1,16.13-28.49
		c2.07-3.51,4.4-7.08,9.21-7.65c3.58,3.87,3.11,8.32,2.01,12.78c-8.88,36.19-22.21,70.9-34.41,105.94
		c-12.24,35.17-25.08,70.06-38.43,104.8c-6.36,16.57-12.09,36.99-18.06,53.71c-3.08,8.62-4.41,14.5-9.06,22.48
		C174.14,377.57,171.66,378.83,169.53,377.85z"/>
	<path d="M236.29,65.15c12.05,8.61,11.68,9.18,9.04,21.8c-6.55,31.32-21.96,59.89-33.69,89.24c-4.49,11.25-9.54,22.24-14.33,33.34
		c-10.09,23.39-19.34,47.18-28.32,71.06c-4.56,12.12-9.04,24.26-13.53,36.4c-2.23,6.03-5.52,24.97-14.28,23.56
		c-4.37-0.7-6.14-5.08-6.12-8.79c0.07-11.9,0.14-24.38,2.31-36.07c2.24-12.1,6.25-24.18,9.92-35.88
		c8.79-28.08,20.36-54.57,32.62-81.11c10.92-23.7,21.6-47.53,32.99-70.97c6.32-13,13.89-25.34,20.9-37.99
		C234.57,68.37,235.32,66.96,236.29,65.15z"/>
	<path d="M203.19,37.87c11.86,6.9,14.03,12.08,10.3,24.53c-6.56,21.85-13.08,44.26-21.82,65.21c-12.17,29.19-24.3,58.41-35.94,87.84
		c-11.42,28.91-20.94,59.01-34.9,86.73c-2.76,5.47-5.82,14.77-11.84,16.95c-4.06,1.47-4.06-5.64-3.72-8.51
		c0.46-3.9,0.95-7.79,1.54-11.67c1.18-7.84,2.66-15.63,4.41-23.35c3.5-15.42,8.09-30.56,13.53-45.35c1.75-4.75,3.59-9.46,5.5-14.14
		c14.32-34.92,26.88-70.6,41.53-105.38c7.05-16.73,14.14-33.44,21.24-50.14C196.25,52.96,199.77,45.45,203.19,37.87z"/>
	<path d="M27.42,217.85c-0.67,0.63-1.55,0.67-2.78-0.55c-0.98-0.98-1.78-2.26-2.22-3.61c-9.44-28.98,3.66-63.62,15.08-89.71
		c10.56-24.1,22.98-47.22,35.77-70.07c2.47-4.42,4.97-8.84,7.46-13.26c3.1-5.49,6.35-11.49,9.42-17
		c3.06-5.49,6.83-10.65,10.77-12.45c4.39-2.01,6.7,1.52,7.17,5.9c1.07,9.97-3.77,22.18-7.59,31.06
		c-12.22,28.45-25.96,56.14-38.83,84.28c-6.15,13.45-11.93,27.09-17.68,40.75c-2.54,6.05-4.83,12.21-7,18.41
		c-1.61,4.61-3.14,9.25-4.71,13.87c-0.97,2.89-1.87,5.8-3,8.64C28.77,215.44,28.24,217.08,27.42,217.85z"/>
	<g>
		<path d="M501.45,107.85c0.91-2.23,3.76-1.8,4.12,0.63c1.41,9.44,1.14,19.61,0.1,26.72c-2.5,17.05-6.06,32.33-13.48,55.97
			c-0.69,2.21-1.46,4.39-2.29,6.53c-7.79,20.03-15.09,38.59-22.75,54.84c-11.61,24.65-31.4,49.27-50.24,67.54l-0.09,0.06
			c-2.32,1.69-5.07-1.33-3.74-4.14c3.78-8,8.57-17.76,9.73-20.53c15.8-37.58,25.19-54.6,41.17-92.09
			c3.99-9.35,12.5-31.17,19.47-47.98c7.43-18.68,10.34-27.67,16.9-44.93C500.72,109.64,501.07,108.78,501.45,107.85z"/>
	</g>
	<path d="M6.88,150.01c-0.69-2.71-0.43-6.84,0.12-9.65c5.17-26.39,9.62-40.14,16.71-59.43c4-10.89,9.42-21.11,15.46-30.87
		c2.83-4.58,17.52-33.33,24.76-28.1c8.02,5.81-1.17,21.44-4.06,27.86c-6.78,15.09-13.83,30.23-21.28,44.96
		c-6.49,12.82-10.86,23.31-16.65,34.77c-2.61,5.17-8.67,19.98-15,20.62C6.91,150.11,6.9,150.06,6.88,150.01z"/>
</g>
</svg>
