<?xml version="1.0" encoding="utf-8"?>
<!-- Generator: Adobe Illustrator 24.3.0, SVG Export Plug-In . SVG Version: 6.00 Build 0)  -->
<svg version="1.1" xmlns="http://www.w3.org/2000/svg" xmlns:xlink="http://www.w3.org/1999/xlink" x="0px" y="0px"
	 viewBox="0 0 559 557" style="enable-background:new 0 0 559 557;" xml:space="preserve">
<g>
	<g>
		<path d="M530,504c-16.59,0-33.19,0-49.78,0c-39.84,0-79.68,0-119.53,0c-48.02,0-96.05,0-144.07,0c-41.67,0-83.34,0-125.01,0
			c-20.21,0-40.56-0.67-60.76,0c-0.28,0.01-0.57,0-0.85,0c8,8,16,16,24,24c0-16.59,0-33.19,0-49.78c0-39.84,0-79.68,0-119.53
			c0-48.02,0-96.05,0-144.07c0-41.67,0-83.34,0-125.01c0-20.21,0.67-40.56,0-60.76c-0.01-0.28,0-0.57,0-0.85c-8,8-16,16-24,24
			c16.59,0,33.19,0,49.78,0c39.84,0,79.68,0,119.53,0c48.02,0,96.05,0,144.07,0c41.67,0,83.34,0,125.01,0
			c20.21,0,40.56,0.67,60.76,0c0.28-0.01,0.57,0,0.85,0c-8-8-16-16-24-24c0,16.59,0,33.19,0,49.78c0,39.84,0,79.68,0,119.53
			c0,48.02,0,96.05,0,144.07c0,41.67,0,83.34,0,125.01c0,20.24-0.45,40.53,0,60.76c0.01,0.28,0,0.57,0,0.85
			c0,12.55,11.04,24.58,24,24c13-0.58,24-10.55,24-24c0-16.59,0-33.19,0-49.78c0-39.84,0-79.68,0-119.53c0-48.02,0-96.05,0-144.07
			c0-41.67,0-83.34,0-125.01c0-20.24,0.45-40.53,0-60.76c-0.01-0.28,0-0.57,0-0.85c0-12.97-11-24-24-24c-16.59,0-33.19,0-49.78,0
			c-39.84,0-79.68,0-119.53,0c-48.02,0-96.05,0-144.07,0c-41.67,0-83.34,0-125.01,0C71.37,4,51.08,3.55,30.85,4
			C30.57,4.01,30.28,4,30,4C17.03,4,6,15,6,28c0,16.59,0,33.19,0,49.78c0,39.84,0,79.68,0,119.53c0,48.02,0,96.05,0,144.07
			c0,41.67,0,83.34,0,125.01c0,20.24-0.45,40.53,0,60.76c0.01,0.28,0,0.57,0,0.85c0,12.97,11,24,24,24c16.59,0,33.19,0,49.78,0
			c39.84,0,79.68,0,119.53,0c48.02,0,96.05,0,144.07,0c41.67,0,83.34,0,125.01,0c20.24,0,40.53,0.45,60.76,0
			c0.28-0.01,0.57,0,0.85,0c12.55,0,24.58-11.04,24-24C553.42,515,543.45,504,530,504z"/>
	</g>
</g>
</svg>
