<?xml version="1.0" encoding="utf-8"?>
<!-- Generator: Adobe Illustrator 24.3.0, SVG Export Plug-In . SVG Version: 6.00 Build 0)  -->
<svg version="1.1" xmlns="http://www.w3.org/2000/svg" xmlns:xlink="http://www.w3.org/1999/xlink" x="0px" y="0px"
	 viewBox="0 0 542 539.01" style="enable-background:new 0 0 542 539.01;" xml:space="preserve">
<g>
	<rect x="31" y="29.5" width="480" height="480"/>
	<g>
		<path d="M511,485.5c-16.01,0-32.01,0-48.02,0c-38.08,0-76.17,0-114.25,0c-46.37,0-92.75,0-139.12,0c-39.8,0-79.61,0-119.41,0
			c-19.41,0-38.96-0.67-58.36,0c-0.28,0.01-0.56,0-0.84,0c8,8,16,16,24,24c0-16.01,0-32.01,0-48.02c0-38.08,0-76.17,0-114.25
			c0-46.37,0-92.75,0-139.12c0-39.8,0-79.61,0-119.41c0-19.41,0.67-38.96,0-58.36c-0.01-0.28,0-0.56,0-0.84c-8,8-16,16-24,24
			c16.01,0,32.01,0,48.02,0c38.08,0,76.17,0,114.25,0c46.37,0,92.75,0,139.12,0c39.8,0,79.61,0,119.41,0c19.41,0,38.96,0.67,58.36,0
			c0.28-0.01,0.56,0,0.84,0c-8-8-16-16-24-24c0,16.01,0,32.01,0,48.02c0,38.08,0,76.17,0,114.25c0,46.37,0,92.75,0,139.12
			c0,39.8,0,79.61,0,119.41c0,19.44-0.44,38.93,0,58.36c0.01,0.28,0,0.56,0,0.84c0,12.55,11.04,24.58,24,24c13-0.58,24-10.55,24-24
			c0-16.01,0-32.01,0-48.02c0-38.08,0-76.17,0-114.25c0-46.37,0-92.75,0-139.12c0-39.8,0-79.61,0-119.41c0-19.44,0.44-38.93,0-58.36
			c-0.01-0.28,0-0.56,0-0.84c0-12.97-11-24-24-24c-16.01,0-32.01,0-48.02,0c-38.08,0-76.17,0-114.25,0c-46.37,0-92.75,0-139.12,0
			c-39.8,0-79.61,0-119.41,0c-19.44,0-38.93-0.44-58.36,0c-0.28,0.01-0.56,0-0.84,0c-12.97,0-24,11-24,24c0,16.01,0,32.01,0,48.02
			c0,38.08,0,76.17,0,114.25c0,46.37,0,92.75,0,139.12c0,39.8,0,79.61,0,119.41c0,19.44-0.44,38.93,0,58.36c0.01,0.28,0,0.56,0,0.84
			c0,12.97,11,24,24,24c16.01,0,32.01,0,48.02,0c38.08,0,76.17,0,114.25,0c46.37,0,92.75,0,139.12,0c39.8,0,79.61,0,119.41,0
			c19.44,0,38.93,0.44,58.36,0c0.28-0.01,0.56,0,0.84,0c12.55,0,24.58-11.04,24-24C534.42,496.5,524.45,485.5,511,485.5z"/>
	</g>
</g>
</svg>
