<?xml version="1.0" encoding="utf-8"?>
<!-- Generator: Adobe Illustrator 24.3.0, SVG Export Plug-In . SVG Version: 6.00 Build 0)  -->
<svg version="1.1" xmlns="http://www.w3.org/2000/svg" xmlns:xlink="http://www.w3.org/1999/xlink" x="0px" y="0px"
	 viewBox="0 0 106.42 105.22" style="enable-background:new 0 0 106.42 105.22;" xml:space="preserve">
<g>
	<g>
		<path d="M99.34,94.31c-3.06,0-6.12,0-9.19,0c-7.35,0-14.7,0-22.06,0c-8.86,0-17.72,0-26.59,0c-7.69,0-15.38,0-23.07,0
			c-3.73,0-7.48-0.12-11.21,0c-0.05,0-0.11,0-0.16,0c1.48,1.48,2.95,2.95,4.43,4.43c0-3.06,0-6.12,0-9.19c0-7.35,0-14.7,0-22.06
			c0-8.86,0-17.72,0-26.59c0-7.69,0-15.38,0-23.07c0-3.73,0.12-7.48,0-11.21c0-0.05,0-0.11,0-0.16c-1.48,1.48-2.95,2.95-4.43,4.43
			c3.06,0,6.12,0,9.19,0c7.35,0,14.7,0,22.06,0c8.86,0,17.72,0,26.59,0c7.69,0,15.38,0,23.07,0c3.73,0,7.48,0.12,11.21,0
			c0.05,0,0.11,0,0.16,0c-1.48-1.48-2.95-2.95-4.43-4.43c0,3.06,0,6.12,0,9.19c0,7.35,0,14.7,0,22.06c0,8.86,0,17.72,0,26.59
			c0,7.69,0,15.38,0,23.07c0,3.74-0.08,7.48,0,11.21c0,0.05,0,0.11,0,0.16c0,2.32,2.04,4.54,4.43,4.43c2.4-0.11,4.43-1.95,4.43-4.43
			c0-3.06,0-6.12,0-9.19c0-7.35,0-14.7,0-22.06c0-8.86,0-17.72,0-26.59c0-7.69,0-15.38,0-23.07c0-3.74,0.08-7.48,0-11.21
			c0-0.05,0-0.11,0-0.16c0-2.39-2.03-4.43-4.43-4.43c-3.06,0-6.12,0-9.19,0c-7.35,0-14.7,0-22.06,0c-8.86,0-17.72,0-26.59,0
			c-7.69,0-15.38,0-23.07,0c-3.74,0-7.48-0.08-11.21,0c-0.05,0-0.11,0-0.16,0c-2.39,0-4.43,2.03-4.43,4.43c0,3.06,0,6.12,0,9.19
			c0,7.35,0,14.7,0,22.06c0,8.86,0,17.72,0,26.59c0,7.69,0,15.38,0,23.07c0,3.74-0.08,7.48,0,11.21c0,0.05,0,0.11,0,0.16
			c0,2.39,2.03,4.43,4.43,4.43c3.06,0,6.12,0,9.19,0c7.35,0,14.7,0,22.06,0c8.86,0,17.72,0,26.59,0c7.69,0,15.38,0,23.07,0
			c3.74,0,7.48,0.08,11.21,0c0.05,0,0.11,0,0.16,0c2.32,0,4.54-2.04,4.43-4.43C103.67,96.34,101.83,94.31,99.34,94.31z"/>
	</g>
</g>
</svg>
