<?xml version="1.0" encoding="utf-8"?>
<!-- Generator: Adobe Illustrator 24.3.0, SVG Export Plug-In . SVG Version: 6.00 Build 0)  -->
<svg version="1.1" xmlns="http://www.w3.org/2000/svg" xmlns:xlink="http://www.w3.org/1999/xlink" x="0px" y="0px"
	 viewBox="0 0 104.56 105.67" style="enable-background:new 0 0 104.56 105.67;" xml:space="preserve">
<g>
	<polygon id="XMLID_881_" points="3.36,8.88 6.37,2.86 9.38,8.88 	"/>
	<polygon id="XMLID_880_" points="12.55,8.88 15.56,2.86 18.57,8.88 	"/>
	<polygon id="XMLID_879_" points="21.73,8.89 24.74,2.87 27.75,8.89 	"/>
	<polygon id="XMLID_878_" points="30.92,8.89 33.93,2.87 36.94,8.89 	"/>
	<polygon id="XMLID_877_" points="40.1,8.89 43.12,2.87 46.12,8.9 	"/>
	<polygon id="XMLID_876_" points="49.29,8.9 52.3,2.88 55.31,8.9 	"/>
	<polygon id="XMLID_875_" points="58.47,8.9 61.49,2.88 64.5,8.9 	"/>
	<polygon id="XMLID_874_" points="67.66,8.91 70.67,2.89 73.68,8.91 	"/>
	<polygon id="XMLID_873_" points="76.85,8.91 79.86,2.89 82.87,8.91 	"/>
	<polygon id="XMLID_872_" points="86.03,8.91 89.05,2.89 92.05,8.92 	"/>
	<polygon id="XMLID_871_" points="95.22,8.92 98.23,2.9 101.24,8.92 	"/>
	<polygon id="XMLID_870_" points="3.35,19.31 6.37,13.29 9.38,19.31 	"/>
	<polygon id="XMLID_869_" points="12.54,19.31 15.55,13.29 18.56,19.32 	"/>
	<polygon id="XMLID_868_" points="21.73,19.32 24.74,13.3 27.75,19.32 	"/>
	<polygon id="XMLID_867_" points="30.91,19.32 33.93,13.3 36.93,19.33 	"/>
	<polygon id="XMLID_866_" points="40.1,19.33 43.11,13.31 46.12,19.33 	"/>
	<polygon id="XMLID_865_" points="49.28,19.33 52.3,13.31 55.31,19.33 	"/>
	<polygon id="XMLID_864_" points="58.47,19.34 61.48,13.31 64.49,19.34 	"/>
	<polygon id="XMLID_863_" points="67.66,19.34 70.67,13.32 73.68,19.34 	"/>
	<polygon id="XMLID_862_" points="76.84,19.34 79.85,13.32 82.86,19.35 	"/>
	<polygon id="XMLID_861_" points="86.03,19.35 89.04,13.33 92.05,19.35 	"/>
	<polygon id="XMLID_860_" points="95.21,19.35 98.23,13.33 101.23,19.35 	"/>
	<polygon id="XMLID_859_" points="3.35,29.74 6.36,23.72 9.37,29.75 	"/>
	<polygon id="XMLID_858_" points="12.54,29.75 15.55,23.73 18.56,29.75 	"/>
	<polygon id="XMLID_857_" points="21.72,29.75 24.73,23.73 27.74,29.75 	"/>
	<polygon id="XMLID_856_" points="30.91,29.76 33.92,23.74 36.93,29.76 	"/>
	<polygon id="XMLID_855_" points="40.09,29.76 43.11,23.74 46.11,29.76 	"/>
	<polygon id="XMLID_854_" points="49.28,29.76 52.29,23.74 55.3,29.77 	"/>
	<polygon id="XMLID_853_" points="58.46,29.77 61.48,23.75 64.49,29.77 	"/>
	<polygon id="XMLID_852_" points="67.65,29.77 70.66,23.75 73.67,29.77 	"/>
	<polygon id="XMLID_851_" points="76.84,29.78 79.85,23.76 82.86,29.78 	"/>
	<polygon id="XMLID_850_" points="86.02,29.78 89.04,23.76 92.04,29.78 	"/>
	<polygon id="XMLID_849_" points="95.21,29.78 98.22,23.76 101.23,29.79 	"/>
	<polygon id="XMLID_848_" points="3.34,40.18 6.36,34.16 9.37,40.18 	"/>
	<polygon id="XMLID_847_" points="12.53,40.18 15.54,34.16 18.55,40.18 	"/>
	<polygon id="XMLID_846_" points="21.72,40.18 24.73,34.16 27.74,40.19 	"/>
	<polygon id="XMLID_845_" points="30.9,40.19 33.92,34.17 36.92,40.19 	"/>
	<polygon id="XMLID_844_" points="40.09,40.19 43.1,34.17 46.11,40.2 	"/>
	<polygon id="XMLID_843_" points="49.27,40.2 52.29,34.18 55.3,40.2 	"/>
	<polygon id="XMLID_842_" points="58.46,40.2 61.47,34.18 64.48,40.2 	"/>
	<polygon id="XMLID_841_" points="67.65,40.21 70.66,34.19 73.67,40.21 	"/>
	<polygon id="XMLID_840_" points="76.83,40.21 79.85,34.19 82.85,40.21 	"/>
	<polygon id="XMLID_839_" points="86.02,40.21 89.03,34.19 92.04,40.22 	"/>
	<polygon id="XMLID_838_" points="95.2,40.22 98.22,34.2 101.22,40.22 	"/>
	<polygon id="XMLID_837_" points="3.34,50.61 6.35,44.59 9.36,50.61 	"/>
	<polygon id="XMLID_836_" points="12.53,50.61 15.54,44.59 18.55,50.62 	"/>
	<polygon id="XMLID_835_" points="21.71,50.62 24.73,44.6 27.73,50.62 	"/>
	<polygon id="XMLID_834_" points="30.9,50.62 33.91,44.6 36.92,50.62 	"/>
	<polygon id="XMLID_833_" points="40.08,50.63 43.1,44.61 46.1,50.63 	"/>
	<polygon id="XMLID_832_" points="49.27,50.63 52.28,44.61 55.29,50.63 	"/>
	<polygon id="XMLID_831_" points="58.45,50.63 61.47,44.61 64.48,50.64 	"/>
	<polygon id="XMLID_830_" points="67.64,50.64 70.65,44.62 73.66,50.64 	"/>
	<polygon id="XMLID_829_" points="76.83,50.64 79.84,44.62 82.85,50.65 	"/>
	<polygon id="XMLID_828_" points="86.01,50.65 89.03,44.63 92.03,50.65 	"/>
	<polygon id="XMLID_827_" points="95.2,50.65 98.21,44.63 101.22,50.65 	"/>
	<polygon id="XMLID_826_" points="3.34,61.04 6.35,55.02 9.36,61.04 	"/>
	<polygon id="XMLID_825_" points="12.52,61.05 15.53,55.03 18.54,61.05 	"/>
	<polygon id="XMLID_824_" points="21.71,61.05 24.72,55.03 27.73,61.05 	"/>
	<polygon id="XMLID_823_" points="30.89,61.05 33.91,55.03 36.91,61.06 	"/>
	<polygon id="XMLID_822_" points="40.08,61.06 43.09,55.04 46.1,61.06 	"/>
	<polygon id="XMLID_821_" points="49.26,61.06 52.28,55.04 55.29,61.07 	"/>
	<polygon id="XMLID_820_" points="58.45,61.07 61.46,55.05 64.47,61.07 	"/>
	<polygon id="XMLID_819_" points="67.64,61.07 70.65,55.05 73.66,61.07 	"/>
	<polygon id="XMLID_818_" points="76.82,61.08 79.84,55.06 82.84,61.08 	"/>
	<polygon id="XMLID_817_" points="86.01,61.08 89.02,55.06 92.03,61.08 	"/>
	<polygon id="XMLID_816_" points="95.19,61.08 98.21,55.06 101.22,61.09 	"/>
	<polygon id="XMLID_815_" points="3.33,71.47 6.34,65.45 9.35,71.48 	"/>
	<polygon id="XMLID_814_" points="12.52,71.48 15.53,65.46 18.54,71.48 	"/>
	<polygon id="XMLID_813_" points="21.7,71.48 24.72,65.46 27.72,71.49 	"/>
	<polygon id="XMLID_812_" points="30.89,71.49 33.9,65.47 36.91,71.49 	"/>
	<polygon id="XMLID_811_" points="40.07,71.49 43.09,65.47 46.1,71.49 	"/>
	<polygon id="XMLID_810_" points="49.26,71.5 52.27,65.48 55.28,71.5 	"/>
	<polygon id="XMLID_809_" points="58.45,71.5 61.46,65.48 64.47,71.5 	"/>
	<polygon id="XMLID_808_" points="67.63,71.5 70.64,65.48 73.65,71.51 	"/>
	<polygon id="XMLID_807_" points="76.82,71.51 79.83,65.49 82.84,71.51 	"/>
	<polygon id="XMLID_806_" points="86,71.51 89.02,65.49 92.02,71.52 	"/>
	<polygon id="XMLID_805_" points="95.19,71.52 98.2,65.5 101.21,71.52 	"/>
	<polygon id="XMLID_804_" points="3.33,81.91 6.34,75.89 9.35,81.91 	"/>
	<polygon id="XMLID_803_" points="12.51,81.91 15.52,75.89 18.53,81.91 	"/>
	<polygon id="XMLID_802_" points="21.7,81.92 24.71,75.9 27.72,81.92 	"/>
	<polygon id="XMLID_801_" points="30.88,81.92 33.9,75.9 36.9,81.92 	"/>
	<polygon id="XMLID_800_" points="40.07,81.92 43.08,75.9 46.09,81.93 	"/>
	<polygon id="XMLID_799_" points="49.25,81.93 52.27,75.91 55.28,81.93 	"/>
	<polygon id="XMLID_798_" points="58.44,81.93 61.45,75.91 64.46,81.94 	"/>
	<polygon id="XMLID_797_" points="67.63,81.94 70.64,75.92 73.65,81.94 	"/>
	<polygon id="XMLID_796_" points="76.81,81.94 79.83,75.92 82.83,81.94 	"/>
	<polygon id="XMLID_795_" points="86,81.95 89.01,75.93 92.02,81.95 	"/>
	<polygon id="XMLID_794_" points="95.18,81.95 98.2,75.93 101.21,81.95 	"/>
	<polygon id="XMLID_793_" points="3.32,92.34 6.33,86.32 9.34,92.34 	"/>
	<polygon id="XMLID_792_" points="12.51,92.34 15.52,86.32 18.53,92.35 	"/>
	<polygon id="XMLID_791_" points="21.69,92.35 24.71,86.33 27.71,92.35 	"/>
	<polygon id="XMLID_790_" points="30.88,92.35 33.89,86.33 36.9,92.36 	"/>
	<polygon id="XMLID_789_" points="40.06,92.36 43.08,86.34 46.09,92.36 	"/>
	<polygon id="XMLID_788_" points="49.25,92.36 52.26,86.34 55.27,92.36 	"/>
	<polygon id="XMLID_787_" points="58.44,92.37 61.45,86.35 64.46,92.37 	"/>
	<polygon id="XMLID_786_" points="67.62,92.37 70.63,86.35 73.64,92.37 	"/>
	<polygon id="XMLID_785_" points="76.81,92.37 79.82,86.35 82.83,92.38 	"/>
	<polygon id="XMLID_784_" points="85.99,92.38 89.01,86.36 92.01,92.38 	"/>
	<polygon id="XMLID_783_" points="95.18,92.38 98.19,86.36 101.2,92.39 	"/>
	<polygon id="XMLID_782_" points="3.32,102.77 6.33,96.75 9.34,102.78 	"/>
	<polygon id="XMLID_781_" points="12.5,102.78 15.52,96.76 18.52,102.78 	"/>
	<polygon id="XMLID_780_" points="21.69,102.78 24.7,96.76 27.71,102.78 	"/>
	<polygon id="XMLID_779_" points="30.87,102.79 33.89,96.77 36.89,102.79 	"/>
	<polygon id="XMLID_778_" points="40.06,102.79 43.07,96.77 46.08,102.79 	"/>
	<polygon id="XMLID_777_" points="49.24,102.79 52.26,96.77 55.27,102.8 	"/>
	<polygon id="XMLID_776_" points="58.43,102.8 61.44,96.78 64.45,102.8 	"/>
	<polygon id="XMLID_775_" points="67.62,102.8 70.63,96.78 73.64,102.81 	"/>
	<polygon id="XMLID_774_" points="76.8,102.81 79.82,96.79 82.82,102.81 	"/>
	<polygon id="XMLID_773_" points="85.99,102.81 89,96.79 92.01,102.81 	"/>
	<polygon id="XMLID_772_" points="95.17,102.82 98.19,96.8 101.2,102.82 	"/>
</g>
</svg>
