<?xml version="1.0" encoding="utf-8"?>
<!-- Generator: Adobe Illustrator 24.3.0, SVG Export Plug-In . SVG Version: 6.00 Build 0)  -->
<svg version="1.1" xmlns="http://www.w3.org/2000/svg" xmlns:xlink="http://www.w3.org/1999/xlink" x="0px" y="0px"
	 viewBox="0 0 511.43 469" style="enable-background:new 0 0 511.43 469;" xml:space="preserve">
<g>
	<g>
		<path style="fill:#101010;" d="M442.43,237.38c0,10.56,17.69,22.5,14.71,33.21c-3.35,12.02-27.39,22.61-26.77,30.29
			c0.75,9.42,9.99,16.67,38.41,19.01c33.21,2.74,44.16,26.36,30.81,46.9c-12.6,19.38-36.29,14.72-58.2-4.79
			c-18.02-16.05-34.97-10.93-41.08-4.79c-6.6,6.62-11.14,25.01-18.49,30.81c-8.72,6.89-23.2-2.2-33.17,2.92
			c-4.89,2.52-4.77,11.29-5.28,20.81c-0.91,16.89-2.36,30.12-15.98,33.78c-14.61,3.93-25.1-7.76-36.46-23.7
			c-6.05-8.48-15.8-11.9-21.05-11.9c-8.02,0-21.13,14.31-32.4,12.32c-15.52-2.74-16.67-21.89-24.19-23.28
			c-17.35-3.19-29.45,12.6-31.49,26.47c-4.51,30.57-25.46,45.5-43.82,34.23c-20.08-12.32-16.67-38.57,1.37-53.4
			c20.54-16.89,28.3-36.51,19.62-47.47c-4.35-5.49-23.9-1.31-27.84-12.32c-2.28-6.39,0.68-20.82-0.91-28.76
			c-1.6-7.94-18.29-14.39-19.62-20.09c-1.72-7.32,12.12-31.16-1.26-37.14c-4.34-1.94-14.01-0.6-18.83-0.17
			c-15.23,1.37-24.13,1.54-28.76-7.53c-4.09-8.03,6.55-13.98,20.2-15.58c9.85-1.16,24.05-8.99,22.25-15.8
			c-1.64-6.19-11.61-12-25.67-12.44c-44.16-1.37-81.55-6.5-72.23-37.31c9.97-32.95,53.75-4.45,79.76,9.59
			c15.21,8.21,31.84-7.87,30.47-17.8c-1.61-11.66-4.45-24.65,2.4-34.92c5.31-7.97,30.92-8.44,39.14-16.66
			c7.34-7.33,4.93-24.27-8.17-35.86c-17.8-15.75-16.77-32.86-5.13-40.39c11.06-7.16,28.76-2.05,36.45,23.04
			c3.91,12.74,11.81,19.75,23.4,19.9c13.77,0.17,18.71-12.32,32.41-13.69c13.66-1.36,17.06,7.3,31.49,7.3
			c11.48,0,16.89-7.76,15.06-24.65c-2.39-22.12,5.7-43.63,25.56-40.62c15.06,2.28,26.51,24.12,17.8,41.53
			c-8.22,16.43-7.76,26.93,7.65,30.12c9.23,1.91,28.61-4.41,39.37,2.4c12.63,7.99,13.23,24.01,20.54,32.18
			c5.82,6.5,18.03,12,28.07,1.03c18.49-20.2,41.73-36.81,53.75-15.4c10.95,19.51,2.05,43.13-31.15,50.66
			c-15.32,3.47-16.77,19.51-10.61,27.04c5.75,7.02,21,16.19,21.57,26.7C456.73,214.4,442.43,227.11,442.43,237.38z"/>
		<path style="fill:#101010;" d="M453.24,400.11c5.26,13.65-1.54,28.96-15.18,34.22c-13.64,5.26-28.96-1.54-34.22-15.18
			c-5.26-13.64-2.78-36.36,10.86-41.61C428.34,372.28,447.98,386.46,453.24,400.11z"/>
		<path style="fill:#101010;" d="M127.19,373.18c4.21,9.72-4.99,21.82-14.7,26.03c-9.71,4.21-21-0.24-25.22-9.96
			c-4.21-9.71,0.25-21,9.96-25.21C106.94,359.83,122.97,363.47,127.19,373.18z"/>
		<path style="fill:#101010;" d="M455.51,239.87c-2.06-7.19,5.49-14.81,12.68-16.86c7.18-2.06,14.67,2.1,16.72,9.29
			c2.06,7.18-2.1,14.67-9.28,16.73C468.45,251.08,457.56,247.06,455.51,239.87z"/>
		<path style="fill:#101010;" d="M381.92,68.32c-9.21-5.23-9.53-21.83-4.31-31.04s16.92-12.44,26.13-7.22s18.39,16.62,13.16,25.83
			C411.69,65.1,391.13,73.55,381.92,68.32z"/>
		<path style="fill:#101010;" d="M51.89,98.76c2.77-13.21,11.81-22.87,25.02-20.1c13.21,2.76,29.08,19.89,26.31,33.1
			c-2.77,13.21-23.13,17.49-36.33,14.73C53.68,123.72,49.12,111.97,51.89,98.76z"/>
		<circle style="fill:#101010;" cx="66.55" cy="376.36" r="8.9"/>
		<circle style="fill:#101010;" cx="88.46" cy="65.99" r="8.9"/>
		<circle style="fill:#101010;" cx="359.35" cy="40.19" r="6.62"/>
		<circle style="fill:#101010;" cx="392.22" cy="438.21" r="6.62"/>
	</g>
</g>
</svg>
