<?xml version="1.0" encoding="utf-8"?>
<!-- Generator: Adobe Illustrator 24.3.0, SVG Export Plug-In . SVG Version: 6.00 Build 0)  -->
<svg version="1.1" xmlns="http://www.w3.org/2000/svg" xmlns:xlink="http://www.w3.org/1999/xlink" x="0px" y="0px"
	 viewBox="0 0 515 460" style="enable-background:new 0 0 515 460;" xml:space="preserve">
<path d="M507.44,244.82c-0.36-2.41-0.99-4.78-1.91-7.06c-5.72-14.19-23.12-23.03-37.52-17.86c-10.14,3.64-17.2,12.74-26.16,18.74
	c-8.96,5.99-23.19,7.66-28.86-1.5c-8.78-14.18,13.64-33.44,4.97-47.69c-3.47-5.69-10.6-7.78-15.83-11.91
	c-5.23-4.13-4.53-10.59-1.5-16.53c4.04-7.9,9.08-14.83,17.94-14.37c8.86,0.46,17.76,4.28,26.35,2.06
	c15.16-3.91,19.35-26.3,9.27-38.28c-10.08-11.99-28.51-13.87-43.28-8.67s-24.75,18.76-38.28,26.64c-7.87,4.58-16.6-7.25-16.99-16.35
	c-0.39-9.1,3.52-17.91,3.63-27.01c0.11-9.11-6.39-19.74-15.39-18.39c-13.53,2.02-13.32,26.22-26.75,28.84
	c-7.61,1.49-14.63-6.08-15.32-13.81c-0.68-7.72,3.14-15.1,7.33-21.62c4.2-6.52,8.99-12.95,10.65-20.52
	c3.08-14.04-7.18-29.59-21.3-32.26c-14.12-2.68-29.37,8.04-31.63,22.23c-1.52,9.51,2.11,19.1,2.01,28.73
	c-0.1,9.63-6.87,20.85-16.41,19.49c-8.24-1.18-12.33-10.96-12.22-19.29c0.11-8.33,2.75-16.7,1.07-24.86
	c-2.25-10.8-12.81-19.26-23.84-19.07s-21.3,9.01-23.15,19.89c-1.63,9.57,2.63,19.29,1.74,28.96c-0.89,9.66-13.63,20.58-19.61,12.93
	c-5.75-7.36-13.99-13.41-23.28-12.42s-17.63,8.06-20.14,17.05c-2.5,8.97-0.96,21.21-9.47,24.99c-8.21,3.65-18.17-5.14-26.3-1.31
	c-11.19,5.27-3.06,23.91-10.22,33.99c-5.6,7.89-17.87,6.74-26.47,2.29c-8.6-4.44-16.28-11.36-25.85-12.79
	c-12.21-1.82-25.01,7.36-27.2,19.51s6.61,25.22,18.69,27.77c6.07,1.28,12.36,0.18,18.56-0.03c6.2-0.21,12.97,0.74,17.33,5.15
	s4.42,13.16-1.14,15.91c-3.07,1.52-6.93,0.89-9.86,2.67c-6.33,3.84-2.44,14.03,3.54,18.39s13.99,7.43,16.2,14.5
	c2.73,8.72-5.7,17.25-14.43,19.98s-18.31,2.15-26.8,5.53c-8.49,3.38-15.66,13.56-11.04,21.44c3.59,6.13,12.17,7.19,19.08,5.56
	s13.36-5.22,20.43-5.89s15.48,3.12,16.3,10.17c0.64,5.5-3.49,10.36-4.6,15.79c-2.09,10.21,9.04,17.57,19.45,16.92
	c9.18-0.58,12.05,14.44,7.64,22.51s-13.38,12.41-22,15.59c-8.63,3.18-17.83,5.92-24.41,12.34c-24.65,24.05,14.42,68.97,38.18,38.09
	c7.8-10.14,11.71-23.62,22.15-31.03c10.85-7.71,26.65-5.13,36.26,4.09c12.34,11.84,7.02,24.33-1.45,30.54
	c-5.23,3.83-11.53,9.09-8.02,15.33c6.97,12.37,26.4,6.22,23.53-12.02c-1.23-7.8,7.95-16.79,16.73-16.99
	c7.89-0.18,15.64-3.6,20.6,2.53c2.79,3.45-3.54,14.41-3,18.81c1.74,14.29,32.41,12.55,26.71-12.35c-1.55-6.79,8.84-12.35,15.8-12.5
	c8.36-0.18,13.2,9.84,13.15,18.2c-0.06,8.36-2.75,16.96-0.19,24.92c2.73,8.49,11.83,14.43,20.69,13.54
	c8.87-0.9,19.7-8.75,17.56-17.41c-1.84-7.42-8.69-12.98-9.66-20.56c-0.98-7.58,2.64-16.35,9.95-18.61
	c8.24-2.55,16.73,4.18,20.52,11.93c3.78,7.75,4.64,16.63,8.08,24.54c3.44,7.91,11.11,15.26,19.61,13.8
	c11.83-2.02,14.62-18.48,10.28-29.67s-12.86-21.07-13.72-33.04c-0.68-9.53,4.02-19.14,11.62-24.92c9.73-7.39,22.72-8.4,34.92-9.13
	c2.27-0.13,4.53-0.27,6.8-0.41c7-0.42,14.18-0.88,20.54-3.83c6.35-2.96,11.77-9.02,11.83-16.03c0.15-18.33-31.85-23.15-32.56-41.46
	c-0.49-12.7,15.7-19.94,28.15-17.34c12.45,2.59,22.9,10.98,34.95,15.04c14.51,4.88,31.59,2.77,43.45-6.9
	C503.86,270.93,509.32,257.36,507.44,244.82z"/>
</svg>
