<?xml version="1.0" encoding="utf-8"?>
<!-- Generator: Adobe Illustrator 24.3.0, SVG Export Plug-In . SVG Version: 6.00 Build 0)  -->
<svg version="1.1" xmlns="http://www.w3.org/2000/svg" xmlns:xlink="http://www.w3.org/1999/xlink" x="0px" y="0px"
	 viewBox="0 0 547 392" style="enable-background:new 0 0 547 392;" xml:space="preserve">
<g>
	<path style="fill-rule:evenodd;clip-rule:evenodd;" d="M182.57,13.93c0.7,3.82,0.7,3.86,0,7.68c-4.35,0.51-6.27-1.41-5.76-5.76
		C178.81,15.29,179.55,13.46,182.57,13.93z"/>
	<path style="fill-rule:evenodd;clip-rule:evenodd;" d="M189.29,35.05c3.18,10.96-6.64,16.96-3.84,30.72
		C184.15,59.48,176.46,37.39,189.29,35.05z"/>
	<path style="fill-rule:evenodd;clip-rule:evenodd;" d="M125.92,43.69c3.39,0.13,2.73,4.3,3.84,6.72
		C126.28,50.38,125.55,47.58,125.92,43.69z"/>
	<path style="fill-rule:evenodd;clip-rule:evenodd;" d="M205.61,53.29c2.79,0.17,2.31,4.56-0.96,3.84
		C204.24,55.12,205.31,54.58,205.61,53.29z"/>
	<path style="fill-rule:evenodd;clip-rule:evenodd;" d="M132.65,60.97c5.76,1.6,5.5,9.22,6.72,15.36
		C135.15,73.18,131.71,69.27,132.65,60.97z"/>
	<path style="fill-rule:evenodd;clip-rule:evenodd;" d="M200.81,69.61c0.96,0,1.92,0,2.88,0c1.72,2.76,1.33,7.62,2.88,10.56
		c0.76,3.96-4.6,1.8-3.84,5.76c1.01,7.31,6.77,9.86,12.48,12.48c5.19,0.39,2.1-7.5,6.72-7.68c-1.4,8.56-3.76,18.86,3.84,21.12
		c18.64,5.56,23.89-29.37,37.44-25.92c-3.63,11.19-18.17,22.21-18.24,36.48c-0.07,13.75,10.36,18.4,22.08,24
		c5.81,0.05,8.72-2.8,13.44-3.84c2.96,11.85-22.48,2.93-19.2,18.24c1.14,4.31,10.82,0.06,13.44,2.88c-0.35,5.41-4.73,6.78-9.6,7.68
		c-6.21,7.33-8.35,19.29-2.88,27.84c4.4,6.88,11.27,4.32,16.32,9.6c-6.52,2.85-10.84-1.62-16.32,0
		c-11.25,3.33-10.45,22.17-2.88,28.8c-10.51-4.42-23.39-0.65-22.08,12.48c-3.33,2.43-7.71,3.8-9.6,7.68
		c0.17,8.58,0.65,11.99,0,20.16c-6.84-2.75-6.36-12.85-13.44-15.36c-6.65,1.03-8.94,6.42-15.36,7.68
		c-1.23,6.77-2.26,13.74-3.84,20.16c-4.68-6.86,1.56-16.78-6.72-19.2c-5.09-1.49-13.31,3.92-15.36,9.6
		c-0.8,2.23,2.17,4.43,1.92,6.72c-0.23,2.06-6.82,13.44-8.64,15.36c-2.3-10.14,6.09-21.4,0-28.8c-20.58-5.57-23.99,10.12-38.4,13.44
		c-1.88-9.44,7.73-8.37,7.68-15.36c-0.06-9.04-18.51-18.19-29.76-16.32c-3.74,1.06-4.59,9.05-9.6,5.76
		c-3.41-4.11,3.77-4.04,4.8-6.72c-4.94-0.65-8.05,2.47-10.56-0.96c1.99-7.61,7.24-11.96,10.56-18.24
		c-4.4-5.14-8.73-16.18-16.32-18.24c-7.82-2.12-13.59,4.38-22.08,1.93c3.34-5.31,12.85-4.43,14.4-11.53
		c0.74-4.9-5.88-2.44-6.72-5.76c0.02-5.43,7.99-2.89,11.52-4.8c2.37-17.51,2.19-41.22-6.72-53.76
		c16.38-17.9-12.48-20.96-17.28-34.56c17.11-3.94,15.15,19.37,28.8,22.09c6.03,0.48,7.26-6.98,12.48-1.92
		c5.46-6.11-0.64-13.8-3.84-17.28c20.13,2.4,15.5-16.23,7.68-24c11.83,4.54,21,24.39,37.44,12.48c3.72-7.52-0.05-14.94-0.96-23.04
		c5.87,3.41,5.46,13.09,10.56,17.28c20.12,3.94,30.75-6.85,33.6-23.04c1.77,2.08,1.04,6.65,2.88,8.64c4.85,1.45,9.9-0.39,13.44-2.88
		C199.96,74.52,199.32,71,200.81,69.61z"/>
	<path style="fill-rule:evenodd;clip-rule:evenodd;" d="M215.21,75.37c2.7-0.14,2.77,2.35,2.88,4.8
		C215.09,80.61,215.02,78.12,215.21,75.37z"/>
	<path style="fill-rule:evenodd;clip-rule:evenodd;" d="M222.89,84.01c3.35-0.85,1.64,3.13,0.96,3.84
		C222.54,87.55,223.05,85.44,222.89,84.01z"/>
	<path style="fill-rule:evenodd;clip-rule:evenodd;" d="M72.16,91.69c1.8,1.72,1.15,5.89,3.84,6.72c-3.45,2.12-7.95-2.91-10.56-4.8
		C65.58,90.86,69.45,91.85,72.16,91.69z"/>
	<path style="fill-rule:evenodd;clip-rule:evenodd;" d="M41.44,99.37c2.53-0.29,3.15,1.33,2.88,3.84c-2.51,0.27-4.13-0.35-3.84-2.88
		C41.3,100.5,41.39,99.95,41.44,99.37z"/>
	<path style="fill-rule:evenodd;clip-rule:evenodd;" d="M22.24,128.17c0.15-2.39,3.25-0.28,3.84,0
		C25.93,130.56,22.83,128.45,22.24,128.17z"/>
	<path style="fill-rule:evenodd;clip-rule:evenodd;" d="M281.45,132.01c0,0.96,0,1.92,0,2.88c-1.7-0.22-4.81,0.97-3.84-1.92
		C279.33,133.09,279.64,131.79,281.45,132.01z"/>
	<path style="fill-rule:evenodd;clip-rule:evenodd;" d="M38.56,132.97c3.14,0.38,6.21,0.84,6.72,3.84
		C42.33,136.24,38.49,136.56,38.56,132.97z"/>
	<path style="fill-rule:evenodd;clip-rule:evenodd;" d="M399.54,152.17c2.89-2.51,7.34,1.58,6.72,5.76
		C403.07,166.16,390.49,155.55,399.54,152.17z"/>
	<path style="fill-rule:evenodd;clip-rule:evenodd;" d="M303.53,209.77c1.39,2.4,2.32,3.77,0.96,6.72
		c-3.11,0.55-4.46-0.65-6.72-0.96C297.26,211.19,299.19,209.27,303.53,209.77z"/>
	<path style="fill-rule:evenodd;clip-rule:evenodd;" d="M9.76,239.53c-0.87,2.01-2.83,2.93-5.76,2.88c0-0.96,0-1.92,0-2.88
		C7.59,239.45,6.73,238.46,9.76,239.53z"/>
	<path style="fill-rule:evenodd;clip-rule:evenodd;" d="M274.73,248.17c-3.64,4.02-12.54,1.68-10.56-5.76
		C268.03,238.93,276.4,240.57,274.73,248.17z"/>
	<path style="fill-rule:evenodd;clip-rule:evenodd;" d="M85.6,244.33c0.07,3.6-3.77,3.28-6.72,3.84
		C81.18,246.95,81.72,243.96,85.6,244.33z"/>
	<path style="fill-rule:evenodd;clip-rule:evenodd;" d="M71.2,250.09c0,3.52-3.36,3.68-4.8,5.76
		C62.26,254.29,68.12,250.35,71.2,250.09z"/>
	<path style="fill-rule:evenodd;clip-rule:evenodd;" d="M227.69,279.85c2.53-0.29,3.15,1.33,2.88,3.84
		C228.04,283.99,228.09,281.69,227.69,279.85z"/>
	<path style="fill-rule:evenodd;clip-rule:evenodd;" d="M120.16,296.17c2.73,0.12,1.84,4.1-0.96,3.84
		C118.8,298.01,119.86,297.47,120.16,296.17z"/>
	<path style="fill-rule:evenodd;clip-rule:evenodd;" d="M243.05,306.74c2.8-1.41,2.8,4.29,0,2.88
		C243.05,308.66,243.05,307.7,243.05,306.74z"/>
	<path style="fill-rule:evenodd;clip-rule:evenodd;" d="M417.78,325.94c3.58-0.39,5.63,0.77,5.76,3.84
		C419.95,330.16,417.9,329.01,417.78,325.94z"/>
</g>
<g>
	<path style="fill-rule:evenodd;clip-rule:evenodd;" d="M295.14,165.67c0.66,0.98-0.12,1.41,0.21,2.27
		c-1.86,1.49-2.5-0.14-3.88,0.13C290.69,166.26,293.9,165.13,295.14,165.67z"/>
	<path style="fill-rule:evenodd;clip-rule:evenodd;" d="M293.17,186.25c0.52,2.65-5.22,3.97-6.6,2.91
		C286.72,186.45,291.23,185.61,293.17,186.25z"/>
	<path style="fill-rule:evenodd;clip-rule:evenodd;" d="M316.18,174.29c-8.1,9.08-18.72,30.67-0.99,36.02
		c-5.14,2.44-10.09,2.02-9.95,7.19c3.21,4.58,6.9,7.89,10.14,12.39c-6.11,1.23-9.23-5.24-15.57-3.45c-3.99,1.27,0.71,5.91-1.16,8
		c-4.74,3.27-6.56-0.95-10.36-0.12c-3.96,2.58-6.07,5.88-6.99,9.63c1.28,3.4,3.44,4.53,5.02,7.15c-8.71-0.22-4.73,9.76-3.45,15.57
		c-6.34,0.13-8.13-11.45-13.09-14.84c-3.61-0.18-7.73,0.92-11.14,0.22c-5.58,5.21,6.15,14.16,4.02,19.77
		c-4.06-1.26-7.6-3.86-11.2-6.3c-4.45,1.08-5.58,2.86-8.97,3.01c-5.65-13.9-17.43-12.03-28.59-11.76c-5.29,2.22-3.56,9.35-8.91,9.54
		c-3.03-5.73,3.23-7.85,1.78-12.96c-2.94-3.59-6.57-5.4-9.98-7.78c-7.26,1.64-5.06,10-11.61,9.79c-1.99-5.97,5.22-8.37,4.13-13.99
		c-4.36-2.73-6.02-12.37-10.39-15.1c-3.4,0.37-6.91,1.05-10.45,1.8c0.4-6.05,7.96-5.34,6.31-11.21c-2.48-8.81-12.61,0.33-19.39-3.63
		c1.18-5.12,6.61-2.06,10.2-4.49c6.27-4.25,6.58-13.68-2.29-15.84c0.41-12.85-15.13-6.25-17.45-11.99
		c6.47-4.16,14.4,1.83,22.72-1.57c1.55-5.05,5.26-11.94-0.29-17.67c4.11-8.48-0.87-17.4-8.01-24.57
		c7.15,2.25,12.01,10.35,19.8,10.95c8.95-2.6,3.8-10.66,3.89-16.7c4.88-2.52,5.39,6.2,9.73,5.08c12.85-4.11-0.53-18.41,10.35-23.29
		c4.67,2.5,1.08,9.49,5.18,11.77c1.88,1.31,5.59-2.11,8.19-2.67c-0.86-7.05,2.59-12.43,2.85-19.05c-1.7-3.69-3.46-7.41,0.81-8.78
		c1.76,10.05,1.15,26.08,12.78,29.02c6.66-2.47,8.92-7.18,14.9-6.56c4.63-4.05,2.99-10.54,9.88-13.71
		c1.97,7.72-4.62,13.27-0.59,19.93c2.9,4.79,9.86,4.15,14.59,7.62c6.44-1.96,8.62-8.61,12.74-9.35c4.36,4.86-3.77,10.14-3.44,15.57
		c1.86,5.81,8.1,0.33,11.39,2.48c-1,8.9,0.19,18.34,13.09,14.84C307.28,162.31,311.38,168.17,316.18,174.29z"/>
	<path style="fill-rule:evenodd;clip-rule:evenodd;" d="M285.93,221.76c0.31,3-4.69,1.47-5.78-0.61
		C282.73,219.68,284.22,221.02,285.93,221.76z"/>
	<path style="fill-rule:evenodd;clip-rule:evenodd;" d="M240.15,286.07c-1.71,1.76-4.49-4.55-2.04-4.63
		C238.63,282.62,241.58,284.5,240.15,286.07z"/>
	<path style="fill-rule:evenodd;clip-rule:evenodd;" d="M153.69,130.65c-3.12,0.76-5.3-0.87-7.13-3.42
		C149.76,126.26,152.22,127.16,153.69,130.65z"/>
	<path style="fill-rule:evenodd;clip-rule:evenodd;" d="M126.11,8.68c1.27,0.17,1.65,1.24,1.44,2.89
		C125.38,12.29,126.27,9.96,126.11,8.68z"/>
	<path style="fill-rule:evenodd;clip-rule:evenodd;" d="M314.42,27.44c-1.06,2.14-7.66,2.13-7.94-0.72
		C308.74,25.75,313.12,25.45,314.42,27.44z"/>
	<path style="fill-rule:evenodd;clip-rule:evenodd;" d="M232.17,30.33c1.89-0.21,3.11,0.26,2.89,2.16
		C233.17,32.69,231.44,32.73,232.17,30.33z"/>
	<path style="fill-rule:evenodd;clip-rule:evenodd;" d="M354.11,72.89c0.34,2.25-1.81,2.58-2.89,1.44
		C351.69,73.37,352.76,72.99,354.11,72.89z"/>
	<path style="fill-rule:evenodd;clip-rule:evenodd;" d="M349.06,75.06c-2.16,1.44-3.2,4.02-7.22,3.6
		C342.05,75.27,345.85,75.46,349.06,75.06z"/>
	<path style="fill-rule:evenodd;clip-rule:evenodd;" d="M338.95,137.83c-0.13-5.9,0.1-11.44,4.33-12.99
		c2.45,4.56,1.13,10.95,0,15.87c6.38,8.6,9.79,35.6,24.53,22.37c9.11,2.8,17.4,0.72,22.37-5.05c-2.66,6.48-6.97,11.31-10.1,17.32
		c0.24,1.68,0.74,3.11,2.17,3.61c8.09-2.49,12.05-9.12,22.37-9.38c-1.86,5.11-5.57,8.38-9.38,11.55c-1.47-0.93-1.31-3.5-4.33-2.89
		c-3.02,0.11-3.02,3.24-4.33,5.05c0.87,3.22,3.78,4.4,6.49,5.77c11.16-8.56,22.97-16.48,37.52-21.65
		c-6.1,9.79-21.57,16.41-29.59,26.7c-3.02-3.31,3-3.7,2.89-6.49c-15.56,0.31-6.02,21.36-0.72,28.86c8.76,2.85,15.01-4.94,23.81-2.16
		c-4.71,6.59-19.19,3.41-22.37,11.54c2.04,8.2,13.59-1.26,18.76,3.61c-1.33,3.01-5.69,2.97-5.77,7.22
		c-0.34-7.47-11.83-1.7-12.99,2.89c0.26,13.21,8.33,18.61,19.48,20.92c-0.18,2.83,2.61,2.68,2.17,5.77
		c-6.12,1.5-13.8-5.71-18.76,0.72c-0.19,6.29-5.07,7.96-5.05,12.99c0.04,7.89,11.14,12.21,11.55,18.76
		c-8-2.09-14.19-8.67-22.37-7.22c-4.28,0.76-6.46,5.64-11.55,9.38c-2.78,2.04-8.38,3.24-10.1,5.77c-2.56,3.77-1.74,9.71-4.33,12.26
		c1.62,9.92,16.17,21.23,7.22,30.31c-1.49-4.77-3.62-8.88-5.77-12.99c1.67,0.23,2.77-0.12,3.61-0.72
		c-4.05-4.13-6.81-9.54-9.38-15.15c-3.46,0.47-6.11,1.09-9.38,0c-6.09,2.15-2.58,12.39-5.05,16.59c-7.83-2.6,2.1-14.89-7.22-16.59
		c-5.13,2.76-8.21-0.19-14.43,0c-3.37,2.88-4.64,7.87-10.82,7.93c-2.52,2.05-1.81,7.33-6.5,7.22c-2.78-4.17,1.52-10.42-5.05-10.82
		c-8.17-0.51-8.32,23.22-14.43,27.42c-10.38,6.46-2.75,30.92-15.15,35.36c-2.04-3.55,1.24-7.2,1.44-10.82
		c1.08-1.08,2.17-2.16,3.61-2.89c-0.62-7.28,5.21-14.12,7.22-22.37c0.71-2.92-0.69-6.23,0.72-8.66c5.95-10.26,10.47-20.27-0.72-26.7
		c-5.49,0.76-4.42,8.09-10.82,7.94c-1.68-4.2,2.84-5.96,2.89-10.83c0.08-7.29-7.29-16.36-12.27-16.59
		c-5.97-0.29-5.03,5.47-12.27,5.05c-1.6-1.59,1.26-2.4,1.44-4.33c-6.66-2.92-10.38,2.99-14.43,5.05c-2.44-1.89-5.61-3.05-7.21-5.77
		c4.01-6.34,21.85-5.12,14.43-19.48c-2.03-1.33-6.75,0.02-8.66-1.44c-1.35-11.19,10.98-11.79,7.21-23.09
		c-3.44-0.88-4.32-4.34-5.77-7.21c-10.06,0.86-21.53-1.01-25.25-8.66c2.37-1.84,5.03,0.84,8.66,0c-4.7-7.09-4.43-19.14-14.43-20.92
		c2.64-3.85,7.53-5.46,10.1-9.38c-0.21-8.38,5.5-10.86,9.38-15.15c3.11,1.63,4.29,0.83,8.66,0.72c1.73-0.91-0.4-5.69,1.44-6.49
		c5.21,0.37,0.46,4.32,2.17,6.49c5.42,1.32,3.96-4.21,7.94-4.33c-1.71,7.61,5.99,8.27,9.38,5.05
		c-2.56-15.32-30.11-13.06-25.25-31.02c12.7,5.33,16.78,19.3,29.58,24.53c11.78,0.85,9.63-8.46,12.99-15.15
		c22.15,4.93,11.15-28.49,18.76-40.41c0.7-13.54-17.27-18.51-7.94-31.74c12.88,3.89,3.97,20.62,10.1,28.86
		c3.23,4.35,9.76,4.73,16.59,5.77C320.93,134.72,329.4,139.44,338.95,137.83z M225.68,238.12c1.78,0.1,3.48,0.11,4.33-0.72
		c0-0.72,0-1.44,0-2.17C228.45,233.9,225.1,235.13,225.68,238.12z M233.61,240.29c2.4,1.01,7.46,1.53,7.21-2.17
		C238.21,237.4,232.94,234.76,233.61,240.29z"/>
	<path style="fill-rule:evenodd;clip-rule:evenodd;" d="M342.56,112.58c0.72,0,1.44,0,2.17,0c0.6,2.04-1.02,1.87-0.72,3.61
		C342.43,116.08,342.46,114.37,342.56,112.58z"/>
	<path style="fill-rule:evenodd;clip-rule:evenodd;" d="M401,113.3c2.5-0.5,2.59,2.53,1.44,3.61
		C399.95,117.41,399.86,114.38,401,113.3z"/>
	<path style="fill-rule:evenodd;clip-rule:evenodd;" d="M391.63,148.65c0.36,3.01-1.83,3.46-4.33,3.61
		C388.28,150.6,388.56,148.23,391.63,148.65z"/>
	<path style="fill-rule:evenodd;clip-rule:evenodd;" d="M394.51,152.26c-0.38,1.07-1.07,1.82-1.44,2.89
		C391.54,154.92,392.91,151.73,394.51,152.26z"/>
	<path style="fill-rule:evenodd;clip-rule:evenodd;" d="M231.45,179.68c2.57-0.16,3.77,1.04,3.61,3.61
		C233.06,182.87,231.01,182.52,231.45,179.68z"/>
	<path style="fill-rule:evenodd;clip-rule:evenodd;" d="M220.63,182.57c3.38-0.2,3.51,5.7,2.16,7.94
		C218.99,190.66,218.02,184.57,220.63,182.57z"/>
	<path style="fill-rule:evenodd;clip-rule:evenodd;" d="M75.6,175.22c5.78-0.92,8.2,1.51,12,2.57
		C84.34,179.03,75.86,181.03,75.6,175.22z"/>
	<path style="fill-rule:evenodd;clip-rule:evenodd;" d="M468.11,260.49c-0.29-1.4,3.28-1.05,2.16,0.72c-0.48,0-0.96,0-1.44,0
		C468.96,260.6,468.55,260.53,468.11,260.49z"/>
	<path style="fill-rule:evenodd;clip-rule:evenodd;" d="M465.22,264.1c-4.12,0.85-11.48,3.32-12.27-2.17
		C457.18,262.62,463.55,259.33,465.22,264.1z"/>
	<path style="fill-rule:evenodd;clip-rule:evenodd;" d="M480.37,262.65c1.92,0,3.85,0,5.77,0
		C486.14,266.24,480.37,266.24,480.37,262.65z"/>
	<path style="fill-rule:evenodd;clip-rule:evenodd;" d="M509.95,269.15c0.8,3.21-2.12,4.88-3.61,3.61
		C505.91,269.91,507.96,269.56,509.95,269.15z"/>
	<path style="fill-rule:evenodd;clip-rule:evenodd;" d="M535.93,283.57c0.19-1.69,3.17-0.41,3.61,0
		C539.35,285.27,536.37,283.99,535.93,283.57z"/>
	<path style="fill-rule:evenodd;clip-rule:evenodd;" d="M422.65,301.61c4.28-0.96,3.47,5.16-0.72,3.61
		C421.7,303.55,422.04,302.45,422.65,301.61z"/>
	<path style="fill-rule:evenodd;clip-rule:evenodd;" d="M460.17,316.04c-5.59,1.38-14.58,0.24-14.43-6.49
		C451.91,307.59,456.7,312.93,460.17,316.04z"/>
	<path style="fill-rule:evenodd;clip-rule:evenodd;" d="M206.2,310.99c-0.04,3.79-4.34,6.42-7.22,5.05
		C198.78,311.75,201.99,310.87,206.2,310.99z"/>
	<path style="fill-rule:evenodd;clip-rule:evenodd;" d="M159.3,331.92c-0.71,3.11-4.13,6.63-7.94,4.33
		C151.8,332.6,154.78,331.49,159.3,331.92z"/>
	<path style="fill-rule:evenodd;clip-rule:evenodd;" d="M502.02,356.45c3.68,1.13,7.75,1.86,8.66,5.77
		C506.39,361.7,503.49,359.78,502.02,356.45z"/>
	<path style="fill-rule:evenodd;clip-rule:evenodd;" d="M412.55,127.73c0.98,9.93-11.03,12.99-14.43,20.92
		c-2.07-3.66,3.12-4,5.05-7.94C405.74,135.47,404.25,127.6,412.55,127.73z"/>
</g>
</svg>
