<?xml version="1.0" encoding="utf-8"?>
<!-- Generator: Adobe Illustrator 24.3.0, SVG Export Plug-In . SVG Version: 6.00 Build 0)  -->
<svg version="1.1" xmlns="http://www.w3.org/2000/svg" xmlns:xlink="http://www.w3.org/1999/xlink" x="0px" y="0px"
	 viewBox="0 0 509 417.85" style="enable-background:new 0 0 509 417.85;" xml:space="preserve">
<g>
	<ellipse cx="116.06" cy="162.78" rx="19.26" ry="19.26"/>
	<path d="M116.06,189.65c-10.62,0-19.26,8.64-19.26,19.26s8.64,19.27,19.26,19.27s19.26-8.64,19.26-19.27
		C135.32,198.3,126.68,189.65,116.06,189.65z"/>
	<path d="M254.5,5.07c-10.62,0-19.26,8.64-19.26,19.26s8.64,19.27,19.26,19.27s19.26-8.64,19.26-19.27S265.12,5.07,254.5,5.07z"/>
	<path d="M300.64,5.07c-10.62,0-19.26,8.64-19.26,19.26s8.64,19.27,19.26,19.27s19.26-8.64,19.26-19.27S311.27,5.07,300.64,5.07z"/>
	<path d="M162.2,143.51c-10.62,0-19.26,8.64-19.26,19.26s8.64,19.26,19.26,19.26s19.27-8.64,19.27-19.26
		C181.47,152.15,172.83,143.51,162.2,143.51z"/>
	<path d="M208.36,143.51c-10.62,0-19.27,8.64-19.27,19.26s8.64,19.26,19.27,19.26c10.62,0,19.26-8.64,19.26-19.26
		C227.62,152.15,218.98,143.51,208.36,143.51z"/>
	<ellipse cx="254.51" cy="162.78" rx="19.26" ry="19.26"/>
	<path d="M300.64,143.51c-10.62,0-19.26,8.64-19.26,19.26s8.64,19.26,19.26,19.26s19.26-8.64,19.26-19.26
		C319.91,152.15,311.27,143.51,300.64,143.51z"/>
	<path d="M162.2,189.65c-10.62,0-19.26,8.64-19.26,19.26s8.64,19.27,19.26,19.27s19.27-8.64,19.27-19.27
		C181.47,198.3,172.83,189.65,162.2,189.65z"/>
	<path d="M208.36,189.65c-10.62,0-19.27,8.64-19.27,19.26s8.64,19.27,19.27,19.27c10.62,0,19.26-8.64,19.26-19.27
		C227.62,198.3,218.98,189.65,208.36,189.65z"/>
	<path d="M254.5,189.65c-10.62,0-19.26,8.64-19.26,19.26s8.64,19.27,19.26,19.27s19.26-8.64,19.26-19.27
		C273.76,198.3,265.12,189.65,254.5,189.65z"/>
	<path d="M300.64,189.65c-10.62,0-19.26,8.64-19.26,19.26s8.64,19.27,19.26,19.27s19.26-8.64,19.26-19.27
		C319.91,198.3,311.27,189.65,300.64,189.65z"/>
	<path d="M116.06,235.8c-10.62,0-19.26,8.64-19.26,19.27c0,10.62,8.64,19.26,19.26,19.26s19.26-8.64,19.26-19.26
		C135.32,244.44,126.68,235.8,116.06,235.8z"/>
	<path d="M162.2,235.8c-10.62,0-19.26,8.64-19.26,19.27c0,10.62,8.64,19.26,19.26,19.26s19.27-8.64,19.27-19.26
		C181.47,244.44,172.83,235.8,162.2,235.8z"/>
	<path d="M208.36,235.8c-10.62,0-19.27,8.64-19.27,19.27c0,10.62,8.64,19.26,19.27,19.26c10.62,0,19.26-8.64,19.26-19.26
		C227.62,244.44,218.98,235.8,208.36,235.8z"/>
	<ellipse cx="23.77" cy="162.78" rx="19.26" ry="19.26"/>
	<path d="M23.76,189.65c-10.62,0-19.26,8.65-19.26,19.27s8.64,19.27,19.26,19.27s19.26-8.64,19.26-19.27
		C43.03,198.3,34.39,189.65,23.76,189.65z"/>
	<ellipse cx="69.91" cy="162.79" rx="19.26" ry="19.26"/>
	<path d="M69.91,189.65c-10.62,0-19.26,8.64-19.26,19.26s8.64,19.27,19.26,19.27s19.26-8.64,19.26-19.27
		C89.18,198.3,80.53,189.65,69.91,189.65z"/>
	<path d="M23.76,235.8c-10.62,0-19.26,8.64-19.26,19.27c0,10.62,8.64,19.26,19.26,19.26s19.26-8.64,19.26-19.26
		C43.03,244.44,34.39,235.8,23.76,235.8z"/>
	<path d="M69.91,235.8c-10.62,0-19.26,8.64-19.26,19.27c0,10.62,8.64,19.26,19.26,19.26s19.26-8.64,19.26-19.26
		C89.18,244.44,80.53,235.8,69.91,235.8z"/>
	<path d="M254.5,235.8c-10.62,0-19.26,8.64-19.26,19.27c0,10.62,8.64,19.26,19.26,19.26s19.26-8.64,19.26-19.26
		C273.76,244.44,265.12,235.8,254.5,235.8z"/>
	<path d="M300.64,235.8c-10.62,0-19.26,8.64-19.26,19.27c0,10.62,8.64,19.26,19.26,19.26s19.26-8.64,19.26-19.26
		C319.91,244.44,311.27,235.8,300.64,235.8z"/>
	<ellipse cx="254.51" cy="393.51" rx="19.26" ry="19.26"/>
	<path d="M300.64,374.24c-10.62,0-19.26,8.64-19.26,19.26s8.64,19.26,19.26,19.26s19.26-8.64,19.26-19.26
		S311.27,374.24,300.64,374.24z"/>
	<path d="M346.79,143.51c-10.62,0-19.26,8.64-19.26,19.26s8.64,19.26,19.26,19.26s19.27-8.64,19.27-19.26
		C366.06,152.15,357.42,143.51,346.79,143.51z"/>
	<path d="M346.79,189.65c-10.62,0-19.26,8.64-19.26,19.26s8.64,19.27,19.26,19.27s19.27-8.64,19.27-19.27
		C366.06,198.3,357.42,189.65,346.79,189.65z"/>
	<path d="M392.94,189.65c-10.62,0-19.27,8.64-19.27,19.26s8.64,19.27,19.27,19.27c10.62,0,19.26-8.64,19.26-19.27
		C412.21,198.3,403.56,189.65,392.94,189.65z"/>
	<path d="M346.79,235.8c-10.62,0-19.26,8.64-19.26,19.27c0,10.62,8.64,19.26,19.26,19.26s19.27-8.64,19.27-19.26
		C366.06,244.44,357.42,235.8,346.79,235.8z"/>
	<path d="M300.64,51.21c-10.62,0-19.26,8.64-19.26,19.27c0,10.62,8.64,19.26,19.26,19.26s19.26-8.64,19.26-19.26
		C319.91,59.85,311.27,51.21,300.64,51.21z"/>
	<path d="M300.64,328.1c-10.62,0-19.26,8.64-19.26,19.26s8.64,19.26,19.26,19.26s19.26-8.64,19.26-19.26
		C319.91,336.74,311.27,328.1,300.64,328.1z"/>
	<path d="M346.79,51.21c-10.62,0-19.26,8.64-19.26,19.27c0,10.62,8.64,19.26,19.26,19.26s19.27-8.64,19.27-19.26
		C366.06,59.85,357.42,51.21,346.79,51.21z"/>
	<path d="M346.79,97.36c-10.62,0-19.26,8.64-19.26,19.26s8.64,19.26,19.26,19.26s19.27-8.64,19.27-19.26S357.42,97.36,346.79,97.36z
		"/>
	<path d="M392.94,97.36c-10.62,0-19.27,8.64-19.27,19.26s8.64,19.26,19.27,19.26c10.62,0,19.26-8.64,19.26-19.26
		S403.56,97.36,392.94,97.36z"/>
	<path d="M392.94,143.51c-10.62,0-19.27,8.64-19.27,19.26s8.64,19.26,19.27,19.26c10.62,0,19.26-8.64,19.26-19.26
		C412.2,152.15,403.56,143.51,392.94,143.51z"/>
	<ellipse cx="439.1" cy="162.78" rx="19.26" ry="19.26"/>
	<path d="M439.09,189.65c-10.62,0-19.26,8.64-19.26,19.26s8.64,19.27,19.26,19.27s19.26-8.64,19.26-19.27
		C458.35,198.3,449.71,189.65,439.09,189.65z"/>
	<path d="M485.24,189.65c-10.62,0-19.26,8.64-19.26,19.26s8.64,19.27,19.26,19.27s19.26-8.64,19.26-19.27
		C504.5,198.3,495.86,189.65,485.24,189.65z"/>
	<path d="M392.94,235.8c-10.62,0-19.27,8.64-19.27,19.27c0,10.62,8.64,19.26,19.27,19.26c10.62,0,19.26-8.64,19.26-19.26
		C412.21,244.44,403.56,235.8,392.94,235.8z"/>
	<path d="M439.09,235.8c-10.62,0-19.26,8.64-19.26,19.27c0,10.62,8.64,19.26,19.26,19.26s19.26-8.64,19.26-19.26
		C458.35,244.44,449.71,235.8,439.09,235.8z"/>
	<path d="M346.79,281.95c-10.62,0-19.26,8.64-19.26,19.26s8.64,19.26,19.26,19.26s19.27-8.64,19.27-19.26
		S357.42,281.95,346.79,281.95z"/>
	<path d="M392.94,281.95c-10.62,0-19.27,8.64-19.27,19.26s8.64,19.26,19.27,19.26c10.62,0,19.26-8.64,19.26-19.26
		C412.21,290.6,403.56,281.95,392.94,281.95z"/>
	<path d="M346.79,328.1c-10.62,0-19.26,8.64-19.26,19.26s8.64,19.26,19.26,19.26s19.27-8.64,19.27-19.26S357.42,328.1,346.79,328.1z
		"/>
</g>
</svg>
