<?xml version="1.0" encoding="utf-8"?>
<!-- Generator: Adobe Illustrator 24.3.0, SVG Export Plug-In . SVG Version: 6.00 Build 0)  -->
<svg version="1.1" xmlns="http://www.w3.org/2000/svg" xmlns:xlink="http://www.w3.org/1999/xlink" x="0px" y="0px"
	 viewBox="0 0 536.81 508" style="enable-background:new 0 0 536.81 508;" xml:space="preserve">
<path d="M41.81,292.21H405.1L263.29,439.27c-14.65,15.19-14.21,39.37,0.98,54.02c15.19,14.65,39.37,14.21,54.02-0.98l204.23-211.79
	c14.27-14.8,14.27-38.24,0-53.04L318.29,15.68C310.8,7.91,300.8,4,290.77,4c-9.55,0-19.1,3.55-26.51,10.7
	c-15.19,14.64-15.63,38.83-0.98,54.02l141.81,147.07H41.81c-21.1,0-38.21,17.11-38.21,38.2C3.59,275.1,20.69,292.21,41.81,292.21z"
	/>
</svg>
