<?xml version="1.0" encoding="utf-8"?>
<!-- Generator: Adobe Illustrator 24.3.0, SVG Export Plug-In . SVG Version: 6.00 Build 0)  -->
<svg version="1.1" xmlns="http://www.w3.org/2000/svg" xmlns:xlink="http://www.w3.org/1999/xlink" x="0px" y="0px"
	 viewBox="0 0 513 581" style="enable-background:new 0 0 513 581;" xml:space="preserve">
<path d="M286.07,25.11l43.79,99.31c6.01,13.63,20.16,21.8,34.97,20.19l103.71-11.28c29.54-3.21,48.82,30.2,31.28,54.17l-61.62,84.18
	c-8.8,12.02-8.8,28.36,0,40.38l61.62,84.18c17.55,23.97-1.74,57.38-31.28,54.17l-103.71-11.28c-14.81-1.61-28.96,6.56-34.97,20.19
	l-42.09,95.46c-11.98,27.19-50.56,27.19-62.54,0l-42.09-95.46c-6.01-13.63-20.16-21.8-34.97-20.19L44.45,450.4
	c-29.54,3.21-48.82-30.2-31.28-54.17l61.62-84.18c8.8-12.02,8.8-28.36,0-40.38l-61.61-84.19c-17.55-23.97,1.74-57.38,31.28-54.17
	l103.71,11.28c14.81,1.61,28.96-6.56,34.97-20.19l43.79-99.31C238.26-0.6,274.74-0.6,286.07,25.11z"/>
</svg>
