<?xml version="1.0" encoding="utf-8"?>
<!-- Generator: Adobe Illustrator 24.3.0, SVG Export Plug-In . SVG Version: 6.00 Build 0)  -->
<svg version="1.1" xmlns="http://www.w3.org/2000/svg" xmlns:xlink="http://www.w3.org/1999/xlink" x="0px" y="0px"
	 viewBox="0 0 520 520" style="enable-background:new 0 0 520 520;" xml:space="preserve">
<g>
	<path d="M260,510.43c-26.34,0-47.7-21.36-47.7-47.7V57.27c0-26.34,21.36-47.7,47.7-47.7c26.34,0,47.7,21.36,47.7,47.7v405.45
		C307.7,489.07,286.34,510.43,260,510.43z"/>
	<path d="M462.73,307.7H57.27c-26.34,0-47.7-21.36-47.7-47.7c0-26.34,21.36-47.7,47.7-47.7h405.45c26.34,0,47.7,21.36,47.7,47.7
		C510.43,286.34,489.07,307.7,462.73,307.7z"/>
	<path d="M116.65,451.05c-12.21,0-24.41-4.66-33.73-13.97c-18.63-18.63-18.63-48.83,0-67.46l286.7-286.69
		c18.63-18.63,48.83-18.63,67.46,0c18.63,18.63,18.63,48.83,0,67.46l-286.7,286.69C141.07,446.39,128.86,451.05,116.65,451.05z"/>
	<path d="M403.35,451.05c-12.21,0-24.42-4.66-33.73-13.97L82.92,150.38c-18.63-18.63-18.63-48.83,0-67.46
		c18.62-18.63,48.83-18.63,67.46,0l286.7,286.69c18.63,18.63,18.63,48.83,0,67.46C427.77,446.39,415.56,451.05,403.35,451.05z"/>
</g>
</svg>
