<?xml version="1.0" encoding="utf-8"?>
<!-- Generator: Adobe Illustrator 24.3.0, SVG Export Plug-In . SVG Version: 6.00 Build 0)  -->
<svg version="1.1" xmlns="http://www.w3.org/2000/svg" xmlns:xlink="http://www.w3.org/1999/xlink" x="0px" y="0px"
	 viewBox="0 0 511 494" style="enable-background:new 0 0 511 494;" xml:space="preserve">
<path d="M370.57,482.53l-97.8-51.34c-10.72-5.62-23.52-5.62-34.23,0.02l-97.74,51.47c-26.98,14.2-58.53-8.69-53.4-38.74L106,335.06
	c2.04-11.93-1.92-24.11-10.6-32.55l-79.14-77.06c-21.85-21.26-9.82-58.35,20.35-62.75l109.3-15.96
	c11.98-1.75,22.33-9.28,27.68-20.14l48.82-99.08c13.48-27.35,52.46-27.37,65.97-0.04l48.95,99.02c5.36,10.85,15.72,18.37,27.71,20.1
	l109.32,15.82c30.17,4.36,42.24,41.43,20.42,62.73l-79.04,77.14c-8.66,8.45-12.62,20.63-10.56,32.56l18.74,108.85
	C429.09,473.76,397.57,496.69,370.57,482.53z"/>
</svg>
