<?xml version="1.0" encoding="utf-8"?>
<!-- Generator: Adobe Illustrator 24.3.0, SVG Export Plug-In . SVG Version: 6.00 Build 0)  -->
<svg version="1.1" xmlns="http://www.w3.org/2000/svg" xmlns:xlink="http://www.w3.org/1999/xlink" x="0px" y="0px"
	 viewBox="0 0 103.67 103.33" style="enable-background:new 0 0 103.67 103.33;" xml:space="preserve">
<path d="M51.78,101.71c-5.28,0-9.56-4.28-9.56-9.56v-81.3c0-5.28,4.28-9.56,9.56-9.56s9.56,4.28,9.56,9.56v81.3
	C61.34,97.43,57.06,101.71,51.78,101.71z"/>
<path d="M92.43,61.06h-81.3c-5.28,0-9.56-4.28-9.56-9.56s4.28-9.56,9.56-9.56h81.3c5.28,0,9.56,4.28,9.56,9.56
	S97.71,61.06,92.43,61.06z"/>
<path d="M23.03,89.81c-2.45,0-4.89-0.93-6.76-2.8c-3.74-3.74-3.74-9.79,0-13.53l57.49-57.49c3.74-3.74,9.79-3.74,13.53,0
	s3.74,9.79,0,13.53L29.8,87.01C27.93,88.87,25.48,89.81,23.03,89.81z"/>
<path d="M80.52,89.81c-2.45,0-4.9-0.93-6.76-2.8L16.27,29.52c-3.74-3.74-3.74-9.79,0-13.53c3.73-3.74,9.79-3.74,13.53,0l57.49,57.49
	c3.74,3.74,3.74,9.79,0,13.53C85.42,88.87,82.97,89.81,80.52,89.81z"/>
</svg>
