<?xml version="1.0" encoding="utf-8"?>
<!-- Generator: Adobe Illustrator 24.3.0, SVG Export Plug-In . SVG Version: 6.00 Build 0)  -->
<svg version="1.1" xmlns="http://www.w3.org/2000/svg" xmlns:xlink="http://www.w3.org/1999/xlink" x="0px" y="0px"
	 viewBox="0 0 104.91 102.12" style="enable-background:new 0 0 104.91 102.12;" xml:space="preserve">
<path d="M75.53,98.29L55.92,87.99c-2.15-1.13-4.72-1.13-6.86,0l-19.6,10.32c-5.41,2.85-11.74-1.74-10.71-7.77l3.73-21.83
	c0.41-2.39-0.38-4.83-2.13-6.53L4.49,46.74c-4.38-4.26-1.97-11.7,4.08-12.58l21.92-3.2c2.4-0.35,4.48-1.86,5.55-4.04l9.79-19.87
	c2.7-5.48,10.52-5.49,13.23-0.01l9.81,19.85c1.07,2.18,3.15,3.68,5.56,4.03l21.92,3.17c6.05,0.87,8.47,8.31,4.09,12.58L84.59,62.15
	c-1.74,1.69-2.53,4.14-2.12,6.53l3.76,21.83C87.26,96.53,80.94,101.13,75.53,98.29z"/>
</svg>
