<?xml version="1.0" encoding="utf-8"?>
<!-- Generator: Adobe Illustrator 24.3.0, SVG Export Plug-In . SVG Version: 6.00 Build 0)  -->
<svg version="1.1" xmlns="http://www.w3.org/2000/svg" xmlns:xlink="http://www.w3.org/1999/xlink" x="0px" y="0px"
	 viewBox="0 0 511 431" style="enable-background:new 0 0 511 431;" xml:space="preserve">
<g>
	<path d="M419.17,273.1l0.11,0.29c-49.59,19.9-93.11,52.19-126.5,93.23l-0.04-0.03c-31.71,38.35-80.58,61.67-134.08,58.71
		C69.2,420.36,0.68,343.83,5.62,254.36c4.02-72.69,55.29-131.55,122.36-148.42l-0.02-0.08c56.98-14.47,109.89-39.67,156.33-73.43
		l0.03,0.04c9.91-7.3,20.8-13.3,32.42-17.78c17.8-6.87,37.3-10.15,57.58-9.03c76.63,4.23,135.32,69.79,131.09,146.42
		C502.37,207.43,467.31,253.43,419.17,273.1z"/>
</g>
</svg>
