<?xml version="1.0" encoding="utf-8"?>
<!-- Generator: Adobe Illustrator 24.3.0, SVG Export Plug-In . SVG Version: 6.00 Build 0)  -->
<svg version="1.1" xmlns="http://www.w3.org/2000/svg" xmlns:xlink="http://www.w3.org/1999/xlink" x="0px" y="0px"
	 viewBox="0 0 520 406" style="enable-background:new 0 0 520 406;" xml:space="preserve">
<style type="text/css">
	.st0{stroke:#000000;stroke-miterlimit:10;}
</style>
<g>
	<path class="st0" d="M507.9,309.6c4.1-12.8,5.9-25.1,4.7-35.6c-4.8-41.9-34.3-78.2-70.9-99c-29-16.5-63.7-25.4-85.8-50.5
		c-17.2-19.6-24-46.2-38.6-67.8C296,25.2,258,6.4,220,5.6c-38.1-0.8-75.7,15.4-103.4,41.5C88.9,73.3,70.9,108.8,63,146
		c-5.2,24.3-6.4,50.2-18.8,71.8c-6.5,11.4-15.8,20.9-22.9,31.8C4.7,275.1,0.5,308.2,10.1,337c2.7,8,6.4,15.5,10.9,22.5h457.1
		C491.4,345.7,501.8,328.8,507.9,309.6z"/>
	<path class="st0" d="M21,359.5c0.4,0.7,0.9,1.3,1.3,2C39,385.8,66.8,400,96.3,400h286.6c36.7,0,71-15.1,95.3-40.5L21,359.5
		L21,359.5z"/>
</g>
</svg>
