<?xml version="1.0" encoding="utf-8"?>
<!-- Generator: Adobe Illustrator 24.3.0, SVG Export Plug-In . SVG Version: 6.00 Build 0)  -->
<svg version="1.1" xmlns="http://www.w3.org/2000/svg" xmlns:xlink="http://www.w3.org/1999/xlink" x="0px" y="0px"
	 viewBox="0 0 456 404" style="enable-background:new 0 0 456 404;" xml:space="preserve">
<g>
	<path d="M87,393.6c-9.8-3.4-19.2-8.3-28.3-15C11.3,343.1-5.3,272.9,21.4,222c8.1-15.4,22.2-26,30.7-40.6
		c8.5-14.6,10-31.6,10.2-47.9c0.2-16.6,4.3-32.5,12.1-47.6c18.6-35.9,56.4-60.3,96.2-71.7c20.1-5.8,41.7-8.6,62.7-7.9
		c25,0.9,51,11.3,73.2,21.4c29.6,13.4,59.6,30,86.9,46.9c23.3,14.5,45.1,34.3,51.8,60.7c7.8,30.8-6.7,60.5-15.8,89.5
		c-9.8,31.3-0.1,61.5-6.5,92.8c-5,24.8-25.1,45.8-49.8,55.2c-29.6,11.2-58.8-2.3-88.8-1c-32.8,1.4-64.3,11.9-95.8,19.6
		C154.4,399.7,119,404.7,87,393.6z"/>
</g>
</svg>
