<?xml version="1.0" encoding="utf-8"?>
<!-- Generator: Adobe Illustrator 24.3.0, SVG Export Plug-In . SVG Version: 6.00 Build 0)  -->
<svg version="1.1" xmlns="http://www.w3.org/2000/svg" xmlns:xlink="http://www.w3.org/1999/xlink" x="0px" y="0px"
	 viewBox="0 0 520 419" style="enable-background:new 0 0 520 419;" xml:space="preserve">
<g>
	<g>
		<g>
			<path id="XMLID_10_" d="M443.9,397.8c54.4-24.3,70.5-90.1,71.1-144.4c0.7-64.8-20.4-129.9-63.1-179.2
				c-25.1-29-57.7-51.3-94.7-61.7C305.2-2,245,10.9,200.9,41c-16.6,11.3-31.9,24.9-44.9,40.2c-9.2,10.8-15.9,23.4-24.5,34.7
				c-10.8,14.2-24.7,24.9-40,33.8c-26,15-52.3,29.4-68.8,55.5C4.8,233.4,1.6,271.8,8,304c12.2,61.7,60.9,102.2,122.7,106.4
				c42,2.9,85.6-1.2,127.7-1.2c28.6,0,57.2,0,85.7,0c30.4,0,62.6,1.5,92-8.4C438.8,399.9,441.4,398.9,443.9,397.8z"/>
		</g>
	</g>
</g>
</svg>
