<?xml version="1.0" encoding="utf-8"?>
<!-- Generator: Adobe Illustrator 24.3.0, SVG Export Plug-In . SVG Version: 6.00 Build 0)  -->
<svg version="1.1" xmlns="http://www.w3.org/2000/svg" xmlns:xlink="http://www.w3.org/1999/xlink" x="0px" y="0px"
	 viewBox="0 0 520 368" style="enable-background:new 0 0 520 368;" xml:space="preserve">
<g>
	<path d="M484.6,353.9c7.4-3.6,14.1-8.6,19.7-15.6c20.2-25.1,13.3-59,0.2-85.7c-6.1-12.5-13.9-24.7-15.9-38.5
		c-2.3-15.4,2.7-30.9,3.1-46.4c0.8-32.6-21.4-64.5-52.3-75.1c-33-11.3-69.7,0.5-103.9-6.4c-29.5-6-54.2-25.2-79.1-42.2
		c-27.9-19.1-61-34.9-95.7-28.4c-47.9,8.9-96.9,43.5-110.2,92.2c-9.8,36,5.6,74.3-8.2,109.8C35.1,236,20.6,251.2,16,270.4
		c-5.4,22.8,4.9,47.4,22,63.4c8.5,8,18.5,14.2,29.3,18.9c15.8,6.9,32.9,10.2,50.1,10.2h207c29.2,0,58.4,0,87.6,0
		C435.4,362.9,463,364.4,484.6,353.9z"/>
</g>
</svg>
