<?xml version="1.0" encoding="utf-8"?>
<!-- Generator: Adobe Illustrator 24.3.0, SVG Export Plug-In . SVG Version: 6.00 Build 0)  -->
<svg version="1.1" xmlns="http://www.w3.org/2000/svg" xmlns:xlink="http://www.w3.org/1999/xlink" x="0px" y="0px"
	 viewBox="0 0 520 458" style="enable-background:new 0 0 520 458;" xml:space="preserve">
<style type="text/css">
	.st0{display:none;fill:#808285;}
	.st1{display:none;fill:#58595B;}
</style>
<g>
	<g>
		<path d="M497.9,239.7c-5.1-7.3-11.4-13.8-18.7-18.9c-16-11.1-37.1-16.5-47.3-33.1c-9-14.6-6.4-33.3-1.9-49.8s10.6-33.4,7.9-50.3
			c-4.5-27.9-31.2-46.2-57-57.7C279.6-15.3,106.3,6.9,37.8,92.2C27.3,105.4,5.5,132.6,5.7,170c0.1,14.8,1.9,29.5,8.5,42.9
			c15,30.7,48.6,42.5,43.1,82c-2,13.9-7.3,27.1-11.4,40.6c0,0-4.5,31.4,7.3,62.3c28.9,75.2,366.5,75,435.6-26.8
			c26.5-39,25.5-77.8,25.5-77.8C514,283.9,512.7,260.9,497.9,239.7z"/>
		<g>
			<path class="st0" d="M319.8,362c-1.8,0-3.4,1.2-3.9,2.8c3.7-1.1,7.5-1.9,11.5-2.3c19.4-1.9,38.8,4.2,58.2,4.4
				c11.4,0.1,22.8-1.3,33.9-4.1c-0.7-0.5-1.5-0.8-2.4-0.8L319.8,362L319.8,362z"/>
			<path class="st1" d="M485.8,334.7H114.9h-1.2c-5.7,0-10.2,4.6-10.2,10.2l0,0c0,5.7,4.6,10.2,10.2,10.2h0.3h0.7h363.7h7h0.3
				c5.5,0,9.9-4.3,10.2-9.6c0-0.2,0-0.4,0-0.6l0,0C496,339.3,491.4,334.7,485.8,334.7z"/>
		</g>
	</g>
</g>
</svg>
