<?xml version="1.0" encoding="utf-8"?>
<!-- Generator: Adobe Illustrator 24.3.0, SVG Export Plug-In . SVG Version: 6.00 Build 0)  -->
<svg version="1.1" xmlns="http://www.w3.org/2000/svg" xmlns:xlink="http://www.w3.org/1999/xlink" x="0px" y="0px"
	 viewBox="0 0 473 423" style="enable-background:new 0 0 473 423;" xml:space="preserve">
<g>
	<path d="M85.8,406.2c-35.2-15.6-62.4-46-74.2-82.9c-7.2-22.3-8.4-46.5-3.9-69.4c4.9-25,18.8-37.9,30.8-59.2
		c12.8-22.5,12-41,14-65.6c1.9-24,10.8-47.6,25.5-66.7c22.7-29.6,58.9-47.2,95.5-51.4c43.8-5.1,76.1,19.2,117.7,24.8
		c41.9,5.6,86.4-17.6,125.4-1.4c36.3,15.1,52,61.2,43,99.5c-3.1,13-8.5,25.4-11.6,38.4c-16.1,66.4,28.4,150.9-22.3,208
		c-15,16.9-36.5,26.9-58.6,31c-33.2,6.1-65.9-2.1-99-4.1c-57.2-3.5-111,22.1-168,4.4C95.1,410,90.4,408.2,85.8,406.2z"/>
</g>
</svg>
