<?xml version="1.0" encoding="utf-8"?>
<!-- Generator: Adobe Illustrator 24.3.0, SVG Export Plug-In . SVG Version: 6.00 Build 0)  -->
<svg version="1.1" xmlns="http://www.w3.org/2000/svg" xmlns:xlink="http://www.w3.org/1999/xlink" x="0px" y="0px"
	 viewBox="0 0 515 491" style="enable-background:new 0 0 515 491;" xml:space="preserve">
<g>
	<path d="M493.22,334.47c-3.62-5.58-7.8-10.86-12.43-15.96c-9.32-10.26-17.06-20.46-20.29-34.89
		c-6.95-31.18,40.69-81.45,25.44-111.26c-9.12-17.82-28.04-27.06-37.43-44.72c-11.37-21.35-6.93-51.47-23.11-68.45
		c-17.1-17.94-73.71,9.11-96.02,3.45c-30.17-7.65-51.55-60-81.75-56.46C224.88,8.85,204.61,50,181.68,45.99
		c-17.27-3.02-31.77-22.84-48.91-20.86C116.57,27,108.3,46.9,95.26,57.35C82.52,67.57,65.65,68.34,49.94,70.92
		s-32.67,8.7-39.66,24.64c-6.96,15.88-1.28,36.35,8.57,51.26c9.85,14.93,20.7,26.01,32.24,39.31c11.53,13.3,21.59,30.3,21.19,48.43
		c-0.21,9.4-5.76,17.64-11.51,24.66c-6.45,7.87-13.88,14.91-19.92,23.11c-5.62,7.63-8.37,15.88-8.57,25.42
		c-0.24,11.33,5.93,23.03,12.97,31.96c6.98,8.86,16.6,15.04,25.48,21.8c18.09,13.75,55.96,24.83,70.6,43.23
		c17.13,21.54,24.53,52.73,45.48,69.24c18.82,14.83,43.97,13.32,64.06,3.57c20.08-9.75,36.06-18.59,53.24-33.68
		c17.17-15.08,36.29-29.05,58.32-31.64c23.69-2.78,47.89-0.05,71.59,5.71c16.07,3.89,33.75,4.53,49.02-1.3
		c7.95-3.04,15.76-8.34,20.24-16.52c4.1-7.48,5.13-16.93,4.2-25.85C505.89,359.1,500.79,346.14,493.22,334.47z"/>
</g>
</svg>
