<?xml version="1.0" encoding="utf-8"?>
<!-- Generator: Adobe Illustrator 24.3.0, SVG Export Plug-In . SVG Version: 6.00 Build 0)  -->
<svg version="1.1" xmlns="http://www.w3.org/2000/svg" xmlns:xlink="http://www.w3.org/1999/xlink" x="0px" y="0px"
	 viewBox="0 0 510.32 493.62" style="enable-background:new 0 0 510.32 493.62;" xml:space="preserve">
<g>
	<g>
		<path d="M101.86,62.58c39.48,9.11,72.82-3.9,106.14-28.77c11.99-8.94,23.74-19.15,37.88-24.7c16.88-6.62,28.69-1.52,40.59,10.69
			c6.41,6.58,12.13,13.87,19.53,19.38c11.89,8.85,29.15,10.35,43.63,6.8c19.68-4.84,39.46-6.37,54.66,8.8
			c7.39,7.37,11.82,17.16,14.25,27.23c3.03,12.57,0.92,24.65,7.53,36.4c12.94,22.94,42.66,25.03,60.38,43.27
			c13.81,14.21,19.66,33.52,18.98,53.07c-0.79,22.75-9.79,45.02-22.2,66.25c-11.34,19.4-19.91,35.96-15.66,56.54
			c2.68,12.95,8.03,25.14,11.46,37.88c3.43,12.75,4.86,26.53-0.23,39.83c-13.75,35.88-56.75,33.28-86.81,22.49
			c-15.69-5.64-30.43-13.11-46.73-17.48c-14.37-3.86-33.48,3.02-47.48,12.19c-13.74,9-19.72,26.12-30.15,37.61
			c-6.82,7.52-15.02,12.55-25.21,15.58c-12.1,3.59-26.16,1.32-37.46-2.61c-11.21-3.89-20.18-11.04-29.59-17.33
			c-19.16-12.82-40.25-44.91-63.56-53.11c-27.28-9.61-62.57-7.22-85.37-21.89C5.96,377.52,1.46,353.56,7.05,331.88
			s11.21-39.25,23.22-59.79c12.02-20.54,22.37-42.57,19.79-63.93c-2.77-22.97-11.59-44.78-23.51-65.23
			c-8.09-13.86-13.06-30.19-10.51-46.2c1.33-8.33,5.12-17.21,12.83-23.84c7.04-6.06,16.92-9.83,26.73-11.63
			c13.48-2.46,29.46-3.08,41.96,0.27C99.02,61.9,100.44,62.25,101.86,62.58z"/>
	</g>
</g>
</svg>
