<?xml version="1.0" encoding="utf-8"?>
<!-- Generator: Adobe Illustrator 24.3.0, SVG Export Plug-In . SVG Version: 6.00 Build 0)  -->
<svg version="1.1" xmlns="http://www.w3.org/2000/svg" xmlns:xlink="http://www.w3.org/1999/xlink" x="0px" y="0px"
	 viewBox="0 0 513 573.52" style="enable-background:new 0 0 513 573.52;" xml:space="preserve">
<g>
	<path d="M6.33,383.07c0.39,0.23,0.75,0.44,1.15,0.66c38.54,22.23,30.74,24.86,51.21,30.81c-3.02,1.15-6.53,1.48-10.56,0.94
		c5.15,5.99,14.01,9.82,26.47,11.6l-8.01,3.66c11.09,5.14,21.78,9.36,30.83,9.76l-4.53,6.68c9.34,2.47,18.93,4.19,29.32,4.89
		l-2.87,4.68c5.48,2.15,13.9,2.49,23.11,2.32l-0.05,4.15c8.63,2.19,19.06,2.01,29.71,1.54c-0.78,0.84-0.71,2.31-2.08,3.35
		c9.51,1.28,17.95,1.4,25.61,0.65l0.32,3.53c8.61-1.12,30.6,1.76,48.76,5.06c0.23,0.68,0.54,1.29,0.9,1.91
		c-8.93-0.69-18.3-1.86-21.99-3.3l-0.77,1.79c-3.88-1.37-8.29-2.38-13.47-2.93c0.53,0.72,0.27,1.46,0.53,1.99
		c-5.5-1.58-10.91-3.02-15.76-2.98l-0.66,2.14c-4.78-1.25-9.24-2.16-12.45-1.74l0.73,2.77c-5.54-0.97-10.83-1.29-16.11-1.21
		l1.28,4.02c-4.81-0.94-11.09-0.13-17.72,1.11l3.6,2.91c-6.8-0.66-12.06,0.18-15.73,2.61c2.17,0.24,3.94,0.85,5.33,1.83
		c-11.64,0.45-8.01,2.81-31.76,9.35c-0.27,0.07-0.56,0.15-0.85,0.23c0.25,0.01,0.49,0.01,0.74,0.02c25.08,0.59,22.45,3.7,33.76,1.36
		c-0.98,1.27-2.46,2.28-4.47,3.03c4.39,1.45,9.71,1,15.98-1.26l-2.38,3.64c6.79-0.4,13.08-1.12,17.33-3.17l0.23,4.15
		c5.08-1.18,10.02-2.76,14.98-5.01l0.3,2.83c3.22-0.38,7.16-2.3,11.28-4.64l1.4,1.89c4.66-1.13,9.33-3.79,14-6.63
		c-0.06,0.57,0.47,1.22,0.2,2.03c4.75-1.76,8.62-3.79,11.85-6.02l1.35,1.53c3.29-2.46,13.11-6.22,22.02-9.14
		c0.15,0.12,0.31,0.21,0.47,0.31v87.48h12.68v-87.48c0.65-0.46,1.31-0.88,1.85-1.47c10.17,3.25,21.96,7.68,25.77,10.53l1.48-1.67
		c3.52,2.43,7.75,4.65,12.94,6.57c-0.29-0.88,0.29-1.6,0.22-2.22c5.1,3.1,10.2,6,15.3,7.24l1.52-2.07c4.5,2.56,8.8,4.66,12.32,5.07
		l0.33-3.09c5.42,2.45,10.81,4.18,16.36,5.47l0.25-4.53c4.64,2.24,11.51,3.02,18.93,3.46l-2.6-3.97c6.84,2.47,12.66,2.96,17.45,1.38
		c-2.2-0.82-3.81-1.93-4.88-3.31c12.36,2.56,9.48-0.85,36.88-1.49c0.28,0,0.54-0.01,0.81-0.02c-0.31-0.09-0.63-0.18-0.92-0.25
		c-25.95-7.14-21.98-9.72-34.7-10.22c1.52-1.07,3.45-1.74,5.82-2c-4-2.65-9.75-3.57-17.18-2.85l3.93-3.18
		c-7.25-1.36-14.11-2.24-19.36-1.22l1.4-4.39c-5.76-0.09-11.54,0.27-17.6,1.32l0.8-3.03c-3.51-0.46-8.38,0.53-13.6,1.9l-0.73-2.34
		c-5.3-0.05-11.21,1.53-17.22,3.26c0.28-0.57,0-1.39,0.57-2.17c-5.65,0.6-10.47,1.71-14.71,3.2l-0.84-1.95
		c-4.44,1.73-16.36,3.11-26.91,3.82c0.27-0.57,0.38-1.19,0.55-1.8c18.58-3.49,42.27-6.69,51.28-5.52l0.32-3.53
		c7.66,0.74,16.11,0.63,25.61-0.65c-1.37-1.04-1.3-2.51-2.08-3.35c10.65,0.47,21.08,0.66,29.71-1.54l-0.05-4.15
		c9.21,0.17,17.62-0.17,23.11-2.32l-2.87-4.68c10.4-0.7,19.99-2.42,29.32-4.89l-4.53-6.68c9.06-0.4,19.74-4.62,30.83-9.76
		l-8.01-3.66c12.46-1.78,21.32-5.61,26.47-11.6c-4.03,0.53-7.53,0.2-10.56-0.94c20.46-5.95,12.67-8.59,51.21-30.81
		c0.39-0.22,0.76-0.43,1.14-0.66c-0.54,0.12-1.09,0.23-1.6,0.35c-44.86,9.96-41.96,3.17-60.7,12.36c1.02-2.72,3.07-5.18,6.18-7.39
		c-8.59-0.68-17.82,2.47-27.67,9.28l2.2-7.6c-11.84,3.69-22.61,7.76-29.03,13.31l-2.73-7.37c-8.35,4.35-16.24,9.36-23.77,15.58
		l-2.12-4.96c-5.53,2.07-11.42,7.28-17.43,13.3l-3.56-2.79c-7.64,4.06-14.41,10.91-21.14,18.05c-0.21-1.04-1.5-1.99-1.52-3.55
		c-7.44,5.25-13.14,10.59-17.61,16.02l-3.31-2.14c-4.75,6.26-21.87,18.45-36.83,27.92c-0.14-1-0.22-2.02-0.6-2.92
		c21.01-17.97,49.61-39.64,62.78-44.59l-3.07-4.86c10.78-4.48,21.74-10.64,32.93-19.09c-2.82-0.39-4.19-2.37-6.03-2.91
		c14.42-6.97,28.28-14.15,37.42-23.17l-4.16-5.4c12.23-6.33,22.93-12.78,27.99-19.5l-8.38-4.1c12.94-8.32,23.81-17.4,33.61-27.29
		l-12.53-5.53c11.48-6.97,21.32-20.12,30.78-34.75l-14.11,0.9c14.57-11.21,22.4-22.53,23.24-34.06c-4.75,3.57-9.67,5.63-14.77,6.28
		c20.95-22.37,8.12-20.27,36.7-76.84c0.3-0.57,0.57-1.1,0.85-1.68c-0.6,0.54-1.2,1.08-1.75,1.6
		c-48.97,44.99-51.87,34.04-67.36,59.41c-1.35-4.28-1.09-8.97,0.8-14.09c-11.94,5.22-20.92,15.92-27.11,31.86l-4.62-11.53
		c-11.87,13.27-21.98,26.27-24.9,38.12l-10.86-7.72c-6.64,11.65-12.05,23.83-15.77,37.34l-7.67-4.99
		c-5.2,6.65-7.79,17.68-9.71,29.84l-7.42-1.11c-6.01,10.76-8.11,24.56-9.89,38.72c-1.31-1.21-3.92-1.54-5.5-3.58
		c-4.57,12.18-6.77,23.24-7.26,33.54l-6.45-0.45c-0.04,11.96-11.13,41.62-21.69,65.06c-0.98-0.7-2.01-1.24-3.19-1.6
		c8.18-32.44,21.86-74.1,32.34-87.55l-7.39-3.5c8.13-11.35,15.07-24.66,20.37-40.61c-3.42,1.25-6.56-0.1-9.03,0.4
		c10.08-16.26,19.36-32.41,21.94-47.77l-9.03-3.45c8.2-14.26,14.61-27.71,14.61-38.11l-12.59,0.5
		c7.32-16.86,11.75-33.31,14.33-50.02l-18.34,1.4c6.84-14.51,6.77-34.81,5.06-56.52l-14.75,9.4c6.73-21.01,5.96-38.11-2.65-51.27
		c-2.27,6.75-5.96,11.95-11.02,15.71c4.5-37.06-7.85-27.11-23.26-106.29c-0.14-0.8-0.28-1.55-0.45-2.35
		c-0.21,0.95-0.42,1.9-0.59,2.8c-16.57,78.63-28.81,68.32-24.83,105.44c-5.02-3.9-8.61-9.2-10.78-15.96
		c-8.79,12.85-9.8,29.96-3.42,51.17l-14.61-9.9c-2.06,21.66-2.41,41.96,4.19,56.72l-18.31-2c2.34,16.76,6.49,33.36,13.57,50.42
		l-12.56-0.9c-0.21,10.4,6.07,24.06,14.02,38.56l-9.07,3.2c2.3,15.4,11.4,31.81,21.17,48.42c-2.44-0.55-5.58,0.65-9-0.65
		c5.06,16.1,11.79,29.56,19.77,41.16l-7.46,3.35c10.25,13.69,23.26,55.62,30.96,88.29c-0.33,0.12-0.67,0.18-0.98,0.33
		c-10.24-23.05-20.63-51.16-20.67-62.74l-6.45,0.45c-0.49-10.3-2.69-21.36-7.26-33.54c-1.58,2.04-4.19,2.37-5.5,3.58
		c-1.77-14.16-3.87-27.95-9.89-38.72l-7.42,1.11c-1.92-12.16-4.51-23.19-9.71-29.84l-7.67,4.99c-3.73-13.51-9.13-25.69-15.77-37.34
		l-10.86,7.72c-2.92-11.85-13.03-24.85-24.9-38.12l-4.62,11.53c-6.2-15.94-15.18-26.64-27.11-31.86c1.89,5.12,2.15,9.81,0.8,14.09
		c-15.49-25.38-18.39-14.42-67.36-59.41c-0.55-0.52-1.15-1.06-1.75-1.6c0.28,0.58,0.55,1.11,0.85,1.68
		c28.58,56.57,15.75,54.47,36.7,76.84c-5.09-0.65-10.01-2.71-14.76-6.28c0.84,11.52,8.67,22.85,23.24,34.06l-14.11-0.9
		c9.46,14.63,19.3,27.77,30.78,34.75l-12.53,5.53c9.8,9.89,20.67,18.97,33.61,27.29l-8.38,4.1c5.06,6.72,15.76,13.16,27.99,19.5
		l-4.16,5.4c9.14,9.02,23,16.2,37.42,23.17c-1.84,0.55-3.21,2.52-6.03,2.91c11.19,8.45,22.15,14.61,32.93,19.09l-3.07,4.86
		c12.71,4.78,39.75,25.12,60.52,42.7c-0.51,0.97-0.79,2.01-0.99,3.12c-14.3-9.21-29.82-20.41-34.3-26.32l-3.31,2.14
		c-4.46-5.43-10.16-10.77-17.61-16.02c-0.02,1.57-1.3,2.51-1.52,3.55c-6.73-7.14-13.5-13.99-21.14-18.05l-3.56,2.78
		c-6-6.02-11.9-11.23-17.43-13.3l-2.12,4.96c-7.53-6.22-15.42-11.23-23.77-15.58l-2.73,7.37c-6.41-5.56-17.19-9.62-29.03-13.31
		l2.2,7.6c-9.86-6.81-19.08-9.96-27.67-9.28c3.11,2.22,5.16,4.68,6.18,7.39c-18.74-9.18-15.84-2.4-60.7-12.36
		C7.42,383.3,6.87,383.19,6.33,383.07z"/>
</g>
</svg>
