<?xml version="1.0" encoding="utf-8"?>
<!-- Generator: Adobe Illustrator 24.3.0, SVG Export Plug-In . SVG Version: 6.00 Build 0)  -->
<svg version="1.1" xmlns="http://www.w3.org/2000/svg" xmlns:xlink="http://www.w3.org/1999/xlink" x="0px" y="0px"
	 viewBox="0 0 511 495" style="enable-background:new 0 0 511 495;" xml:space="preserve">
<g>
	<path d="M191.21,463.45c-24.36,2.99-33.01,15.84-32.94,16.07c0.02-0.07,8.5,3.32,20.81,5.58c12.21,2.32,28.24,3.51,41.35,0.61
		c26.22-5.94,28.91-22.14,29.01-21.92c0.01-0.06-8.84-0.56-20.32-1.05C217.57,462.3,203.41,461.88,191.21,463.45z"/>
	<path d="M137.17,436.85c-23.1-1.76-34.77,8.93-34.74,9.18c0.03-0.07,6.95,4.83,17.52,9.33c10.49,4.56,24.64,8.71,37.17,8.37
		c25.09-0.82,32.09-15.9,32.14-15.66c0.02-0.05-7.6-2.17-17.7-4.78C161.4,440.73,148.74,437.66,137.17,436.85z"/>
	<path d="M94.43,400.83c-21.31-6.21-35.25,1.81-35.26,2.05c0.04-0.06,5.36,6.04,14.11,12.44c8.67,6.44,20.78,13.19,32.47,15.27
		c23.43,4.03,33.99-9.16,34-8.91c0.02-0.05-6.33-3.53-14.96-7.99C116.09,409.28,105.12,403.87,94.43,400.83z"/>
	<path d="M63,357.6c-18.99-10.26-34.44-5.28-34.5-5.05c0.04-0.05,3.74,6.93,10.58,14.88c6.76,7.97,16.66,16.9,27.24,21.21
		c21.23,8.5,34.6-2.17,34.57-1.93c0.03-0.05-5.03-4.64-12.1-10.65C81.67,370.08,72.54,362.67,63,357.6z"/>
	<path d="M42.88,309.35c-16.13-13.8-32.36-12.09-32.46-11.87c0.05-0.05,2.09,7.5,6.92,16.61c4.75,9.11,12.28,19.78,21.49,26.08
		c18.49,12.5,33.93,4.81,33.86,5.04c0.03-0.04-3.7-5.5-9.11-12.74C58.12,325.23,50.99,316.21,42.88,309.35z"/>
	<path d="M34.05,258.29c-12.74-16.74-28.99-18.37-29.13-18.18c0.05-0.04,0.42,7.75,3.14,17.62c2.64,9.85,7.65,21.78,15.21,29.78
		c15.23,15.91,31.98,11.53,31.87,11.75c0.04-0.03-2.35-6.09-6-14.24C45.44,276.86,40.48,266.63,34.05,258.29z"/>
	<path d="M36.54,206.61c-8.82-18.97-24.34-23.87-24.52-23.71c0.06-0.03-1.29,7.68-0.77,17.88c0.44,10.18,2.75,22.85,8.41,32.2
		c11.43,18.63,28.75,17.75,28.6,17.94c0.05-0.02-0.96-6.42-2.76-15.13C43.65,227.09,41.01,216.07,36.54,206.61z"/>
	<path d="M50.33,156.51c-4.37-20.38-18.41-28.34-18.63-28.22c0.07-0.01-3.02,7.27-4.8,17.37c-1.85,10.06-2.4,22.95,1.09,33.25
		c7.1,20.56,24.24,23.22,24.04,23.38c0.05-0.01,0.45-6.48,0.6-15.37C52.73,178.02,52.58,166.69,50.33,156.51z"/>
	<path d="M75.42,110.2c0.62-20.88-11.19-31.54-11.46-31.46c0.07,0-4.78,6.51-8.95,16.06c-4.24,9.49-7.81,22.02-6.76,32.83
		c2.23,21.6,18.44,27.68,18.2,27.8c0.06,0,1.9-6.26,4.09-14.94C72.68,131.78,75.18,120.64,75.42,110.2z"/>
	<path d="M111.82,69.87c2.92-10.18,2.45-18.47,0.94-24.23c-1.46-5.75-3.94-8.97-3.95-8.95c0.08,0.02-6.57,5.42-13.23,13.93
		c-6.73,8.45-13.47,20.01-15.13,30.83c-3.17,21.64,11.36,30.9,11.08,30.96c0.07,0.01,3.37-5.75,7.7-13.82
		C103.51,90.48,108.83,80.06,111.82,69.87z"/>
	<path d="M159.52,37.72c5.94-9.39,7.92-17.61,8.1-23.55c0.23-5.93-1.36-9.59-1.37-9.58c0.09,0.03-8.39,3.97-17.64,10.96
		c-9.31,6.91-19.4,16.88-24.03,27.15c-4.71,10.27-3.75,18.45-1.93,24.02c1.87,5.58,4.6,8.56,4.6,8.59
		c0.07,0.02,4.87-4.96,11.44-11.99C145.22,56.23,153.51,47.1,159.52,37.72z"/>
	<path d="M228.02,19.8c0,0.05-5.7-0.51-14.56,0.52c-8.81,1.01-20.78,3.61-32.1,9.49c-11.38,5.82-19.47,13.48-24.5,19.47
		c-5.07,6.02-7.07,10.37-7.13,10.36c0,0,0.02-0.01,0.06-0.03c-0.04,0.02-0.06,0.03-0.06,0.03c0.03-0.06,4.72,0.91,12.57,0.41
		c7.8-0.49,18.77-2.45,30.22-8.15c11.45-5.62,20.65-13.7,26.7-20.19c6.09-6.52,9.03-11.44,9.06-11.41c0.01-0.03,0.2-0.29,0.13-0.41
		C228.36,19.79,228.05,19.81,228.02,19.8z"/>
	<path d="M282.94,19.8c0,0.05,5.7-0.51,14.56,0.52c8.81,1.01,20.78,3.61,32.1,9.49c11.38,5.82,19.47,13.48,24.5,19.47
		c5.07,6.02,7.07,10.37,7.13,10.36c0,0-0.02-0.01-0.06-0.03c0.04,0.02,0.06,0.03,0.06,0.03c-0.03-0.06-4.72,0.91-12.57,0.41
		c-7.8-0.49-18.77-2.45-30.22-8.15c-11.45-5.62-20.65-13.7-26.7-20.19c-6.09-6.52-9.03-11.44-9.06-11.41
		c-0.01-0.03-0.2-0.29-0.13-0.41C282.6,19.79,282.91,19.81,282.94,19.8z"/>
	<path d="M249.67,462.36c0.02,0.01,0.45-3.9-1.35-9.55c-1.74-5.67-5.71-13.07-13.27-20.48c-7.63-7.39-16.94-13.75-24.17-18.54
		c-7.25-4.75-12.42-7.93-12.49-7.9c0.01,0.02-1.85,3.52-2.41,9.19c-0.51,5.65,0.28,13.47,6.77,21.81
		c6.4,8.35,17.88,15.15,28.05,19.38C240.94,460.58,249.76,462.32,249.67,462.36z"/>
	<path d="M189.89,446.75c0.01,0.02,1.54-3.66,1.61-9.42c0.12-5.76-1.21-13.61-5.79-22.12c-9.53-16.78-25.81-32.14-25.72-32.35
		c0,0.02-2.69,3.04-4.79,8.38c-2.05,5.34-3.51,13.02,0.04,22.27c3.48,9.25,11.87,17.94,19.7,23.9
		C182.74,443.44,189.97,446.73,189.89,446.75z"/>
	<path d="M140.7,420.54c0.29,0.03,9.02-12.99,4.98-31.15c-4.13-17.98-15.54-36-15.43-36.2c0.26,0.08-14.06,9.45-12.57,28.65
		c0.81,9.6,6.28,19.61,11.88,26.85C135.1,415.99,140.77,420.53,140.7,420.54z"/>
	<path d="M102.09,385.79c0.25,0.09,12-10.76,12.85-29.11c0.74-18.18-5.93-37.93-5.79-38.1c0.22,0.12-15.82,6.36-19.11,25.26
		c-1.58,9.46,1.13,20.22,4.58,28.32C98.02,380.31,102.16,385.79,102.09,385.79z"/>
	<path d="M74.07,344.55c0.21,0.13,14.22-8.03,19.44-25.65c5.08-17.48,3.04-38.05,3.21-38.2c0.18,0.16-16.84,3-24.36,20.72
		c-3.71,8.88-3.6,19.88-2.2,28.42C71.5,338.43,74.13,344.57,74.07,344.55z"/>
	<path d="M56.64,298.9c0.16,0.17,15.7-4.93,24.75-21.04c8.88-16,11.35-36.5,11.55-36.6c0.13,0.19-17.11-0.48-28.34,15.28
		c-5.57,7.91-7.9,18.65-8.45,27.26C55.54,292.43,56.69,298.92,56.64,298.9z"/>
	<path d="M49.8,250.88c0.12,0.19,16.43-1.62,28.78-15.52c12.15-13.82,19.02-33.38,19.24-33.45c0.09,0.21-16.63-3.95-31.03,9.19
		c-7.16,6.61-11.76,16.64-14.18,24.93C50.13,244.34,49.84,250.92,49.8,250.88z"/>
	<path d="M53.54,202.56c0.08,0.21,16.41,1.75,31.53-9.34c7.6-5.5,13.91-12.75,18.61-18.57c4.66-5.83,7.71-10.25,7.68-10.29
		c0.05,0.23-15.4-7.25-32.44,2.7c-8.49,5.02-15.2,13.91-19.38,21.54C55.29,196.23,53.58,202.6,53.54,202.56z"/>
	<path d="M67.87,156c0.04,0.23,15.64,5.05,32.99-2.75c8.7-3.85,16.6-9.68,22.62-14.44c5.98-4.78,10.08-8.49,10.06-8.53
		c0.01,0.23-13.42-10.23-32.57-3.93c-9.55,3.2-18.21,10.55-24.06,17.19C71,150.15,67.9,156.05,67.87,156z"/>
	<path d="M92.79,113.26c-0.01,0.23,14.12,8.13,33.17,4c9.55-2.01,18.86-6.12,26.11-9.57c7.2-3.47,12.34-6.28,12.32-6.32
		c-0.04,0.23-10.69-12.76-31.42-10.47c-10.35,1.2-20.79,6.65-28.21,11.97C97.27,108.16,92.81,113.31,92.79,113.26z"/>
	<path d="M128.29,76.39c-0.05,0.22,11.85,10.84,32.07,10.66c10.12-0.03,20.69-2.17,29.08-4.07c8.33-1.94,14.46-3.64,14.46-3.69
		c-0.08,0.22-7.21-14.68-28.98-16.66c-10.88-0.93-22.95,2.29-31.84,6C134.1,72.3,128.31,76.45,128.29,76.39z"/>
	<path d="M318.79,463.45c24.36,2.99,33.01,15.84,32.94,16.07c-0.02-0.07-8.5,3.32-20.81,5.58c-12.21,2.32-28.24,3.51-41.35,0.61
		c-26.22-5.94-28.91-22.14-29.01-21.92c-0.01-0.06,8.84-0.56,20.32-1.05C292.43,462.3,306.59,461.88,318.79,463.45z"/>
	<path d="M372.83,436.85c23.1-1.76,34.77,8.93,34.74,9.18c-0.03-0.07-6.95,4.83-17.52,9.33c-10.49,4.56-24.64,8.71-37.17,8.37
		c-25.09-0.82-32.09-15.9-32.14-15.66c-0.02-0.05,7.6-2.17,17.7-4.78C348.6,440.73,361.26,437.66,372.83,436.85z"/>
	<path d="M415.57,400.83c21.31-6.21,35.25,1.81,35.26,2.05c-0.04-0.06-5.36,6.04-14.11,12.44c-8.67,6.44-20.78,13.19-32.47,15.27
		c-23.43,4.03-33.99-9.16-34-8.91c-0.02-0.05,6.33-3.53,14.96-7.99C393.91,409.28,404.88,403.87,415.57,400.83z"/>
	<path d="M447,357.6c18.99-10.26,34.44-5.28,34.5-5.05c-0.04-0.05-3.74,6.93-10.58,14.88c-6.76,7.97-16.66,16.9-27.24,21.21
		c-21.23,8.5-34.6-2.17-34.57-1.93c-0.03-0.05,5.03-4.64,12.1-10.65C428.33,370.08,437.46,362.67,447,357.6z"/>
	<path d="M467.12,309.35c16.13-13.8,32.36-12.09,32.46-11.87c-0.05-0.05-2.09,7.5-6.92,16.61c-4.75,9.11-12.28,19.78-21.49,26.08
		c-18.49,12.5-33.93,4.81-33.86,5.04c-0.03-0.04,3.7-5.5,9.11-12.74C451.88,325.23,459.01,316.21,467.12,309.35z"/>
	<path d="M475.95,258.29c12.74-16.74,28.99-18.37,29.13-18.18c-0.05-0.04-0.42,7.75-3.14,17.62c-2.64,9.85-7.65,21.78-15.21,29.78
		c-15.23,15.91-31.98,11.53-31.87,11.75c-0.04-0.03,2.35-6.09,6-14.24C464.56,276.86,469.52,266.63,475.95,258.29z"/>
	<path d="M473.46,206.61c8.82-18.97,24.34-23.87,24.52-23.71c-0.06-0.03,1.29,7.68,0.77,17.88c-0.44,10.18-2.75,22.85-8.41,32.2
		c-11.43,18.63-28.75,17.75-28.6,17.94c-0.05-0.02,0.96-6.42,2.76-15.13C466.35,227.09,468.99,216.07,473.46,206.61z"/>
	<path d="M459.67,156.51c4.37-20.38,18.41-28.34,18.63-28.22c-0.07-0.01,3.02,7.27,4.8,17.37c1.85,10.06,2.4,22.95-1.09,33.25
		c-7.1,20.56-24.24,23.22-24.04,23.38c-0.05-0.01-0.45-6.48-0.6-15.37C457.27,178.02,457.42,166.69,459.67,156.51z"/>
	<path d="M434.58,110.2c-0.62-20.88,11.19-31.54,11.46-31.46c-0.07,0,4.78,6.51,8.95,16.06c4.24,9.49,7.81,22.02,6.76,32.83
		c-2.23,21.6-18.44,27.68-18.2,27.8c-0.06,0-1.9-6.26-4.09-14.94C437.32,131.78,434.82,120.64,434.58,110.2z"/>
	<path d="M398.18,69.87c-2.92-10.18-2.45-18.47-0.94-24.23c1.46-5.75,3.94-8.97,3.95-8.95c-0.08,0.02,6.57,5.42,13.23,13.93
		c6.73,8.45,13.47,20.01,15.13,30.83c3.17,21.64-11.36,30.9-11.08,30.96c-0.07,0.01-3.37-5.75-7.7-13.82
		C406.49,90.48,401.17,80.06,398.18,69.87z"/>
	<path d="M350.48,37.72c-5.94-9.39-7.92-17.61-8.1-23.55c-0.23-5.93,1.36-9.59,1.37-9.58c-0.09,0.03,8.39,3.97,17.64,10.96
		c9.31,6.91,19.4,16.88,24.03,27.15c4.71,10.27,3.75,18.45,1.93,24.02c-1.87,5.58-4.6,8.56-4.6,8.59
		c-0.07,0.02-4.87-4.96-11.44-11.99C364.78,56.23,356.49,47.1,350.48,37.72z"/>
	<path d="M260.33,462.36c-0.02,0.01-0.45-3.9,1.35-9.55c1.74-5.67,5.71-13.07,13.27-20.48c7.63-7.39,16.94-13.75,24.17-18.54
		c7.25-4.75,12.42-7.93,12.49-7.9c-0.01,0.02,1.85,3.52,2.41,9.19c0.51,5.65-0.28,13.47-6.77,21.81
		c-6.4,8.35-17.88,15.15-28.05,19.38C269.06,460.58,260.24,462.32,260.33,462.36z"/>
	<path d="M320.11,446.75c-0.01,0.02-1.54-3.66-1.61-9.42c-0.12-5.76,1.21-13.61,5.79-22.12c9.53-16.78,25.81-32.14,25.72-32.35
		c0,0.02,2.69,3.04,4.79,8.38c2.05,5.34,3.51,13.02-0.04,22.27c-3.48,9.25-11.87,17.94-19.7,23.9
		C327.26,443.44,320.03,446.73,320.11,446.75z"/>
	<path d="M369.3,420.54c-0.29,0.03-9.02-12.99-4.98-31.15c4.13-17.98,15.54-36,15.43-36.2c-0.26,0.08,14.06,9.45,12.57,28.65
		c-0.81,9.6-6.28,19.61-11.88,26.85C374.9,415.99,369.23,420.53,369.3,420.54z"/>
	<path d="M407.91,385.79c-0.25,0.09-12-10.76-12.85-29.11c-0.74-18.18,5.93-37.93,5.79-38.1c-0.22,0.12,15.82,6.36,19.11,25.26
		c1.58,9.46-1.13,20.22-4.58,28.32C411.98,380.31,407.84,385.79,407.91,385.79z"/>
	<path d="M435.93,344.55c-0.21,0.13-14.22-8.03-19.44-25.65c-5.08-17.48-3.04-38.05-3.21-38.2c-0.18,0.16,16.84,3,24.36,20.72
		c3.71,8.88,3.6,19.88,2.2,28.42C438.5,338.43,435.87,344.57,435.93,344.55z"/>
	<path d="M453.36,298.9c-0.16,0.17-15.7-4.93-24.75-21.04c-8.88-16-11.35-36.5-11.55-36.6c-0.13,0.19,17.11-0.48,28.34,15.28
		c5.57,7.91,7.9,18.65,8.45,27.26C454.46,292.43,453.31,298.92,453.36,298.9z"/>
	<path d="M460.2,250.88c-0.12,0.19-16.43-1.62-28.78-15.52c-12.15-13.82-19.02-33.38-19.24-33.45c-0.09,0.21,16.63-3.95,31.03,9.19
		c7.16,6.61,11.76,16.64,14.18,24.93C459.87,244.34,460.16,250.92,460.2,250.88z"/>
	<path d="M456.46,202.56c-0.08,0.21-16.41,1.75-31.53-9.34c-7.6-5.5-13.91-12.75-18.61-18.57c-4.66-5.83-7.71-10.25-7.68-10.29
		c-0.05,0.23,15.4-7.25,32.44,2.7c8.49,5.02,15.2,13.91,19.38,21.54C454.71,196.23,456.42,202.6,456.46,202.56z"/>
	<path d="M442.13,156c-0.04,0.23-15.64,5.05-32.99-2.75c-8.7-3.85-16.6-9.68-22.62-14.44c-5.98-4.78-10.08-8.49-10.06-8.53
		c-0.01,0.23,13.42-10.23,32.57-3.93c9.55,3.2,18.21,10.55,24.06,17.19C439,150.15,442.1,156.05,442.13,156z"/>
	<path d="M417.21,113.26c0.01,0.23-14.12,8.13-33.17,4c-9.55-2.01-18.86-6.12-26.11-9.57c-7.2-3.47-12.34-6.28-12.32-6.32
		c0.04,0.23,10.69-12.76,31.42-10.47c10.35,1.2,20.79,6.65,28.21,11.97C412.73,108.16,417.19,113.31,417.21,113.26z"/>
	<path d="M381.71,76.39c0.05,0.22-11.85,10.84-32.07,10.66c-10.12-0.03-20.69-2.17-29.08-4.07c-8.33-1.94-14.46-3.64-14.46-3.69
		c0.08,0.22,7.21-14.68,28.98-16.66c10.88-0.93,22.95,2.29,31.84,6C375.9,72.3,381.69,76.45,381.71,76.39z"/>
</g>
</svg>
