<?xml version="1.0" encoding="utf-8"?>
<!-- Generator: Adobe Illustrator 24.3.0, SVG Export Plug-In . SVG Version: 6.00 Build 0)  -->
<svg version="1.1" xmlns="http://www.w3.org/2000/svg" xmlns:xlink="http://www.w3.org/1999/xlink" x="0px" y="0px"
	 viewBox="0 0 512 479" style="enable-background:new 0 0 512 479;" xml:space="preserve">
<g>
	<path d="M436.88,241.52c-0.46-5.22,0.46-9.74,3.01-13.68c-11.24-2.2-20.64,3.01-28.52,15.19l-2.2-14.38
		c-12.4,6.03-23.19,12.87-27.59,22.95l-8.12-14.49c-7.65,7.65-14.26,16.46-19.71,27.82l-5.8-9.85c-5.56,3.48-9.51,12.98-13.1,24
		l-6.26-5.68c-6.96,7.19-11.01,19.71-14.72,32.81c-1.04-1.97-3.25-3.94-4.17-6.96c-5.91,9.39-9.62,19.13-11.71,29.21l-5.45-4.52
		c-1.91,11.72-15.55,33.71-28.15,50.53c-1.46-1-3.12-1.71-4.89-2.13c8.22-25.78,21.65-58.35,32.11-68.92l-7.65-2.78
		c8.23-9.16,15.3-19.83,20.52-32.69c-3.48,1.04-6.72,0-9.16,0.46c10.09-13.1,19.48-26.08,22.03-38.37l-9.27-2.67
		c8.35-11.48,14.84-22.26,14.72-30.61l-12.87,0.58c7.42-13.56,11.82-26.78,14.26-40.11l-18.66,1.39
		c6.96-11.71,6.72-27.94,4.87-45.21l-15.07,7.65c6.72-16.81,5.91-30.49-3.01-40.92c-2.32,5.33-6.03,9.62-11.13,12.64
		c4.41-29.56-8.23-21.56-24.46-84.63c-0.12-0.58-0.23-1.28-0.46-1.85c-0.12,0.81-0.35,1.51-0.58,2.2
		c-16.35,62.95-28.98,54.83-24.58,84.51c-5.22-3.13-8.93-7.3-11.13-12.75c-8.93,10.43-9.85,24.11-3.25,40.92l-14.95-7.65
		c-1.97,17.27-2.2,33.5,4.64,45.21l-18.67-1.39c2.55,13.33,6.84,26.55,14.14,40.11l-12.75-0.58c-0.23,8.23,6.26,19.13,14.49,30.61
		l-9.16,2.67c2.43,12.29,11.82,25.27,21.91,38.37c-2.55-0.35-5.8,0.58-9.16-0.46c5.22,12.87,12.17,23.53,20.29,32.69l-7.54,2.78
		c10.46,10.66,23.7,43.2,31.79,69.04c-1.48,0.44-2.88,1.05-4.13,1.91c-12.55-16.84-26.2-38.81-28.13-50.55l-5.45,4.52
		c-2.2-10.09-5.8-19.82-11.71-29.21c-1.04,3.01-3.25,4.99-4.17,6.96c-3.83-13.1-7.88-25.62-14.84-32.81l-6.14,5.68
		c-3.59-11.01-7.65-20.52-13.22-24l-5.8,9.85c-5.45-11.36-12.06-20.17-19.59-27.82l-8.12,14.49c-4.52-10.09-15.3-16.93-27.71-22.95
		l-2.09,14.38c-7.88-12.17-17.39-17.39-28.52-15.19c2.43,3.94,3.48,8.46,3.01,13.68c-17.51-16-18.2-3.13-67.7-18.2
		c-0.58-0.12-1.16-0.35-1.74-0.46c0.35,0.35,0.7,0.81,0.93,1.16c33.85,39.18,22.49,44.98,44.05,54.49c-4.4,2.55-9.04,3.48-13.68,2.9
		c2.55,11.01,11.25,17.51,25.5,19.82l-12.29,7.77c10.55,8.81,21.1,16,32.11,16l-9.85,13.22c10.09,3.83,20.87,6.26,33.39,6.72
		l-6.61,9.27c5.45,3.59,15.77,3.48,27.36,2.32l-2.78,8c9.39,3.36,22.49,1.97,36.05,0.12c-1.51,1.62-2.43,4.52-4.75,6.61
		c11.01,1.62,21.45,1.04,31.42-1.16l-1.85,6.84c11.37-2.94,36.75,0.5,57.25,5.13c-0.49,1.46-0.81,2.99-0.82,4.61
		c-12.94,0.28-27.09-0.58-33.47-3.48l0.46,4.75c-6.49-2.67-13.33-4.29-20.87-4.52c1.27,1.74,1.51,3.71,2.32,4.98
		c-8.81-2.9-17.39-5.33-24-4.17l0.81,5.68c-7.65-2.2-14.49-3.48-18.55-1.74l3.36,7.07c-8.46-1.27-15.88-0.93-23.07,0.46l4.98,9.97
		c-7.3-1.27-15.3,2.2-23.3,6.84l7.19,6.72c-9.85-0.12-16.35,3.13-19.36,10.2c3.13,0.23,6.14,1.39,8.81,3.59
		c-15.54,3.71-8.7,9.04-35.82,31.19c-0.35,0.23-0.7,0.46-1.04,0.81c0.35-0.12,0.7-0.12,1.04-0.12c34.9-4.17,33.85,4.41,47.42-4.17
		c-0.35,3.48-1.51,6.49-3.59,8.81c7.19,2.78,14.14,0.46,20.87-6.84l-0.35,9.97c9.04-2.55,17.04-5.8,21.22-12.06l3.71,10.55
		c5.91-4.17,11.48-9.27,16.46-16.23l2.67,7.3c4.17-1.74,8-7.54,11.71-14.49l3.48,4.52c5.45-3.94,9.62-11.82,13.68-20.17
		c0.35,1.51,1.62,3.01,1.97,5.22c5.1-5.56,8.7-11.71,11.36-18.2l3.13,3.71c2.23-6.59,11.31-17.26,20.46-26.35
		c2.73,3.14,6.7,5.17,11.19,5.17c4.46,0,8.41-2,11.14-5.1c9.13,9.08,18.21,19.71,20.51,26.29l3.13-3.71
		c2.55,6.49,6.26,12.64,11.25,18.2c0.35-2.2,1.62-3.71,1.97-5.22c4.06,8.35,8.35,16.23,13.8,20.17l3.48-4.52
		c3.71,6.96,7.54,12.75,11.59,14.49l2.78-7.3c4.98,6.96,10.43,12.06,16.46,16.23l3.71-10.55c4.06,6.26,12.17,9.51,21.1,12.06
		l-0.23-9.97c6.72,7.3,13.68,9.62,20.87,6.84c-2.2-2.32-3.36-5.33-3.71-8.81c13.68,8.58,12.64,0,47.42,4.17c0.35,0,0.69,0,1.04,0.12
		c-0.35-0.35-0.58-0.58-0.93-0.81c-27.24-22.14-20.29-27.48-35.94-31.19c2.78-2.2,5.68-3.36,8.93-3.59
		c-3.13-7.07-9.62-10.32-19.48-10.2l7.3-6.72c-8.11-4.64-16-8.11-23.42-6.84l5.1-9.97c-7.19-1.39-14.72-1.74-23.07-0.46l3.25-7.07
		c-4.06-1.74-10.9-0.46-18.55,1.74l0.93-5.68c-6.61-1.16-15.3,1.28-24.11,4.17c0.81-1.28,1.04-3.25,2.43-4.98
		c-7.53,0.23-14.49,1.85-20.87,4.52l0.35-4.75c-6.3,2.9-20.4,3.77-33.36,3.48c-0.01-1.62-0.34-3.16-0.83-4.62
		c20.43-4.63,45.78-8.06,57.14-5.12l-1.86-6.84c10.09,2.2,20.52,2.78,31.42,1.16c-2.32-2.09-3.13-4.98-4.64-6.61
		c13.56,1.86,26.66,3.25,35.94-0.12l-2.67-8c11.59,1.16,21.79,1.28,27.24-2.32l-6.49-9.27c12.52-0.46,23.3-2.9,33.27-6.72
		l-9.85-13.22c11.01,0,21.68-7.19,32.11-16l-12.29-7.77c14.38-2.32,22.95-8.81,25.5-19.82c-4.64,0.58-9.16-0.35-13.68-2.9
		c21.68-9.51,10.32-15.3,44.05-54.49c0.35-0.35,0.7-0.81,1.04-1.16c-0.7,0.12-1.28,0.35-1.86,0.46
		C455.08,238.39,454.27,225.52,436.88,241.52z"/>
</g>
</svg>
