<?xml version="1.0" encoding="utf-8"?>
<!-- Generator: Adobe Illustrator 24.3.0, SVG Export Plug-In . SVG Version: 6.00 Build 0)  -->
<svg version="1.1" xmlns="http://www.w3.org/2000/svg" xmlns:xlink="http://www.w3.org/1999/xlink" x="0px" y="0px"
	 viewBox="0 0 593 529" style="enable-background:new 0 0 593 529;" xml:space="preserve">
<path style="stroke:#000000;stroke-width:30;stroke-miterlimit:10;" d="M21.69,264.51c0-6.09,1.64-12.18,4.92-17.86l0,0
	L146.08,39.72c6.53-11.36,17.82-17.86,30.94-17.86l238.96-0.02c13.1,0,24.37,6.52,30.92,17.87l119.47,206.93
	c6.58,11.36,6.58,24.37,0,35.73L446.89,489.3c-6.53,11.36-17.81,17.86-30.92,17.86H177.01c-13.11,0-24.4-6.5-30.94-17.86
	L26.6,282.38C23.33,276.7,21.69,270.6,21.69,264.51z M34.61,250.76c-4.84,8.46-4.85,18.12,0.02,26.55l119.42,206.87
	c4.87,8.43,13.25,13.27,22.99,13.27h238.9c9.74,0,18.1-4.84,22.97-13.27l119.44-206.87c4.87-8.44,4.87-18.1,0-26.55L438.92,43.88
	c-4.87-8.44-13.25-13.28-22.97-13.28l-238.9,0.02c-9.74,0-18.12,4.84-22.99,13.27L34.61,250.76z"/>
</svg>
