<?xml version="1.0" encoding="utf-8"?>
<!-- Generator: Adobe Illustrator 24.3.0, SVG Export Plug-In . SVG Version: 6.00 Build 0)  -->
<svg version="1.1" xmlns="http://www.w3.org/2000/svg" xmlns:xlink="http://www.w3.org/1999/xlink" x="0px" y="0px"
	 viewBox="0 0 526 594" style="enable-background:new 0 0 526 594;" xml:space="preserve">
<path style="stroke:#000000;stroke-width:30;stroke-miterlimit:10;" d="M263,571.81c-6.09,0-12.18-1.64-17.86-4.92l0,0L38.21,447.41
	c-11.36-6.53-17.86-17.82-17.86-30.94l-0.02-238.96c0-13.1,6.52-24.37,17.87-30.92L245.15,27.13c11.36-6.58,24.37-6.58,35.73,0
	L487.81,146.6c11.36,6.53,17.86,17.81,17.86,30.92v238.96c0,13.11-6.5,24.4-17.86,30.94L280.88,566.89
	C275.2,570.16,269.1,571.81,263,571.81z M249.26,558.89c8.46,4.84,18.12,4.85,26.55-0.02l206.87-119.43
	c8.43-4.87,13.27-13.25,13.27-22.99v-238.9c0-9.74-4.84-18.1-13.27-22.97L275.81,35.13c-8.44-4.87-18.1-4.87-26.55,0L42.37,154.57
	c-8.44,4.87-13.28,13.25-13.28,22.97l0.02,238.9c0,9.74,4.84,18.12,13.27,22.99L249.26,558.89z"/>
</svg>
